<svg width="22" height="19" viewBox="0 0 22 19" fill="none" xmlns="http://www.w3.org/2000/svg">
<path d="M13.4654 0.261949C13.0992 -0.0995312 12.5185 -0.0852809 12.1697 0.294724C11.8204 0.674729 11.8351 1.27609 12.2013 1.63804L19.233 8.54986H0.916667C0.410667 8.54986 0 8.97547 0 9.49987C0 10.0243 0.410667 10.4499 0.916667 10.4499H19.2037L12.2013 17.3622C11.8346 17.7241 11.8204 18.3255 12.1697 18.7055C12.3498 18.9012 12.5913 19 12.8333 19C13.0607 19 13.288 18.9131 13.4654 18.7378L21.4628 10.8432C21.8093 10.4846 22 10.0077 22 9.49987C22 8.99209 21.8093 8.51519 21.4468 8.14041L13.4654 0.261949Z" fill="#95BA00"/>
</svg>
