<svg xmlns="http://www.w3.org/2000/svg" xmlns:xlink="http://www.w3.org/1999/xlink" width="81" height="80" viewBox="0 0 81 80">
    <defs>
        <linearGradient id="a" x1="50%" x2="50%" y1="33.203%" y2="100%">
            <stop offset="0%" stop-color="#D2E911"/>
            <stop offset="100%" stop-color="#96BC00"/>
        </linearGradient>
        <path id="b" d="M847.435 3658c4.889 0 8.889 4 8.889 8.889v62.222c0 4.889-4 8.889-8.89 8.889h-62.222c-4.888 0-8.888-4-8.888-8.889v-62.222c0-4.889 4-8.889 8.888-8.889h62.223zm-40.89 46.222v-.444h11.112c6.667 0 9.778-1.334 12.444-3.556 2.667-2.222 4-5.778 4-10.222 0-4-.889-7.556-4-10.222-2.666-2.667-5.777-4-12.444-4h-19.111v44.444h8v-16zm-.221-6.222v-16h10.162c3.094 0 5.303.889 6.628 2.667 1.326 1.777 2.21 3.11 2.21 5.333 0 2.667-.884 4-2.21 5.778-1.325 1.333-3.093 2.222-6.186 2.222h-10.604z"/>
        <filter id="c" width="105%" height="105%" x="-2.1%" y="-2.5%" filterUnits="objectBoundingBox">
            <feGaussianBlur in="SourceAlpha" result="shadowBlurInner1" stdDeviation="1"/>
            <feOffset dx="2" dy="1" in="shadowBlurInner1" result="shadowOffsetInner1"/>
            <feComposite in="shadowOffsetInner1" in2="SourceAlpha" k2="-1" k3="1" operator="arithmetic" result="shadowInnerInner1"/>
            <feColorMatrix in="shadowInnerInner1" values="0 0 0 0 0 0 0 0 0 0 0 0 0 0 0 0 0 0 0.304004589 0"/>
        </filter>
    </defs>
    <g fill="none" fill-rule="nonzero" transform="translate(-776 -3658)">
        <use fill="url(#a)" xlink:href="#b"/>
        <use fill="#000" filter="url(#c)" xlink:href="#b"/>
    </g>
</svg>
