<svg xmlns="http://www.w3.org/2000/svg" xmlns:xlink="http://www.w3.org/1999/xlink" width="123" height="67" viewBox="0 0 123 67">
    <defs>
        <linearGradient id="a" x1="50%" x2="50%" y1="33.203%" y2="100%">
            <stop offset="0%" stop-color="#D2E911"/>
            <stop offset="100%" stop-color="#96BC00"/>
        </linearGradient>
        <path id="b" d="M1165.731 1057.352c0 3.374-2.746 6.109-6.134 6.109-3.388 0-6.134-2.735-6.134-6.109v-42.76c0-3.374 2.746-6.11 6.134-6.11 3.388.001 6.135 2.736 6.135 6.11v12.193l9.201-.001c1.627 0 3.067 1.434 3.067 3.054v12.27c0 .81-.322 1.587-.898 2.16a3.07 3.07 0 0 1-2.169.894l-9.202-.002v12.192zm-86.212 0c0 3.374-2.746 6.109-6.134 6.109-3.388 0-6.135-2.736-6.135-6.11v-12.191h-9.181a3.063 3.063 0 0 1-3.067-3.054l-.002-12.269c0-.81.322-1.586.898-2.16a3.071 3.071 0 0 1 2.169-.894l9.184.002v-12.194c0-3.373 2.746-6.108 6.134-6.108 3.388 0 6.134 2.735 6.134 6.108v42.76zm50.459-30.436l.018 18.093-26.044.018-.018-18.093 26.044-.018zm18.209 35.993c0 3.364-2.739 6.091-6.117 6.091s-6.116-2.727-6.116-6.09v-54.819c0-3.364 2.738-6.091 6.117-6.091 3.377 0 6.116 2.727 6.116 6.09v54.819zm-51.16 0c.001 3.364-2.737 6.091-6.116 6.091-3.378 0-6.116-2.727-6.116-6.09v-54.819c0-3.364 2.738-6.091 6.117-6.091 3.378 0 6.116 2.727 6.116 6.09v54.82z"/>
        <filter id="c" width="103.3%" height="106%" x="-1.6%" y="-3%" filterUnits="objectBoundingBox">
            <feGaussianBlur in="SourceAlpha" result="shadowBlurInner1" stdDeviation="1"/>
            <feOffset dx="2" dy="1" in="shadowBlurInner1" result="shadowOffsetInner1"/>
            <feComposite in="shadowOffsetInner1" in2="SourceAlpha" k2="-1" k3="1" operator="arithmetic" result="shadowInnerInner1"/>
            <feColorMatrix in="shadowInnerInner1" values="0 0 0 0 0 0 0 0 0 0 0 0 0 0 0 0 0 0 0.304004589 0"/>
        </filter>
    </defs>
    <g fill="none" fill-rule="nonzero" transform="translate(-1055 -1002)">
        <use fill="url(#a)" xlink:href="#b"/>
        <use fill="#000" filter="url(#c)" xlink:href="#b"/>
    </g>
</svg>
