<svg xmlns="http://www.w3.org/2000/svg" xmlns:xlink="http://www.w3.org/1999/xlink" width="97" height="120" viewBox="0 0 97 120">
    <defs>
        <linearGradient id="a" x1="50%" x2="50%" y1="0%" y2="100%">
            <stop offset="0%" stop-color="#454856"/>
            <stop offset="100%" stop-color="#23252A"/>
        </linearGradient>
        <path id="b" d="M1140.658 3722.035h-13.149v30.353h13.15L1157 3772h-84l16.342-19.612h13.149v-30.353h-13.15L1073 3702.422h39.089v-8.76h-3.37V3690h12.562v3.661h-3.37v8.761H1157l-16.342 19.613zm22.343-44.852c1.054.66 1.316 1.968.584 2.917-.435.563-1.151.9-1.915.9-.475 0-.933-.13-1.325-.375-.337-.21-.945-1.473-1.345-3.392.795-.126 1.719-.233 2.57-.233 1.102 0 1.43.182 1.431.182zM1146 3672.13c1.763-1.948 3.375-3.109 3.999-3.128 1.627-.053 2.95 1.242 3 2.908a3.033 3.033 0 0 1-.791 2.147 2.854 2.854 0 0 1-2.024.942l-.022.001c-.639-.006-2.265-1.007-4.162-2.87zm-14 4.14c.637-2.457 1.566-4.462 2.271-4.858a3.19 3.19 0 0 1 1.564-.412c1.133 0 2.185.6 2.747 1.567.419.72.527 1.56.306 2.361a3.096 3.096 0 0 1-1.48 1.883c-.055.032-.376.189-1.207.189-1.372 0-3.072-.407-4.201-.73zm-10.797.675a3.386 3.386 0 0 1 2.341-.945c.976 0 1.877.406 2.539 1.144.626.698.951 1.605.914 2.555a3.577 3.577 0 0 1-1.107 2.472c-.204.195-1.102.829-4.071.829-.68 0-1.316-.034-1.819-.073.008-2.265.346-5.167 1.203-5.982zm-53.205.237c.001 0 .33-.182 1.432-.182.851 0 1.775.107 2.57.233-.4 1.919-1.008 3.181-1.345 3.392-.392.245-.85.375-1.324.375-.764 0-1.48-.337-1.916-.9-.732-.949-.47-2.258.583-2.918zm12.818-2.183a2.854 2.854 0 0 1-2.024-.942 3.033 3.033 0 0 1-.79-2.147c.049-1.666 1.372-2.961 3-2.908.623.02 2.235 1.18 3.998 3.128-1.897 1.863-3.523 2.864-4.162 2.87h-.022zm12.548 1.812c-.628-.412-1.078-1.08-1.268-1.883a3.498 3.498 0 0 1 .263-2.361c.48-.967 1.383-1.567 2.354-1.567.467 0 .93.143 1.34.412.604.397 1.4 2.402 1.947 4.858-.967.323-2.424.73-3.6.73-.713 0-.988-.157-1.036-.189zm15.558 6.189c-3.394 0-4.42-.635-4.653-.829-.775-.645-1.224-1.523-1.266-2.472-.042-.95.33-1.857 1.045-2.555.756-.738 1.786-1.144 2.9-1.144.995 0 1.946.335 2.677.945.98.815 1.366 3.717 1.375 5.982a31.23 31.23 0 0 1-2.078.073zm50.884-22.925c-.324.938-1.018 1.63-1.855 1.851a2.229 2.229 0 0 1-1.554-.156c-.427-.207-1.436-1.848-2.397-4.495.837-.412 1.821-.833 2.755-1.08 1.207-.319 1.617-.151 1.618-.151 1.335.645 1.978 2.453 1.433 4.03zm-14.73-3.09c-.546.115-2.116-.4-4.076-1.574 1.142-1.936 2.3-3.195 2.827-3.33a2.528 2.528 0 0 1 3.093 1.825 2.5 2.5 0 0 1-.277 1.916c-.347.58-.9.993-1.55 1.158l-.017.004zm-12.099 5.74c-1.25.339-2.882.301-3.977.218.073-2.913.506-5.39 1.066-6.01.38-.42.842-.713 1.34-.847 1.03-.28 2.113.134 2.824 1.08.53.705.803 1.619.767 2.573-.036.954-.377 1.833-.959 2.477-.044.049-.304.304-1.06.51zm-13.597 8.922c-.694.16-1.351.274-1.875.353-.493-2.316-.79-5.359-.096-6.393a3.602 3.602 0 0 1 2.184-1.515 3.496 3.496 0 0 1 2.847.572 3.709 3.709 0 0 1 1.5 2.394 3.786 3.786 0 0 1-.583 2.786c-.166.247-.942 1.105-3.977 1.803zm-42.38-14.372c-.96 2.647-1.97 4.289-2.397 4.494a2.225 2.225 0 0 1-1.554.157c-.837-.221-1.53-.913-1.855-1.851-.545-1.578.098-3.386 1.433-4.031 0 0 .41-.168 1.618.151.934.247 1.918.668 2.755 1.08zm8.224-.296c-.758-.164-1.404-.576-1.808-1.157-.404-.58-.518-1.261-.323-1.916.409-1.36 2.003-2.175 3.608-1.825.616.135 1.967 1.394 3.299 3.33-2.287 1.173-4.118 1.689-4.755 1.573l-.021-.005zm12.799 5.746c-.757-.205-1.017-.46-1.061-.51-.582-.643-.923-1.522-.959-2.476-.036-.954.236-1.868.767-2.574.711-.945 1.794-1.359 2.825-1.079.497.134.96.427 1.34.848.56.619.992 3.096 1.065 6.009-1.095.083-2.727.121-3.977-.218zm12.597 8.922c-3.034-.697-3.81-1.556-3.977-1.803a3.784 3.784 0 0 1-.583-2.786 3.709 3.709 0 0 1 1.5-2.394 3.496 3.496 0 0 1 2.847-.572c.889.205 1.665.743 2.183 1.515.695 1.034.398 4.077-.095 6.393a25.001 25.001 0 0 1-1.875-.353z"/>
        <filter id="c" width="106.2%" height="105%" x="-3.1%" y="-2.5%" filterUnits="objectBoundingBox">
            <feGaussianBlur in="SourceAlpha" result="shadowBlurInner1" stdDeviation="1.5"/>
            <feOffset dx="3" dy="3" in="shadowBlurInner1" result="shadowOffsetInner1"/>
            <feComposite in="shadowOffsetInner1" in2="SourceAlpha" k2="-1" k3="1" operator="arithmetic" result="shadowInnerInner1"/>
            <feColorMatrix in="shadowInnerInner1" values="0 0 0 0 0 0 0 0 0 0 0 0 0 0 0 0 0 0 0.5 0"/>
        </filter>
    </defs>
    <g fill="none" fill-rule="nonzero" transform="translate(-1067 -3652)">
        <use fill="url(#a)" xlink:href="#b"/>
        <use fill="#000" filter="url(#c)" xlink:href="#b"/>
    </g>
</svg>
