<svg width="31" height="31" viewBox="0 0 31 31" fill="none" xmlns="http://www.w3.org/2000/svg">
<g clip-path="url(#clip0)">
<path d="M26.46 4.54C27.9038 5.97594 29.0485 7.68398 29.8278 9.56526C30.6071 11.4465 31.0055 13.4637 31 15.5C31 19.64 29.388 23.533 26.46 26.46C25.0241 27.9038 23.3161 29.0486 21.4348 29.8278C19.5535 30.6071 17.5363 31.0055 15.5 31C11.36 31 7.467 29.388 4.54 26.46C3.09614 25.0241 1.95144 23.3161 1.17214 21.4348C0.392849 19.5535 -0.00555354 17.5363 -3.8443e-06 15.5C-3.8443e-06 11.36 1.612 7.467 4.54 4.54C5.97594 3.09618 7.68398 1.95151 9.56526 1.17222C11.4465 0.392928 13.4637 -0.00549945 15.5 -4.97267e-06C19.64 -4.97267e-06 23.533 1.612 26.46 4.54ZM15.5 29.184C23.045 29.184 29.184 23.045 29.184 15.5C29.184 7.955 23.045 1.81599 15.5 1.81599C7.955 1.81599 1.816 7.955 1.816 15.5C1.816 23.045 7.955 29.184 15.5 29.184V29.184ZM23.723 10.279C24.093 10.651 24.093 11.255 23.723 11.627L14.689 20.721C14.6015 20.8098 14.4971 20.8803 14.3821 20.9284C14.2671 20.9765 14.1437 21.0013 14.019 21.0013C13.8943 21.0013 13.7709 20.9765 13.6559 20.9284C13.5409 20.8803 13.4365 20.8098 13.349 20.721L8.277 15.615C8.09911 15.4356 7.9993 15.1932 7.9993 14.9405C7.9993 14.6878 8.09911 14.4454 8.277 14.266C8.36468 14.1775 8.46903 14.1072 8.58403 14.0592C8.69903 14.0113 8.8224 13.9866 8.947 13.9866C9.0716 13.9866 9.19496 14.0113 9.30996 14.0592C9.42496 14.1072 9.52932 14.1775 9.617 14.266L14.02 18.698L22.383 10.279C22.4707 10.1905 22.575 10.1202 22.69 10.0722C22.805 10.0243 22.9284 9.99958 23.053 9.99958C23.1776 9.99958 23.301 10.0243 23.416 10.0722C23.531 10.1202 23.6353 10.1905 23.723 10.279V10.279Z" fill="#59C0CB"/>
</g>
<defs>
<clipPath id="clip0">
<rect width="31" height="31" fill="white"/>
</clipPath>
</defs>
</svg>
