<svg xmlns="http://www.w3.org/2000/svg" xmlns:xlink="http://www.w3.org/1999/xlink" width="69" height="93" viewBox="0 0 69 93">
    <defs>
        <linearGradient id="a" x1="50%" x2="50%" y1="33.203%" y2="100%">
            <stop offset="0%" stop-color="#D2E911"/>
            <stop offset="100%" stop-color="#96BC00"/>
        </linearGradient>
        <path id="b" d="M513.531 3391.964a10.729 10.729 0 0 1 7.505 7.505L522 3403l-4.315-1.728a10.72 10.72 0 0 1-5.957-5.957L510 3391l3.531.964zM501.333 3362H493v-1.5c0-.828.746-1.5 1.667-1.5h6.666c.92 0 1.667.672 1.667 1.5v1.5h-1.667zm17.667 7v5h-44v-5c0-2.761 2.463-5 5.5-5h33c3.037 0 5.5 2.239 5.5 5zm-.605 36l2.605 1.683a34.323 34.323 0 0 0-.486 7.317c-.731-.267-1.406-.844-1.955-1.672-.683-2.299-.743-4.955-.164-7.328zm-12.842 45.682l.799 1.135c.044.068.097.12.143.183H480.5c-3.037 0-5.5-2.451-5.5-5.475v-25.64a8.268 8.268 0 0 1 1.833-5.202 12.057 12.057 0 0 0 2.64-7.483 12.058 12.058 0 0 0-2.64-7.495 8.257 8.257 0 0 1-1.833-5.19V3379h44v11.772a14.638 14.638 0 0 0-4.98-2.464l-7.186-1.944a1.838 1.838 0 0 0-1.853.546 1.821 1.821 0 0 0-.333 1.894l3.143 7.82a14.685 14.685 0 0 0 7.187 7.682 11.911 11.911 0 0 0-.851 4.82 11.898 11.898 0 0 0-10.44.602 11.797 11.797 0 0 0-5.897 8.597 44.945 44.945 0 0 0 7.763 32.357zm38.022-31.715a40.715 40.715 0 0 1-3.12 22.478l-.01.026a41.45 41.45 0 0 1-4.064 7.13l-.807 1.135a5.413 5.413 0 0 1-4.328 2.263 5.422 5.422 0 0 1-4.4-2.12l-.415-.546a5.568 5.568 0 0 0-4.432-2.182 5.568 5.568 0 0 0-4.433 2.182l-.412.545a5.449 5.449 0 0 1-4.312 2.122 5.417 5.417 0 0 1-4.416-2.262l-.807-1.135c-6.145-8.616-8.716-19.216-7.188-29.636.595-3.988 4.062-6.95 8.157-6.967a8.25 8.25 0 0 1 5.833 2.378l.465.459.017.014.046.045c3.9 3.833 10.215 3.833 14.115 0l.528-.52a8.252 8.252 0 0 1 5.825-2.376c4.095.018 7.563 2.979 8.158 6.967z"/>
        <filter id="c" width="105.8%" height="104.3%" x="-2.9%" y="-2.2%" filterUnits="objectBoundingBox">
            <feGaussianBlur in="SourceAlpha" result="shadowBlurInner1" stdDeviation="1"/>
            <feOffset dx="2" dy="1" in="shadowBlurInner1" result="shadowOffsetInner1"/>
            <feComposite in="shadowOffsetInner1" in2="SourceAlpha" k2="-1" k3="1" operator="arithmetic" result="shadowInnerInner1"/>
            <feColorMatrix in="shadowInnerInner1" values="0 0 0 0 0 0 0 0 0 0 0 0 0 0 0 0 0 0 0.304004589 0"/>
        </filter>
    </defs>
    <g fill="none" fill-rule="nonzero" transform="translate(-475 -3359)">
        <use fill="url(#a)" xlink:href="#b"/>
        <use fill="#000" filter="url(#c)" xlink:href="#b"/>
    </g>
</svg>
