<svg xmlns="http://www.w3.org/2000/svg" xmlns:xlink="http://www.w3.org/1999/xlink" width="75" height="70" viewBox="0 0 75 70">
    <defs>
        <path id="a" d="M0 .037h74.803V70H0z"/>
    </defs>
    <g fill="none" fill-rule="evenodd">
        <g>
            <mask id="b" fill="#fff">
                <use xlink:href="#a"/>
            </mask>
            <path fill="#F0869B" d="M73.626 25.843c-1.027-.782-2.486-.96-3.722-1.09-1.73-.183-3.487-.034-5.205.168-1.682.2-3.353.451-5.008.768a41.888 41.888 0 0 0-3.454.847 65.143 65.143 0 0 0 2.272-1.924c2.78-2.467 5.288-5.19 6.702-8.674.566-1.375.882-3.473-.324-4.605-.575-.535-1.367-.616-2.106-.703-.878-.102-1.795.174-2.623.43-2.602.78-4.83 2.285-6.97 3.915-1.808 1.386-3.565 2.806-5.2 4.38 1.498-2.46 2.913-4.969 4.074-7.61.765-1.695 1.34-3.49 1.605-5.336.2-1.364.2-2.873-.447-4.127C52.404.717 50.73.462 49.188.968c-1.512.5-2.774 1.92-3.754 3.106-1.278 1.542-2.314 3.255-3.279 5-1.006 1.838-1.953 3.696-2.718 5.65A43.891 43.891 0 0 0 38.07 18.8c.173-1.709.417-3.408.574-5.128.176-1.898.242-3.836.066-5.743-.17-1.765-.8-3.425-1.513-5.035-.684-1.542-1.923-2.699-3.644-2.843-1.593-.138-3.171.685-4.151 1.902-.935 1.145-1.388 2.568-1.61 4.011a19.695 19.695 0 0 0-.04 5.599c.331 2.546.867 5.07 1.546 7.56-.08-.13-.149-.256-.233-.388-1.863-3.21-4.156-6.055-6.75-8.71-1.2-1.225-2.367-2.376-3.805-3.338-1.173-.804-2.457-1.539-3.907-1.652-3.088-.247-4.305 3.13-4.249 5.642.024.977.304 1.943.592 2.875a28.068 28.068 0 0 0 1.37 3.56c1.057 2.268 2.46 4.318 4.059 6.228-1.596-.92-3.24-1.731-4.96-2.38a23.898 23.898 0 0 0-5.188-1.305c-1.263-.172-2.513-.247-3.734.187-1.233.436-2.126 1.32-2.418 2.602-.357 1.51.629 2.996 1.513 4.113 1.545 1.954 3.573 3.43 5.634 4.818 2.117 1.44 4.529 2.455 6.985 3.172 1.066.323 2.153.555 3.245.735a57.676 57.676 0 0 0-7.577 1.971 24.37 24.37 0 0 0-4.764 2.182c-1.326.797-2.532 1.69-3.425 2.975-.807 1.18-1.39 3.22-.158 4.296 1.218 1.072 2.847 1.505 4.422 1.692 2.287.266 4.678-.018 6.953-.325a58.466 58.466 0 0 0 4.675-.851 56.827 56.827 0 0 0-2.954 3.057c-2.31 2.555-4.371 5.819-4.365 9.37.009 1.626.726 3.128 2.328 3.674 1.403.471 2.97.075 4.288-.463 2.248-.924 4.234-2.643 5.98-4.299 1.87-1.79 3.46-3.812 5.079-5.818a33.794 33.794 0 0 0 2.537-3.66c-.55 3.437-.774 6.894-.608 10.365.096 1.829.423 3.609.953 5.351.373 1.224.804 2.508 1.504 3.586.732 1.124 1.876 1.84 3.255 1.549 1.447-.31 2.35-1.614 2.966-2.861.875-1.795 1.277-3.884 1.548-5.851.351-2.464.414-5.014.319-7.5a53.053 53.053 0 0 0-.07-1.377c1.097 2.31 2.3 4.555 3.741 6.682.494.725.986 1.485 1.602 2.117.718.726 1.423 1.446 2.174 2.134 1.16 1.081 2.578 2.228 4.216 2.39 1.444.144 2.82-.611 3.326-1.997.578-1.568.03-3.352-.455-4.866-1.022-3.162-2.585-6.166-4.372-9.003a42.16 42.16 0 0 0 3.234 2.037c1.587.9 3.23 1.676 4.922 2.336 1.483.568 3.001 1.13 4.568 1.318 1.587.188 3.376-.234 4.344-1.593.807-1.152.605-2.541.101-3.77-.935-2.269-2.787-4.256-4.57-5.894-2.07-1.899-4.428-3.421-6.822-4.881a47.854 47.854 0 0 0-1.936-1.135 67.761 67.761 0 0 0 6.295-1.358c3.237-.86 6.584-1.908 9.552-3.473 1.486-.785 2.963-1.776 3.919-3.172.962-1.407.842-3.316-.55-4.375" mask="url(#b)"/>
        </g>
        <path fill="#FADCEB" d="M50.352 4a.373.373 0 0 1-.157-.026c-.176-.077-.247-.25-.153-.388l.285-.432c.091-.139.305-.193.48-.124.174.073.242.25.156.386l-.288.435a.379.379 0 0 1-.323.149M48.926 7.084a.454.454 0 0 1-.188-.049.414.414 0 0 1-.176-.564l.652-1.247a.414.414 0 0 1 .566-.174c.197.103.28.357.173.564l-.644 1.245a.457.457 0 0 1-.383.225m-1.466 2.8a.43.43 0 0 1-.372-.62l.658-1.239a.419.419 0 0 1 .742.388l-.65 1.241a.45.45 0 0 1-.378.23m-1.462 2.797a.5.5 0 0 1-.197-.045.434.434 0 0 1-.175-.567l.655-1.243a.417.417 0 1 1 .736.388l-.644 1.242a.433.433 0 0 1-.375.225m-1.465 2.802a.471.471 0 0 1-.196-.047.425.425 0 0 1-.174-.566l.644-1.247a.43.43 0 0 1 .575-.174c.2.108.277.358.175.564l-.649 1.244a.428.428 0 0 1-.375.226m-1.471 2.805a.422.422 0 0 1-.188-.055.415.415 0 0 1-.181-.563l.66-1.242a.402.402 0 0 1 .557-.177.416.416 0 0 1 .176.567l-.65 1.241a.447.447 0 0 1-.374.229m-1.471 2.797a.427.427 0 0 1-.366-.617l.658-1.242a.407.407 0 0 1 .562-.177c.206.106.286.36.17.571l-.65 1.238a.41.41 0 0 1-.374.227m-1.46 2.8a.345.345 0 0 1-.193-.048.41.41 0 0 1-.176-.563l.65-1.249a.423.423 0 0 1 .568-.178c.206.109.28.357.173.565l-.646 1.246a.425.425 0 0 1-.375.226m-1.472 2.804a.383.383 0 0 1-.188-.05.422.422 0 0 1-.181-.567l.655-1.241a.427.427 0 0 1 .572-.182c.19.107.277.36.17.565l-.655 1.243a.422.422 0 0 1-.373.232m-1.465 2.798a.42.42 0 0 1-.19-.048.426.426 0 0 1-.18-.566l.65-1.245a.418.418 0 0 1 .566-.178.407.407 0 0 1 .182.56l-.656 1.251a.43.43 0 0 1-.372.226m-1.468 2.801a.407.407 0 0 1-.188-.052.412.412 0 0 1-.184-.562l.655-1.248a.424.424 0 0 1 .572-.173c.199.108.28.358.17.564l-.65 1.242a.434.434 0 0 1-.375.23m-.2 3.107a.413.413 0 0 1-.416-.418l.003-1.4a.42.42 0 0 1 .842.004l-.006 1.397c0 .235-.19.42-.423.417m-.011 3.157a.414.414 0 0 1-.417-.414l.002-1.406a.422.422 0 0 1 .42-.411c.233 0 .43.185.423.414l-.005 1.407a.418.418 0 0 1-.423.41m-.015 3.165a.422.422 0 0 1-.414-.423l.006-1.398c0-.234.19-.424.416-.424.239 0 .423.193.423.427v1.4a.428.428 0 0 1-.431.418m-.01 3.16a.42.42 0 0 1-.416-.421l.006-1.4c0-.235.193-.42.416-.42a.428.428 0 0 1 .426.422l-.008 1.4c0 .23-.191.419-.423.419m-.012 3.16a.42.42 0 0 1-.414-.416l.006-1.41c0-.23.187-.417.42-.414a.41.41 0 0 1 .414.417v1.411a.42.42 0 0 1-.426.412m-.012 3.163a.418.418 0 0 1-.414-.42l.003-1.41a.415.415 0 0 1 .417-.414c.238 0 .426.184.429.417l-.01 1.41a.418.418 0 0 1-.425.417m-.012 3.162a.426.426 0 0 1-.417-.423l.006-1.409a.419.419 0 1 1 .84.005v1.406a.43.43 0 0 1-.429.42m-.01 3.157a.417.417 0 0 1-.416-.415l.006-1.41a.42.42 0 0 1 .417-.418.417.417 0 0 1 .42.419l-.003 1.412a.42.42 0 0 1-.423.412m-.012 3.158a.414.414 0 0 1-.414-.418l.006-1.405a.42.42 0 0 1 .417-.419.428.428 0 0 1 .423.422l-.009 1.402a.416.416 0 0 1-.423.418m-.009 3.162a.416.416 0 0 1-.417-.425l.003-1.4a.416.416 0 0 1 .42-.414.414.414 0 0 1 .42.42l-.003 1.403a.42.42 0 0 1-.423.416M35.408 67a.418.418 0 0 1-.408-.42l.003-1.404a.413.413 0 0 1 .417-.415c.23-.001.42.184.42.418l-.006 1.403a.428.428 0 0 1-.426.418"/>
        <path fill="#FADCEB" d="M35.495 69c-.275-.002-.495-.243-.495-.532l.003-.932c-.003-.297.227-.536.495-.536.276 0 .499.247.502.54l-.003.932c0 .289-.23.526-.502.528M14.326 60a.353.353 0 0 1-.205-.063.276.276 0 0 1-.046-.418l.339-.404a.344.344 0 0 1 .46-.049.281.281 0 0 1 .058.419l-.35.405a.336.336 0 0 1-.256.11M32.686 36.998a.412.412 0 0 1-.25-.087.42.42 0 0 1-.07-.59l.91-1.162a.4.4 0 0 1 .57-.07.429.429 0 0 1 .07.587l-.902 1.166a.426.426 0 0 1-.328.156m-2.03 2.626a.411.411 0 0 1-.32-.675l.902-1.161a.39.39 0 0 1 .57-.072c.18.137.21.402.07.584l-.907 1.167a.395.395 0 0 1-.314.157m-2.038 2.626a.387.387 0 0 1-.247-.093.406.406 0 0 1-.07-.584l.902-1.167c.139-.182.4-.212.572-.065a.425.425 0 0 1 .073.583l-.907 1.166a.43.43 0 0 1-.323.16m-2.037 2.62a.42.42 0 0 1-.32-.675l.907-1.165c.14-.18.395-.21.572-.072.178.152.212.41.067.588l-.9 1.168a.438.438 0 0 1-.326.157m-2.035 2.622a.413.413 0 0 1-.256-.088.42.42 0 0 1-.064-.584l.907-1.167a.402.402 0 0 1 .57-.066c.18.14.212.398.07.583l-.904 1.164a.377.377 0 0 1-.323.158m-2.032 2.624a.412.412 0 0 1-.323-.671l.908-1.17c.139-.18.389-.206.57-.067.176.144.209.406.069.588l-.901 1.163a.384.384 0 0 1-.323.157m-2.04 2.63a.427.427 0 0 1-.25-.09.43.43 0 0 1-.07-.59l.91-1.16a.4.4 0 0 1 .572-.075.426.426 0 0 1 .064.583l-.906 1.172a.401.401 0 0 1-.32.16m-2.03 2.618a.4.4 0 0 1-.252-.081.417.417 0 0 1-.07-.587l.901-1.171c.14-.18.401-.21.576-.068a.412.412 0 0 1 .07.584l-.901 1.169a.411.411 0 0 1-.323.154M16.403 58a.44.44 0 0 1-.247-.093.43.43 0 0 1-.07-.59l.907-1.165a.412.412 0 0 1 .575-.072c.172.143.21.412.064.589l-.907 1.168a.41.41 0 0 1-.322.163M35.487 34c-.177 0-.336-.053-.43-.147l-.076-.057-.07.053c-.173.129-.492.148-.716.05-.22-.1-.26-.281-.087-.403l.547-.39a.707.707 0 0 1 .43-.105.637.637 0 0 1 .413.14l.431.424c.144.142.061.315-.185.394a.786.786 0 0 1-.257.041M37.17 37.103a.425.425 0 0 1-.368-.207l-.748-1.274a.418.418 0 0 1 .156-.566.428.428 0 0 1 .577.15l.74 1.27a.4.4 0 0 1-.147.568.379.379 0 0 1-.21.06m1.67 2.858a.416.416 0 0 1-.365-.209l-.74-1.267a.414.414 0 0 1 .144-.57.434.434 0 0 1 .587.15l.742 1.274a.414.414 0 0 1-.368.622m1.673 2.863a.422.422 0 0 1-.36-.201l-.742-1.278a.41.41 0 0 1 .153-.565c.2-.12.458-.05.575.15l.742 1.269a.415.415 0 0 1-.147.571.413.413 0 0 1-.221.054m1.681 2.864a.428.428 0 0 1-.368-.207l-.736-1.271a.407.407 0 0 1 .153-.57.428.428 0 0 1 .571.149l.745 1.276a.414.414 0 0 1-.365.623m1.673 2.864a.44.44 0 0 1-.362-.205l-.74-1.278a.403.403 0 0 1 .153-.566.415.415 0 0 1 .569.151l.745 1.269c.123.2.045.453-.153.574a.478.478 0 0 1-.212.055m1.679 2.861a.431.431 0 0 1-.365-.205l-.743-1.275a.42.42 0 0 1 .153-.575.447.447 0 0 1 .583.159l.737 1.276a.409.409 0 0 1-.153.564.43.43 0 0 1-.212.056m1.672 2.864a.412.412 0 0 1-.359-.21l-.742-1.272a.413.413 0 0 1 .153-.572.424.424 0 0 1 .575.153l.741 1.277a.419.419 0 0 1-.15.569.448.448 0 0 1-.218.055m1.673 2.861a.43.43 0 0 1-.353-.205l-.745-1.278a.403.403 0 0 1 .15-.566c.2-.115.463-.05.574.153l.757 1.276c.108.19.039.447-.167.564a.434.434 0 0 1-.216.056M50.573 60a.417.417 0 0 1-.362-.205l-.743-1.272a.41.41 0 0 1 .16-.573.435.435 0 0 1 .574.151l.736 1.28a.398.398 0 0 1-.153.565.403.403 0 0 1-.212.054M51.65 62c-.115-.002-.24-.054-.297-.145l-.307-.42c-.095-.14-.04-.316.13-.397.167-.077.379-.034.48.105l.295.424c.095.138.052.314-.127.393a.372.372 0 0 1-.175.04M2.55 45c-.227 0-.44-.105-.521-.265-.095-.203.05-.423.345-.499l.892-.212c.286-.074.6.029.703.236.098.203-.043.423-.338.497l-.896.218c-.054.01-.13.024-.184.025"/>
        <path fill="#FADCEB" d="M32.258 34.336a.411.411 0 0 1-.39-.285.438.438 0 0 1 .249-.552l1.33-.475a.418.418 0 0 1 .531.266.432.432 0 0 1-.257.542l-1.333.48a.25.25 0 0 1-.13.024m-2.984 1.077a.405.405 0 0 1-.387-.289.427.427 0 0 1 .249-.546l1.33-.478a.41.41 0 0 1 .528.263.434.434 0 0 1-.248.543l-1.336.483a.46.46 0 0 1-.136.024m-2.983 1.072a.408.408 0 0 1-.39-.288.43.43 0 0 1 .254-.543l1.332-.48a.415.415 0 0 1 .529.264.446.446 0 0 1-.254.548l-1.332.475a.408.408 0 0 1-.14.024m-2.983 1.07a.427.427 0 0 1-.393-.288.438.438 0 0 1 .26-.542l1.32-.471a.412.412 0 0 1 .535.261.437.437 0 0 1-.25.54l-1.33.484a.342.342 0 0 1-.142.016m-2.984 1.076a.416.416 0 0 1-.387-.282.435.435 0 0 1 .251-.554l1.327-.473a.41.41 0 0 1 .528.263.429.429 0 0 1-.248.546l-1.332.479a.484.484 0 0 1-.14.02m-2.98 1.077a.422.422 0 0 1-.39-.291.43.43 0 0 1 .254-.545l1.333-.481a.418.418 0 0 1 .522.274.438.438 0 0 1-.256.545l-1.324.47a.31.31 0 0 1-.139.028m-2.984 1.076a.416.416 0 0 1-.39-.29.44.44 0 0 1 .257-.549l1.327-.477a.42.42 0 0 1 .529.267.434.434 0 0 1-.254.546l-1.324.477a.433.433 0 0 1-.145.026m-2.978 1.074a.434.434 0 0 1-.396-.286.436.436 0 0 1 .26-.55l1.327-.474a.421.421 0 0 1 .532.257.443.443 0 0 1-.255.548l-1.329.48a.48.48 0 0 1-.139.025m-2.992 1.071a.412.412 0 0 1-.382-.286.425.425 0 0 1 .251-.543l1.33-.481a.418.418 0 0 1 .532.262.449.449 0 0 1-.26.55l-1.324.473a.322.322 0 0 1-.147.025M5.412 44a.403.403 0 0 1-.387-.282.43.43 0 0 1 .249-.55l1.33-.477a.407.407 0 0 1 .525.263.428.428 0 0 1-.248.547l-1.33.481c-.05.014-.1.02-.139.018M36.605 34a.482.482 0 0 1-.223-.056l-.398-.23-.453.14c-.212.061-.432-.033-.51-.208-.068-.18.039-.372.245-.433l.64-.192a.446.446 0 0 1 .352.035l.566.325c.181.105.232.315.108.468-.068.097-.2.15-.327.151M39.544 35.59a.5.5 0 0 1-.225-.065l-1.137-.762a.415.415 0 0 1-.11-.577.414.414 0 0 1 .57-.119l1.14.765c.187.126.23.38.11.573a.401.401 0 0 1-.348.184m2.563 1.714a.4.4 0 0 1-.226-.068l-1.142-.763a.414.414 0 0 1-.105-.57.412.412 0 0 1 .57-.123l1.137.765c.19.123.234.384.115.58a.447.447 0 0 1-.349.179m2.562 1.712a.385.385 0 0 1-.222-.066l-1.142-.765a.408.408 0 0 1-.118-.57.412.412 0 0 1 .574-.12l1.137.766a.41.41 0 0 1-.229.755m2.554 1.714a.403.403 0 0 1-.22-.071l-1.139-.757a.428.428 0 0 1-.12-.575.406.406 0 0 1 .577-.115l1.14.762c.193.127.24.38.117.566a.436.436 0 0 1-.355.19m2.562 1.712a.388.388 0 0 1-.222-.072l-1.136-.76a.413.413 0 1 1 .456-.689l1.137.763a.409.409 0 0 1 .114.57.398.398 0 0 1-.349.188m2.563 1.71a.452.452 0 0 1-.222-.064l-1.148-.767a.412.412 0 0 1-.106-.572.407.407 0 0 1 .568-.118l1.137.762c.187.127.24.389.114.574a.4.4 0 0 1-.343.186m2.56 1.71a.42.42 0 0 1-.231-.066l-1.134-.76a.422.422 0 0 1-.114-.579.424.424 0 0 1 .577-.113l1.13.759c.185.133.25.383.118.575a.407.407 0 0 1-.346.184m2.56 1.718a.412.412 0 0 1-.226-.07l-1.136-.76a.416.416 0 0 1-.12-.574.405.405 0 0 1 .57-.117l1.143.755a.42.42 0 1 1-.231.767m2.553 1.709a.364.364 0 0 1-.216-.07l-1.145-.757a.43.43 0 0 1-.115-.577.413.413 0 0 1 .572-.115l1.144.758a.428.428 0 0 1 .109.575.417.417 0 0 1-.349.186M62.59 51a.372.372 0 0 1-.232-.07l-1.13-.761a.406.406 0 0 1-.12-.572.402.402 0 0 1 .571-.11l1.13.757a.41.41 0 0 1-.22.756M64.705 52a.242.242 0 0 1-.157-.06l-.419-.322c-.136-.1-.167-.31-.08-.472.085-.15.271-.193.402-.09l.416.323c.136.1.174.311.085.468a.282.282 0 0 1-.247.153M4.718 24a.238.238 0 0 1-.116-.026l-.434-.26c-.141-.09-.21-.303-.141-.495.054-.187.221-.27.37-.186l.435.26c.143.081.207.293.143.49-.044.135-.148.22-.257.217"/>
        <path fill="#FADCEB" d="M7.74 25.42a.593.593 0 0 1-.17-.037l-1.323-.587a.403.403 0 0 1-.207-.545.408.408 0 0 1 .55-.215l1.318.586a.418.418 0 0 1-.169.798m2.976 1.313a.394.394 0 0 1-.166-.034l-1.323-.587a.42.42 0 0 1-.22-.543.42.42 0 0 1 .553-.218l1.324.587c.204.093.301.34.21.55a.399.399 0 0 1-.378.245m2.972 1.319a.371.371 0 0 1-.166-.036l-1.323-.587a.42.42 0 0 1-.21-.548c.092-.207.34-.3.541-.216l1.324.59c.212.088.304.34.215.55a.417.417 0 0 1-.381.247m2.978 1.318a.365.365 0 0 1-.168-.038l-1.324-.584a.424.424 0 0 1-.216-.549.421.421 0 0 1 .55-.212l1.324.586c.21.095.307.339.215.553a.422.422 0 0 1-.38.244m51.504.495a.422.422 0 0 1-.088-.835l1.418-.287a.41.41 0 0 1 .49.321.414.414 0 0 1-.313.493l-1.424.294a.45.45 0 0 1-.083.014m-3.182.657a.422.422 0 0 1-.41-.334.412.412 0 0 1 .318-.487l1.419-.298c.233-.05.449.098.49.324a.418.418 0 0 1-.32.496l-1.411.289a.298.298 0 0 1-.086.01m-45.36.167a.485.485 0 0 1-.15-.033l-1.332-.59a.404.404 0 0 1-.207-.548.41.41 0 0 1 .552-.214l1.318.58c.207.1.296.345.207.563a.429.429 0 0 1-.387.242m42.177.496a.416.416 0 0 1-.092-.825l1.415-.292a.41.41 0 0 1 .494.327.418.418 0 0 1-.322.488l-1.418.298s-.057.009-.077.004m-3.188.663a.41.41 0 0 1-.408-.331.418.418 0 0 1 .316-.493l1.421-.295a.41.41 0 0 1 .488.322.408.408 0 0 1-.32.49l-1.412.298c-.032.01-.059.008-.085.01m-36.011.156a.727.727 0 0 1-.169-.033l-1.32-.588a.414.414 0 0 1-.21-.549.408.408 0 0 1 .55-.208l1.32.58c.216.095.31.341.21.55a.404.404 0 0 1-.381.248m32.829.505a.412.412 0 0 1-.411-.334.421.421 0 0 1 .319-.492l1.424-.29a.413.413 0 0 1 .488.315.412.412 0 0 1-.32.497l-1.424.295c-.026.003-.05.01-.076.01m-3.192.666a.433.433 0 0 1-.407-.33.434.434 0 0 1 .328-.501l1.41-.288a.411.411 0 0 1 .495.324.42.42 0 0 1-.325.489l-1.415.296c-.035 0-.062.011-.086.01m-26.662.145a.479.479 0 0 1-.165-.038l-1.324-.584a.41.41 0 0 1-.207-.547c.089-.212.334-.308.55-.212l1.32.583c.208.094.299.34.21.546a.42.42 0 0 1-.384.252m23.48.514a.423.423 0 0 1-.41-.33.42.42 0 0 1 .33-.493l1.407-.3a.42.42 0 0 1 .493.33.412.412 0 0 1-.318.493l-1.416.288a.27.27 0 0 1-.085.012m-3.186.667a.416.416 0 0 1-.404-.331.412.412 0 0 1 .319-.493l1.418-.294a.414.414 0 0 1 .49.32.408.408 0 0 1-.322.49l-1.409.3a.693.693 0 0 1-.092.008m-17.313.138a.393.393 0 0 1-.175-.042l-1.318-.582c-.212-.09-.3-.336-.212-.547a.417.417 0 0 1 .546-.215l1.318.589c.222.09.307.335.216.554a.421.421 0 0 1-.375.243m14.122.526a.412.412 0 0 1-.398-.337.403.403 0 0 1 .319-.492l1.418-.292a.41.41 0 0 1 .493.32.424.424 0 0 1-.33.494l-1.41.296a.398.398 0 0 1-.092.01m-3.173.663a.43.43 0 0 1-.417-.331c-.032-.226.098-.45.332-.495l1.412-.295a.413.413 0 0 1 .49.326.412.412 0 0 1-.325.489l-1.412.297c-.03.009-.056.007-.08.009m-7.98.126a.387.387 0 0 1-.166-.037l-1.323-.578c-.207-.101-.305-.346-.207-.555a.415.415 0 0 1 .55-.208l1.32.584c.21.091.304.338.207.55a.412.412 0 0 1-.381.244m4.79.535a.419.419 0 0 1-.403-.33.407.407 0 0 1 .316-.492l1.416-.291a.418.418 0 0 1 .5.318.424.424 0 0 1-.332.49l-1.418.293c-.024.01-.053.009-.08.012m-2.435.51a.486.486 0 0 1-.168-.037l-.7-.307a.425.425 0 0 1-.216-.553c.104-.212.337-.31.547-.209l.585.251.532-.106a.403.403 0 0 1 .493.32.406.406 0 0 1-.325.486l-.665.143c-.03.005-.056.01-.083.012M71.534 29c-.26.002-.476-.14-.522-.338-.062-.23.124-.456.418-.507l.913-.145c.29-.05.572.1.645.327.063.233-.134.454-.42.51l-.914.146a.81.81 0 0 1-.12.007M14.662 9a.375.375 0 0 1-.271-.118c-.362-.434-.393-.479-.39-.59 0-.162.156-.29.345-.292a.34.34 0 0 1 .307.186c.014.029.083.112.283.35.11.122.074.31-.074.403a.348.348 0 0 1-.2.061M16.312 11.989a.41.41 0 0 1-.33-.169c-.333-.42-.634-.796-.895-1.15a.417.417 0 0 1 .078-.586.436.436 0 0 1 .595.077c.263.349.558.733.888 1.15a.435.435 0 0 1-.072.59.48.48 0 0 1-.264.088m2.015 2.565a.414.414 0 0 1-.333-.16c-.309-.396-.609-.78-.902-1.14a.425.425 0 0 1 .08-.593.428.428 0 0 1 .591.077c.282.364.588.74.894 1.138a.416.416 0 0 1-.069.585.402.402 0 0 1-.26.093m2.021 2.563a.428.428 0 0 1-.339-.157c-.3-.39-.6-.77-.896-1.14a.427.427 0 0 1 .075-.592.425.425 0 0 1 .59.077c.297.37.591.751.9 1.138a.403.403 0 0 1-.072.584.393.393 0 0 1-.258.09m2.025 2.559a.425.425 0 0 1-.333-.16l-.9-1.138a.418.418 0 0 1 .072-.59.433.433 0 0 1 .594.074l.897 1.134a.413.413 0 0 1-.072.593.411.411 0 0 1-.258.087m2.02 2.558a.446.446 0 0 1-.325-.16l-.897-1.137a.422.422 0 0 1 .063-.589c.186-.14.46-.113.597.073l.9 1.131a.424.424 0 0 1-.066.595.452.452 0 0 1-.273.087m2.043 2.552a.457.457 0 0 1-.339-.155l-.897-1.135a.423.423 0 0 1 .663-.523l.906 1.135a.417.417 0 0 1-.075.587.373.373 0 0 1-.258.09m2.03 2.556a.42.42 0 0 1-.329-.158l-.903-1.14a.408.408 0 0 1 .072-.585.427.427 0 0 1 .588.065l.906 1.144a.417.417 0 0 1-.333.674m2.03 2.556a.416.416 0 0 1-.323-.156l-.906-1.14a.416.416 0 0 1 .069-.59.417.417 0 0 1 .588.07l.912 1.132a.433.433 0 0 1-.063.588.46.46 0 0 1-.276.096m2.037 2.55a.406.406 0 0 1-.324-.157l-.912-1.13a.433.433 0 0 1 .072-.597.416.416 0 0 1 .585.074l.915 1.134c.147.18.11.438-.072.593a.429.429 0 0 1-.264.084M34.578 35a.402.402 0 0 1-.33-.159l-.91-1.137a.406.406 0 0 1 .073-.586.414.414 0 0 1 .588.069l.912 1.127a.429.429 0 0 1-.07.595.444.444 0 0 1-.263.09"/>
        <path fill="#FADCEB" d="M35.942 36a.13.13 0 0 1-.046-.004.552.552 0 0 1-.312-.107l-.484-.403c-.156-.13-.127-.317.071-.42.195-.103.485-.084.637.05l.199.155.243-.13c.189-.107.475-.09.634.036.175.128.146.313-.049.42l-.598.332a.594.594 0 0 1-.295.07M59.49 16.723a.42.42 0 0 1-.315-.141.413.413 0 0 1 .051-.585l1.088-.904a.423.423 0 0 1 .586.054c.149.17.13.427-.05.573l-1.088.906a.409.409 0 0 1-.271.097m-2.453 2.026a.441.441 0 0 1-.318-.142.41.41 0 0 1 .05-.58l1.088-.9a.422.422 0 0 1 .59.053.39.39 0 0 1-.052.571l-1.085.905a.429.429 0 0 1-.273.093m-2.453 2.033a.445.445 0 0 1-.319-.146.411.411 0 0 1 .05-.579l1.095-.898a.426.426 0 0 1 .586.046.41.41 0 0 1-.048.58l-1.088.895a.438.438 0 0 1-.276.102m-2.45 2.03a.447.447 0 0 1-.322-.147.405.405 0 0 1 .05-.572l1.095-.905a.43.43 0 0 1 .589.049.412.412 0 0 1-.054.578l-1.091.902a.433.433 0 0 1-.268.095m-2.453 2.03a.432.432 0 0 1-.321-.145.404.404 0 0 1 .056-.575l1.086-.904a.426.426 0 0 1 .588.049.4.4 0 0 1-.05.579l-1.088.896a.398.398 0 0 1-.271.1m-2.453 2.034a.443.443 0 0 1-.318-.149.403.403 0 0 1 .044-.574l1.098-.9a.426.426 0 0 1 .591.043.413.413 0 0 1-.05.581l-1.094.897a.41.41 0 0 1-.27.102m-2.454 2.032a.44.44 0 0 1-.318-.15.402.402 0 0 1 .05-.572l1.091-.904a.427.427 0 0 1 .586.047.41.41 0 0 1-.044.575l-1.098.902a.414.414 0 0 1-.267.102m-2.456 2.027a.407.407 0 0 1-.315-.141.4.4 0 0 1 .053-.576l1.086-.908c.175-.14.442-.128.585.047a.388.388 0 0 1-.05.577l-1.089.905a.394.394 0 0 1-.27.096m-2.454 2.03a.385.385 0 0 1-.312-.142c-.142-.176-.13-.435.048-.578l1.094-.905a.412.412 0 0 1 .58.05c.16.17.13.427-.044.569l-1.089.91a.388.388 0 0 1-.277.095M37.412 35a.431.431 0 0 1-.315-.15.41.41 0 0 1 .045-.575l1.1-.898a.409.409 0 0 1 .586.042.393.393 0 0 1-.05.571l-1.086.908a.417.417 0 0 1-.28.102M62.305 14a.308.308 0 0 1-.232-.111.34.34 0 0 1 .03-.455l.402-.356c.122-.118.312-.1.423.038a.339.339 0 0 1-.034.454l-.398.352a.288.288 0 0 1-.191.078M32.532 3.999c-.23 0-.439-.208-.462-.486l-.069-.921c-.017-.3.165-.567.426-.59.254-.029.479.198.502.492l.07.923c.022.297-.166.555-.424.58a.1.1 0 0 1-.043.002M33.513 7.195a.393.393 0 0 1-.391-.369l-.121-1.378c-.014-.223.14-.426.357-.447a.405.405 0 0 1 .437.371l.112 1.378c.017.23-.14.43-.354.447l-.04-.002m.26 3.105a.395.395 0 0 1-.395-.372l-.118-1.381a.41.41 0 0 1 .366-.445.409.409 0 0 1 .428.375l.117 1.374a.42.42 0 0 1-.36.45h-.039m.259 3.1c-.203 0-.372-.165-.394-.375l-.113-1.382c-.017-.225.141-.428.36-.445a.402.402 0 0 1 .429.377l.123 1.378a.422.422 0 0 1-.36.446c-.017.003-.028 0-.045 0m.26 3.1c-.2 0-.367-.163-.39-.373l-.117-1.38a.407.407 0 0 1 .36-.443.397.397 0 0 1 .433.37l.118 1.378c.015.224-.146.428-.363.444-.014.003-.025.003-.042.003m.27 3.103a.398.398 0 0 1-.394-.375l-.118-1.382a.406.406 0 0 1 .36-.443c.22-.024.411.148.431.374l.118 1.373c.011.231-.143.428-.366.447a.046.046 0 0 1-.031.006m.26 3.1a.4.4 0 0 1-.395-.38l-.118-1.37a.418.418 0 0 1 .36-.452.402.402 0 0 1 .43.375l.119 1.378a.4.4 0 0 1-.366.442c-.006.001-.017.006-.03.008m.258 3.095a.396.396 0 0 1-.394-.375l-.118-1.38a.413.413 0 0 1 .363-.443c.22-.02.408.148.428.374l.118 1.38a.397.397 0 0 1-.363.437c-.009.01-.014.006-.034.007m.26 3.1a.402.402 0 0 1-.395-.373l-.11-1.378a.404.404 0 0 1 .358-.448.407.407 0 0 1 .428.372l.115 1.38a.413.413 0 0 1-.358.448l-.039-.002M35.593 32a.402.402 0 0 1-.388-.37l-.116-1.384a.4.4 0 0 1 .364-.441c.22-.026.408.146.43.369l.115 1.38a.41.41 0 0 1-.362.443c-.014 0-.026.003-.043.003"/>
        <path fill="#FADCEB" d="M35.525 34c-.24-.002-.432-.214-.459-.495l-.063-.917c-.03-.297.163-.561.415-.586.263-.025.486.199.513.491l.067.92c.026.295-.167.555-.43.585-.01-.002-.023.002-.043.002"/>
        <path fill="#F0869B" d="M49 34.048c-.027 7.73-6.314 13.98-14.05 13.952-7.728-.027-13.971-6.323-13.95-14.052.03-7.724 6.323-13.973 14.052-13.948 7.736.03 13.98 6.325 13.948 14.048"/>
        <path fill="#FFDEA0" d="M49 33.547C48.97 41.003 42.9 47.024 35.44 47c-7.448-.029-13.47-6.092-13.44-13.549.024-7.459 6.088-13.476 13.542-13.451 7.454.03 13.482 6.092 13.458 13.547"/>
    </g>
</svg>
