<svg xmlns="http://www.w3.org/2000/svg" xmlns:xlink="http://www.w3.org/1999/xlink" width="596" height="322" viewBox="0 0 596 322">
    <defs>
        <linearGradient id="c" x1="79.982%" x2="50%" y1="41.284%" y2="59.737%">
            <stop offset="0%" stop-color="#DAFF04"/>
            <stop offset="100%" stop-color="#D4F316"/>
        </linearGradient>
        <path id="b" d="M536 42c-2.761 0-5 2.015-5 4.5s2.239 4.5 5 4.5v5c-2.761 0-5 2.015-5 4.5s2.239 4.5 5 4.5v5c-2.761 0-5 2.015-5 4.5s2.239 4.5 5 4.5v5c-2.761 0-5 2.015-5 4.5s2.239 4.5 5 4.5v5c-2.761 0-5 2.015-5 4.5s2.239 4.5 5 4.5v5c-2.761 0-5 2.015-5 4.5s2.239 4.5 5 4.5v5c-2.761 0-5 2.015-5 4.5s2.239 4.5 5 4.5v5c-2.761 0-5 2.015-5 4.5s2.239 4.5 5 4.5v5c-2.761 0-5 2.015-5 4.5s2.239 4.5 5 4.5v5c-2.761 0-5 2.015-5 4.5s2.239 4.5 5 4.5v5c-2.761 0-5 2.015-5 4.5s2.239 4.5 5 4.5v5c-2.761 0-5 2.015-5 4.5s2.239 4.5 5 4.5v5c-2.761 0-5 2.015-5 4.5s2.239 4.5 5 4.5v5c-2.761 0-5 2.015-5 4.5s2.239 4.5 5 4.5v13a6 6 0 0 1-6 6H14a6 6 0 0 1-6-6v-13c2.746 0 4.972-2.015 4.972-4.5S10.746 224 8 224v-5c2.746 0 4.972-2.015 4.972-4.5S10.746 210 8 210v-5c2.746 0 4.972-2.015 4.972-4.5S10.746 196 8 196v-5c2.746 0 4.972-2.015 4.972-4.5S10.746 182 8 182v-5c2.746 0 4.972-2.015 4.972-4.5S10.746 168 8 168v-5c2.746 0 4.972-2.015 4.972-4.5S10.746 154 8 154v-5c2.746 0 4.972-2.015 4.972-4.5S10.746 140 8 140v-5c2.746 0 4.972-2.015 4.972-4.5S10.746 126 8 126v-5c2.746 0 4.972-2.015 4.972-4.5S10.746 112 8 112v-5c2.746 0 4.972-2.015 4.972-4.5S10.746 98 8 98v-5c2.746 0 4.972-2.015 4.972-4.5S10.746 84 8 84v-5c2.746 0 4.972-2.015 4.972-4.5S10.746 70 8 70v-5c2.746 0 4.972-2.015 4.972-4.5S10.746 56 8 56v-5c2.746 0 4.972-2.015 4.972-4.5S10.746 42 8 42V25a6 6 0 0 1 6-6h516a6 6 0 0 1 6 6v17z"/>
        <filter id="a" width="115.9%" height="136.1%" x="-8%" y="-18%" filterUnits="objectBoundingBox">
            <feOffset in="SourceAlpha" result="shadowOffsetOuter1"/>
            <feGaussianBlur in="shadowOffsetOuter1" result="shadowBlurOuter1" stdDeviation="14"/>
            <feColorMatrix in="shadowBlurOuter1" values="0 0 0 0 0.184780111 0 0 0 0 0.276154891 0 0 0 0 0 0 0 0 1 0"/>
        </filter>
    </defs>
    <g fill="none" fill-rule="evenodd" transform="translate(26 25)">
        <g transform="rotate(-4 272 135.5)">
            <use fill="#000" filter="url(#a)" xlink:href="#b"/>
            <use fill="url(#c)" xlink:href="#b"/>
        </g>
        <rect width="496" height="208" x="22.968" y="31.071" fill="#FFF" rx="7" transform="rotate(-4 270.968 135.071)"/>
    </g>
</svg>
