<svg xmlns="http://www.w3.org/2000/svg" width="552" height="282" viewBox="0 0 552 282">
    <defs>
        <filter id="a" width="111.3%" height="123.3%" x="-5.7%" y="-11.7%" filterUnits="objectBoundingBox">
            <feOffset in="SourceAlpha" result="shadowOffsetOuter1"/>
            <feGaussianBlur in="shadowOffsetOuter1" result="shadowBlurOuter1" stdDeviation="7.5"/>
            <feColorMatrix in="shadowBlurOuter1" result="shadowMatrixOuter1" values="0 0 0 0 0 0 0 0 0 0 0 0 0 0 0 0 0 0 0.171465253 0"/>
            <feMerge>
                <feMergeNode in="shadowMatrixOuter1"/>
                <feMergeNode in="SourceGraphic"/>
            </feMerge>
        </filter>
    </defs>
    <g fill="none" fill-rule="evenodd" filter="url(#a)" transform="translate(15 15)">
        <path fill="#96BC00" d="M82.084 0c0 9.586 7.76 17.358 17.334 17.358v217.307c-9.574 0-17.334 7.771-17.334 17.357H13.45c-.07 0-.139-.115-.206-.341C5.703 250.058 0 242.662 0 233.79V18.209C0 9.335 5.705 1.938 13.248.326 13.313.11 13.38 0 13.447 0z"/>
        <path fill="#FFF" d="M522 95.475v-83.6C522 5.314 516.673 0 510.1 0H116.394c0 9.585-7.788 17.356-17.395 17.356v217.288c9.607 0 17.395 7.77 17.395 17.356H510.1c6.574 0 11.901-5.315 11.901-11.874v-83.6-61.051z"/>
    </g>
</svg>
