<svg xmlns="http://www.w3.org/2000/svg" width="43" height="43" viewBox="0 0 43 43">
    <g fill="none" fill-rule="evenodd">
        <path fill="#9EC700" fill-rule="nonzero" d="M21.5 0C9.626 0 0 9.626 0 21.5S9.626 43 21.5 43 43 33.374 43 21.5 33.374 0 21.5 0z"/>
        <path stroke="#101929" stroke-width="2.3" d="M21.167 30.925h1.853s.56-.063.846-.376c.263-.288.254-.829.254-.829s-.036-2.53 1.118-2.903c1.137-.367 2.598 2.446 4.147 3.527 1.17.819 2.06.64 2.06.64l4.14-.06s2.166-.135 1.139-1.868c-.084-.142-.598-1.282-3.078-3.625-2.596-2.453-2.249-2.056.878-6.298 1.905-2.583 2.666-4.16 2.428-4.836-.227-.643-1.627-.473-1.627-.473l-4.662.03s-.345-.048-.601.107c-.25.153-.412.51-.412.51s-.738 1.999-1.722 3.699c-2.075 3.587-2.905 3.777-3.244 3.554-.79-.52-.592-2.086-.592-3.199 0-3.476.518-4.926-1.01-5.3-.506-.125-.879-.208-2.175-.22-1.663-.018-3.07.004-3.868.402-.53.264-.939.853-.69.887.308.042 1.006.191 1.376.704.478.661.46 2.147.46 2.147s.275 4.092-.64 4.6c-.628.35-1.49-.363-3.34-3.617-.949-1.667-1.665-3.51-1.665-3.51s-.138-.344-.384-.528c-.299-.224-.716-.295-.716-.295l-4.43.03s-.665.019-.909.313c-.217.262-.017.803-.017.803S9.552 23.2 13.478 27.36c3.6 3.815 7.69 3.565 7.69 3.565z"/>
    </g>
</svg>
