<svg xmlns="http://www.w3.org/2000/svg" width="43" height="43" viewBox="0 0 43 43">
    <path fill="#9EC700" fill-rule="nonzero" d="M21.5 0C33.372 0 43 9.628 43 21.5S33.372 43 21.5 43 0 33.372 0 21.5 9.628 0 21.5 0zm.456 8.28c-7.093 0-12.866 5.771-12.869 12.864a12.835 12.835 0 0 0 1.718 6.43L8.98 34.242l6.822-1.789a12.863 12.863 0 0 0 6.15 1.566h.005l.307-.004c6.95-.164 12.558-5.87 12.56-12.86a12.785 12.785 0 0 0-3.765-9.1 12.787 12.787 0 0 0-9.102-3.773zm.048 2.72a9.934 9.934 0 0 1 7.07 2.932A9.935 9.935 0 0 1 32 21.004C31.998 26.516 27.512 31 22 31a9.988 9.988 0 0 1-5.094-1.393l-.365-.217-3.785.993 1.01-3.69-.237-.378A9.972 9.972 0 0 1 12 20.995C12.002 15.485 16.488 11 22.004 11zm-4.153 5h-.204c-.205 0-.539.075-.82.373-.282.298-1.077 1.02-1.077 2.487 0 1.468 1.102 2.886 1.256 3.085.154.199 2.168 3.21 5.253 4.502.734.307 1.307.49 1.754.628.737.227 1.407.195 1.937.118.59-.086 1.82-.722 2.076-1.418s.256-1.293.179-1.418c-.077-.124-.282-.199-.59-.348-.307-.15-1.819-.87-2.1-.97-.283-.1-.488-.15-.693.15-.205.298-.794.97-.973 1.168-.18.199-.36.224-.667.075-.307-.15-1.298-.464-2.473-1.48-.914-.79-1.532-1.767-1.71-2.065-.18-.299-.002-.445.134-.609.325-.391.666-.82.769-1.02.102-.199.051-.373-.026-.522-.077-.15-.692-1.617-.948-2.214-.25-.581-.503-.503-.692-.512-.18-.008-.384-.01-.59-.01z"/>
</svg>
