<svg xmlns="http://www.w3.org/2000/svg" width="41" height="41" viewBox="0 0 41 41">
    <g fill="none" fill-rule="evenodd">
        <circle cx="20.5" cy="21.5" r="16.5" fill="#FFF"/>
        <path fill="#4CAF50" fill-rule="nonzero" d="M21.004 10a9.934 9.934 0 0 1 7.07 2.932A9.935 9.935 0 0 1 31 20.004C30.998 25.516 26.512 30 21 30h-.004a9.984 9.984 0 0 1-5.09-1.393l-.365-.217-3.785.993 1.01-3.69-.237-.378A9.972 9.972 0 0 1 11 19.995C11.002 14.485 15.488 10 21.004 10zm5.882 14.293c.25-.702.25-1.303.175-1.429-.075-.125-.275-.2-.576-.35-.3-.151-1.778-.878-2.054-.978-.275-.1-.476-.15-.676.15-.2.3-.777.978-.952 1.178-.175.2-.35.226-.651.076-.3-.151-1.27-.468-2.418-1.492-.893-.797-1.497-1.781-1.672-2.082-.176-.3-.002-.448.132-.613.318-.395.65-.827.751-1.028.1-.2.05-.376-.025-.527-.075-.15-.676-1.629-.927-2.23-.244-.587-.492-.507-.676-.517-.175-.008-.376-.01-.576-.01-.2 0-.526.075-.802.376-.275.3-1.052 1.028-1.052 2.507 0 1.48 1.077 2.908 1.227 3.109.15.2 2.12 3.236 5.136 4.537.717.31 1.277.495 1.714.633.72.229 1.375.197 1.893.12.578-.087 1.779-.728 2.03-1.43zM20.5 0C31.82 0 41 9.18 41 20.5S31.82 41 20.5 41 0 31.82 0 20.5 9.18 0 20.5 0zm.434 32.436c6.762 0 12.267-5.503 12.27-12.266a12.19 12.19 0 0 0-3.59-8.678 12.192 12.192 0 0 0-8.68-3.596c-6.762 0-12.266 5.501-12.27 12.264 0 2.162.565 4.272 1.639 6.132l-1.741 6.356 6.504-1.705a12.265 12.265 0 0 0 5.863 1.493h.005z"/>
    </g>
</svg>
