<svg xmlns="http://www.w3.org/2000/svg" width="44" height="44" viewBox="0 0 44 44">
    <path fill="#9EC700" fill-rule="nonzero" d="M22 0c12.148 0 22 9.852 22 22s-9.852 22-22 22S0 34.148 0 22 9.852 0 22 0zm1.187 9.368h-2.374c-2.37.004-2.848.022-4.021.075-1.345.062-2.263.275-3.067.588a6.188 6.188 0 0 0-2.237 1.457 6.189 6.189 0 0 0-1.458 2.237c-.312.804-.526 1.722-.587 3.067-.053 1.173-.071 1.65-.075 4.021v2.374c.004 2.37.022 2.848.076 4.022.06 1.344.275 2.263.587 3.066a6.191 6.191 0 0 0 1.457 2.237 6.19 6.19 0 0 0 2.237 1.457c.804.313 1.722.526 3.067.588 1.173.053 1.651.071 4.022.075h2.373c2.37-.004 2.848-.022 4.022-.075 1.344-.062 2.263-.275 3.066-.588a6.46 6.46 0 0 0 3.694-3.694c.313-.804.527-1.722.588-3.067.053-1.173.071-1.65.075-4.021v-2.374c-.004-2.37-.022-2.848-.075-4.021-.061-1.345-.275-2.263-.588-3.067a6.19 6.19 0 0 0-1.456-2.237 6.193 6.193 0 0 0-2.238-1.458c-.804-.312-1.722-.525-3.067-.586-1.173-.054-1.65-.072-4.021-.076zm-2.346 2.633h2.318c2.217.003 2.655.02 3.77.07 1.19.054 1.835.253 2.265.42.53.196 1.009.507 1.403.913.405.393.716.872.912 1.402.167.43.366 1.076.42 2.265.059 1.286.071 1.672.071 4.93 0 3.256-.012 3.642-.071 4.928-.054 1.19-.253 1.835-.42 2.265a4.04 4.04 0 0 1-2.315 2.315c-.43.167-1.076.366-2.265.42-1.286.059-1.672.071-4.93.071-3.256 0-3.642-.012-4.928-.071-1.19-.054-1.835-.253-2.265-.42a3.777 3.777 0 0 1-1.403-.913 3.78 3.78 0 0 1-.912-1.402c-.167-.43-.366-1.076-.42-2.265-.05-1.115-.067-1.553-.07-3.77V20.84c.003-2.217.02-2.655.07-3.77.054-1.19.253-1.835.42-2.265.196-.53.508-1.009.913-1.402a3.774 3.774 0 0 1 1.402-.913c.43-.167 1.076-.366 2.265-.42 1.115-.05 1.553-.067 3.77-.07h2.318zm1.16 3.749A6.25 6.25 0 1 0 22 28.25a6.25 6.25 0 0 0 0-12.5zM22 18.5a3.5 3.5 0 1 1 0 7 3.5 3.5 0 0 1 0-7zm6.25-4a1.25 1.25 0 1 0 0 2.5 1.25 1.25 0 0 0 0-2.5z"/>
</svg>
