<svg xmlns="http://www.w3.org/2000/svg" width="41" height="41" viewBox="0 0 41 41">
    <defs>
        <linearGradient id="a" x1="9.154%" x2="90.846%" y1="90.847%" y2="9.153%">
            <stop offset="0%" stop-color="#FFC107"/>
            <stop offset="50.7%" stop-color="#F44336"/>
            <stop offset="99%" stop-color="#9C27B0"/>
        </linearGradient>
    </defs>
    <g fill="none" fill-rule="evenodd">
        <circle cx="20.5" cy="20.5" r="15.5" fill="#FFF"/>
        <path fill="url(#a)" fill-rule="nonzero" d="M24 20.5a3.5 3.5 0 1 1-7 0 3.5 3.5 0 0 1 7 0zm5.533-6.834c.16.408.348 1.022.4 2.152.055 1.221.067 1.588.067 4.682 0 3.094-.012 3.46-.067 4.683-.052 1.13-.24 1.743-.4 2.151a3.837 3.837 0 0 1-2.199 2.2c-.408.158-1.022.347-2.152.399-1.221.055-1.587.067-4.682.067-3.095 0-3.46-.012-4.682-.067-1.13-.052-1.744-.24-2.152-.4a3.588 3.588 0 0 1-1.333-.866 3.592 3.592 0 0 1-.866-1.333c-.16-.408-.348-1.021-.4-2.151C11.013 23.96 11 23.594 11 20.5s.012-3.46.068-4.682c.051-1.13.24-1.744.399-2.152.185-.504.482-.959.867-1.333a3.585 3.585 0 0 1 1.332-.866c.408-.16 1.022-.348 2.152-.4C17.039 11.012 17.406 11 20.5 11c3.094 0 3.46.012 4.683.068 1.13.051 1.743.24 2.151.399.504.185.959.481 1.333.866.385.374.68.83.866 1.333zM20.5 26.45a5.95 5.95 0 1 0 0-11.9 5.95 5.95 0 0 0 0 11.9zm6.186-10.745a1.39 1.39 0 1 0 0-2.782 1.39 1.39 0 0 0 0 2.782zM20.5 0C31.82 0 41 9.18 41 20.5S31.82 41 20.5 41 0 31.82 0 20.5 9.18 0 20.5 0zm11.7 25.353c.058-1.255.071-1.656.071-4.853s-.013-3.598-.07-4.853c-.057-1.253-.256-2.109-.548-2.858a5.768 5.768 0 0 0-1.357-2.084 5.77 5.77 0 0 0-2.085-1.359c-.75-.29-1.605-.49-2.858-.546-1.255-.058-1.656-.071-4.853-.071s-3.598.013-4.853.07c-1.253.058-2.109.257-2.858.548a5.766 5.766 0 0 0-2.084 1.358 5.767 5.767 0 0 0-1.359 2.084c-.29.75-.49 1.605-.546 2.858-.058 1.255-.071 1.656-.071 4.853s.013 3.598.07 4.853c.058 1.253.257 2.11.548 2.858a5.77 5.77 0 0 0 1.358 2.084 5.767 5.767 0 0 0 2.085 1.358c.748.291 1.604.49 2.857.547 1.255.058 1.656.071 4.853.071s3.598-.013 4.853-.07c1.253-.058 2.11-.257 2.858-.548a6.019 6.019 0 0 0 3.442-3.442c.291-.75.49-1.605.547-2.858z"/>
    </g>
</svg>
