<svg width="31" height="32" viewBox="0 0 31 32" xmlns="http://www.w3.org/2000/svg">
<path class="accordion-lens-path" d="M8.11337 21.2259L0.471334 29.1469C-0.175177 29.8171 -0.153759 30.8855 0.518118 31.5298C0.834328 31.8332 1.25087 32 1.68996 32C2.15384 32 2.58673 31.8163 2.90858 31.4832L10.6087 23.502C12.7951 25.0333 15.3524 25.84 18.0359 25.84C25.1842 25.84 31 20.044 31 12.92C31 5.79602 25.1842 0 18.0359 0C10.8877 0 5.07188 5.79602 5.07188 12.92C5.07188 15.9691 6.14846 18.898 8.11337 21.2259ZM8 13C8 7.48588 12.4859 3 18 3C23.5141 3 28 7.48588 28 13C28 18.5141 23.5141 23 18 23C12.4859 23 8 18.5141 8 13Z"/>
<path d="M22.9398 8.06641C22.8769 7.99986 22.78 7.98132 22.698 8.01994L12.1242 12.9902C12.0392 13.0304 11.9895 13.1222 12.0019 13.2174C12.0142 13.3125 12.0856 13.388 12.1778 13.4037L16.9206 14.2178L17.4627 18.808C17.4742 18.9036 17.5456 18.9806 17.6383 18.9967C17.6504 18.9989 17.6623 19 17.6743 19C17.7541 19 17.8289 18.954 17.8651 18.8787L22.9779 8.31514C23.0179 8.23245 23.0026 8.13274 22.9398 8.06641Z" fill="#7F7F7F"/>
</svg>
