<svg xmlns="http://www.w3.org/2000/svg" width="49" height="84" viewBox="0 0 49 84">
    <path fill="#ABDD00" fill-rule="nonzero" d="M39.319.159s3.189-1 4.422 2.013c0 0 4.73 5.211 5.246 8.967 0 0 .196 1.147-.929 1.766-.84.454-1.983 1.584-2.736 2.498 0 0-2.537 3.166-7.136 3.166 0 0-.61-.065-1.898 2.895-.654 1.51-2.44 3.785-3.751 5.535-.795 1.057-1.869 3.867-2.158 4.708-.637 1.814-.825 6.312-.156 7.59 0 0 2.106 4.943 2.675 7.135.038.133 1.016 3.006.523 7.149-.047.403-.32 1.976-.423 2.907-.152 1.333-.102 4.091.413 5.35.494 1.203 1.975 2.317 2.39 5.451.417 3.06-.472 7.485-.127 10.145.193 1.487.87 3.614 3.753 4.98 0 0 2.738.659 1.51 1.578 0 0-3.157.118-5.008-.558 0 0-3.155.248-3.566-.912 0 0 .008-.91.345-1.647 0 0-.694-4.552-2.954-7.546-1.63-2.16-1.984-3.058-1.155-10.803 0 0-2.574-1.616-4.096-7.446-.446-1.716-1.134-4.673-1.686-6.87 0 0-3.953 8.23-3.615 12.366 0 0 1.882 4.24 2.131 5.853.211 1.38.168 3.604-.416 5.553-.603 2.016.69 6.703 1.102 8.29 0 0 1.022 2.742-.959 2.678 0 0-3.428-.428-4.527.369 0 0-3.91.477-4.726.118 0 0-1.305-.484.89-1.46 0 0 2.335-.062 3.15-1.522 0 0 1.032-1.222 1.37-1.409 0 0-1.435-3.561-2.822-8.714-.53-1.983-.886-6.558-1.21-8.578-.206-1.259.466-4.216.06-5.442-1.068-3.25-2.717-5.723-.143-13.532 0 0 1.399-3.278 2.196-5.123 1.085-2.517 1.164-7.076 0-10.791 0 0-2.327-3.295-2.465-6.459 0 0 .278-2.068-3.087-2.01 0 0-2.532.55-6.714-3.3L.563 13.272s-1.307-.642.061-4.209c0 0 2.372-4.478 3.641-5.789l.888-1.836s.79-2.04 4.184-1.153c0 0 1.951.276 1.642 1.429 0 0 .48 3.622-.683 3.168 0 0-.552-.3-.685-1.034 0 0-1.715-.083-2.095-.577 0 0-.89 2.771-1.332 3.26 0 0 .441 3.957.064 4.754 0 0 3.566-1.83 5.832 1.375 0 0 4.387-1.31 6.135 1.034 0 0 2.984 2.233 3.456-.457l-.064-1.618s-.416-.975-.514-1.677c0 0-.755.457-.998-1.558 0 0-.442-1.311.482-1.098 0 0-1.545-3.99 2.671-5.087 0 0 5.482-1.244 5.001 4.694 0 0 1.99-.463 0 2.985 0 0-.59-.133-.48.129.071.153.178 1.8.178 1.8s.134 2.59 2.396 2.161c0 0 4.041-2.808 5.996-1.22 0 0 2.572-3.232 6.036-1.52 0 0 1.095.178 1.408-.762 0 0-2.164-1.74-1.643-6.495 0 0-.169-1.676-.932-1.284l-.758.144s-.166 1.23-2.396 1.112c0 0 .079.425-.027.513-.35.295-1.524.234-1.923 0-.914-.53-1.009-3.148 1.097-3.75L39.32.158z"/>
</svg>
