<svg xmlns="http://www.w3.org/2000/svg" xmlns:xlink="http://www.w3.org/1999/xlink" width="50" height="96" viewBox="0 0 50 96">
    <defs>
        <linearGradient id="a" x1="50%" x2="50%" y1="33.203%" y2="100%">
            <stop offset="0%" stop-color="#D2E911"/>
            <stop offset="100%" stop-color="#96BC00"/>
        </linearGradient>
        <path id="b" d="M1435.42 1032.609c-3.786-2.082-7.812-3.668-11.798-5.314-2.312-.952-4.524-2.062-6.477-3.608-3.847-3.054-3.11-8.01 1.395-9.974 1.275-.555 2.61-.733 3.966-.812 5.221-.278 10.184.674 14.907 2.934 2.352 1.13 3.13.773 3.927-1.666.837-2.577 1.534-5.194 2.311-7.792.519-1.744-.12-2.894-1.773-3.628-3.03-1.328-6.139-2.28-9.407-2.796-4.265-.654-4.265-.674-4.285-4.937-.02-6.007-.02-6.007-6.079-6.007-.877 0-1.754-.02-2.63 0-2.83.08-3.309.575-3.389 3.41-.04 1.269 0 2.538-.02 3.827-.02 3.767-.04 3.707-3.667 5.016-8.769 3.172-14.19 9.12-14.768 18.638-.518 8.426 3.907 14.117 10.862 18.26 4.285 2.558 9.028 4.065 13.572 6.068 1.774.773 3.468 1.665 4.943 2.894 4.365 3.589 3.567 9.557-1.614 11.817-2.77 1.21-5.7 1.507-8.71 1.13-4.643-.575-9.088-1.784-13.273-3.945-2.451-1.27-3.169-.932-4.006 1.705-.717 2.28-1.355 4.58-1.993 6.88-.857 3.093-.538 3.827 2.432 5.274 3.786 1.824 7.832 2.756 11.957 3.41 3.23.516 3.329.655 3.369 3.986.02 1.506.02 3.033.04 4.54.02 1.903.936 3.014 2.91 3.053 2.231.04 4.483.04 6.716-.02 1.833-.04 2.77-1.03 2.77-2.874 0-2.062.1-4.144.02-6.206-.1-2.102.817-3.173 2.85-3.728 4.683-1.269 8.67-3.767 11.738-7.495 8.53-10.31 5.282-25.398-6.796-32.04z"/>
        <filter id="c" width="108%" height="104.2%" x="-4%" y="-2.1%" filterUnits="objectBoundingBox">
            <feGaussianBlur in="SourceAlpha" result="shadowBlurInner1" stdDeviation="1"/>
            <feOffset dx="2" dy="1" in="shadowBlurInner1" result="shadowOffsetInner1"/>
            <feComposite in="shadowOffsetInner1" in2="SourceAlpha" k2="-1" k3="1" operator="arithmetic" result="shadowInnerInner1"/>
            <feColorMatrix in="shadowInnerInner1" values="0 0 0 0 0 0 0 0 0 0 0 0 0 0 0 0 0 0 0.304004589 0"/>
        </filter>
    </defs>
    <g fill="none" fill-rule="nonzero" transform="translate(-1397 -989)">
        <use fill="url(#a)" xlink:href="#b"/>
        <use fill="#000" filter="url(#c)" xlink:href="#b"/>
    </g>
</svg>
