<?xml version="1.0" encoding="UTF-8" standalone="no"?>
<!DOCTYPE svg PUBLIC "-//W3C//DTD SVG 1.1//EN"
"http://www.w3.org/Graphics/SVG/1.1/DTD/svg11.dtd">


<!-- Page 1 -->
<svg x="0" y="0" width="45" height="61" viewBox="0 0 45 61" version="1.1" xmlns="http://www.w3.org/2000/svg" xmlns:xlink="http://www.w3.org/1999/xlink"
style="display: block;margin-left: auto;margin-right: auto;">
<defs>
<clipPath id="c_1"><path d="M0,0H45V61H0Z" /></clipPath>
<clipPath id="c0_1"><path d="M22.9,29C26.3,29,29,26.3,29,22.9c0,-3.4,-2.7,-6.1,-6.1,-6.1c-3.4,0,-6.1,2.7,-6.1,6.1c0,3.4,2.7,6.1,6.1,6.1Zm0,32.1c-.8,0,-1.6,-.3,-2.3,-.9C19.8,59.5,0,41.7,0,23.2C0,10.4,10.3,0,22.9,0C35.6,0,45.8,10.4,45.8,23.2c0,18.5,-19.7,36.3,-20.6,37c-.6,.6,-1.5,.9,-2.3,.9Z" /></clipPath>

<style type="text/css"><![CDATA[

.g0_1{
fill: #AACC23;
}

]]></style>

</defs>
<g clip-path="url(#c_1)">
<path d="M0,0
L0,61
L45,61
L45,0 Z " 
fill="#FFFFFF" stroke="none" />
<g clip-path="url(#c0_1)">
<path d="M-7.5,-7.5h61V68.8h-61Z" class="g0_1" />
</g>

</g>
</svg>
