<svg xmlns="http://www.w3.org/2000/svg" width="66" height="83" viewBox="0 0 66 83">
    <path fill="#B5DB42" fill-rule="nonzero" d="M53.396 51.875L66 75.347l-9.818-1.28L52.728 83 38.69 58.88s2.988.499 5.38-2.05c2.08-1.75.232-4.005 9.326-4.955zM12.59 50.722s.43 1.46 3.654 1.46c7.436.156 5.037 6.08 11.065 6.226 0-.155-11.38 22.93-11.628 23.43l-.004.01-5.582-8.169L0 74.782l12.59-24.06zM43.71 2.497c1.538 2.604 3.799 3.93 6.797 3.973 2.998.035 4.511 1.582 4.56 4.613.04 3.044 1.345 5.33 3.915 6.892 2.58 1.558 3.135 3.649 1.668 6.295-1.46 2.653-1.46 5.299 0 7.945 1.467 2.653.909 4.748-1.668 6.305-2.57 1.55-3.872 3.841-3.915 6.871-.049 3.045-1.562 4.592-4.56 4.627-2.998.036-5.26 1.37-6.797 3.973-1.534 2.61-3.606 3.172-6.218 1.682-2.612-1.465-5.231-1.465-7.843 0-2.612 1.493-4.68.928-6.218-1.682-1.538-2.604-3.799-3.937-6.797-3.973-2.991-.035-4.511-1.586-4.553-4.627-.046-3.03-1.352-5.32-3.922-6.87-2.58-1.555-3.142-3.653-1.668-6.306 1.468-2.646 1.468-5.292 0-7.945-1.474-2.65-.909-4.737 1.668-6.295 2.57-1.565 3.872-3.848 3.922-6.892.042-3.03 1.562-4.578 4.553-4.613 2.995-.04 5.26-1.366 6.794-3.973 1.537-2.61 3.605-3.172 6.22-1.689 2.613 1.48 5.232 1.48 7.844 0 2.612-1.487 4.68-.921 6.218 1.69zm-10.607 7.781c-10.06 0-18.211 8.257-18.211 18.44 0 10.192 8.15 18.449 18.21 18.449 10.053 0 18.204-8.257 18.204-18.449 0-10.183-8.151-18.44-18.203-18.44zM36.07 16c.163 0 .296.14.296.314v19.42c0 .174.133.314.298.314h3.038c.164 0 .297.14.297.314v3.324a.306.306 0 0 1-.297.314H27.735a.306.306 0 0 1-.297-.314v-3.324c0-.174.133-.314.297-.314h3.644c.164 0 .296-.14.296-.314V22.876c0-.265-.292-.41-.486-.241l-2.635 2.305a.286.286 0 0 1-.424-.049l-2.067-2.795a.326.326 0 0 1 .043-.434l6.304-5.589A.287.287 0 0 1 32.6 16z"/>
</svg>
