<svg xmlns="http://www.w3.org/2000/svg" width="166" height="99" viewBox="0 0 166 99">
    <g fill="none" fill-rule="evenodd" opacity=".45">
        <path fill="#B7E0F9" d="M15.387 41.977c2.934-.17 5.712.445 8.165 1.663 2.609-12.502 13.288-22.218 26.58-23.004a28.752 28.752 0 0 1 10.687 1.41C63.579 10.048 73.919.806 86.75.048c15.62-.904 29.016 11.067 29.918 26.773.043.727.053 1.45.04 2.165 10.083-.07 19.131 4.856 24.74 12.555a19.296 19.296 0 0 1 3.975-.66c10.722-.626 19.917 7.609 20.542 18.377.633 10.786-7.553 20.027-18.276 20.65a19.017 19.017 0 0 1-7.254-.957c-5.2 6.385-12.94 10.658-21.782 11.184a30.233 30.233 0 0 1-13.27-2.208C100.477 94.21 93.015 98.45 84.442 98.95c-11.843.694-22.425-5.934-27.4-15.976-3.251 4.18-8.196 6.998-13.883 7.324-10.154.596-18.9-6.944-20.008-16.982a16.076 16.076 0 0 1-5.86 1.469C8.276 75.315.55 68.395.028 59.34c-.525-9.062 6.355-16.84 15.359-17.364"/>
        <path fill="#FFF" d="M31.143 38.563c3.189-.485 8.812 2.079 10.128 4.558-2.252-10.06 5.104-18.524 15.934-19.172 3.041-.175 10.865 2.467 12.554 4.37C72.055 19.344 76.543 10 87.005 10c12.19 0 18.277 4.7 21.092 16.805 1.179 5.08-.55 9.135-.562 9.67 8.806-7.776 21.365-.854 23.626 6.265.278-4.269 4.07-5.364 5.19-5.422 8.708-.52 16.16 5.591 16.627 13.629.459 8.064-6.238 15.007-14.946 15.522a16.767 16.767 0 0 1-5.908-.687c-4.255 4.799-10.57 8.016-17.762 8.44a26.486 26.486 0 0 1-10.782-1.589c-4.007 4.723-10.098 7.907-17.06 8.323-9.638.564-18.225-4.345-22.233-11.82-2.647 3.14-6.693 5.251-11.31 5.53-8.257.485-15.344-5.1-16.194-12.607a14.625 14.625 0 0 1-4.782 1.133c-7.33.417-13.585-4.716-13.984-11.478-.381-6.772 5.874-12.033 13.126-13.15"/>
    </g>
</svg>
