<svg xmlns="http://www.w3.org/2000/svg" xmlns:xlink="http://www.w3.org/1999/xlink" width="86" height="86" viewBox="0 0 86 86">
    <defs>
        <linearGradient id="a" x1="50%" x2="50%" y1="0%" y2="100%">
            <stop offset="0%" stop-color="#454856"/>
            <stop offset="100%" stop-color="#23252A"/>
        </linearGradient>
        <path id="b" d="M842.205 3390.542c-.563-1.208.073-2.596 1.422-3.1l8.707-3.258c1.348-.505 2.898.066 3.461 1.274.563 1.208-.074 2.596-1.422 3.1l-8.706 3.259a2.902 2.902 0 0 1-1.019.183c-1.036 0-2.019-.548-2.443-1.458zm-40.764-16.169l-3.257-8.707c-.505-1.348.066-2.898 1.274-3.461 1.208-.563 2.596.074 3.1 1.422l3.258 8.706c.505 1.349-.066 2.899-1.274 3.462a2.16 2.16 0 0 1-.912.205c-.928 0-1.809-.612-2.189-1.627zm29.118 55.254l3.257 8.707c.505 1.348-.065 2.898-1.273 3.46-.3.14-.608.206-.913.206-.928 0-1.809-.612-2.189-1.628l-3.257-8.706c-.505-1.348.065-2.898 1.274-3.461 1.208-.563 2.596.073 3.1 1.422zm-40.764-16.17c.563 1.209-.073 2.597-1.422 3.101l-8.707 3.258a2.903 2.903 0 0 1-1.018.184c-1.036 0-2.019-.548-2.443-1.458-.563-1.208.073-2.596 1.422-3.1l8.707-3.258c1.348-.505 2.898.066 3.46 1.274zm37.684-38.656c-1.218-.554-1.8-2.098-1.3-3.448l3.23-8.714c.501-1.35 1.894-1.995 3.112-1.44 1.218.554 1.8 2.098 1.3 3.448l-3.23 8.714c-.38 1.021-1.27 1.639-2.207 1.639-.302 0-.609-.064-.905-.199zm-50.84 13.79c-1.35-.501-1.995-1.894-1.44-3.112.554-1.218 2.098-1.8 3.448-1.3l8.714 3.23c1.35.501 1.995 1.894 1.44 3.112-.42.921-1.406 1.479-2.444 1.479-.336 0-.675-.058-1.004-.18l-8.714-3.23zm78.722 26.819c1.35.5 1.995 1.893 1.44 3.111-.42.921-1.406 1.479-2.445 1.479-.335 0-.674-.058-1.003-.18l-8.714-3.23c-1.35-.5-1.995-1.893-1.44-3.111.554-1.218 2.098-1.8 3.448-1.3l8.714 3.23zm-50.84 13.79c1.218.554 1.8 2.097 1.3 3.447l-3.23 8.714c-.38 1.022-1.27 1.639-2.207 1.639-.302 0-.609-.064-.905-.199-1.218-.554-1.8-2.098-1.3-3.447l3.23-8.715c.501-1.35 1.894-1.995 3.112-1.44zm33.912-47.2a2.432 2.432 0 0 1-1.72-4.153l6.134-6.134a2.432 2.432 0 1 1 3.44 3.44l-6.134 6.134a2.423 2.423 0 0 1-1.72.713zm-46.586-.713l-6.134-6.134a2.433 2.433 0 1 1 3.44-3.44l6.135 6.134a2.433 2.433 0 0 1-3.44 3.44zm48.306 41.426l6.135 6.134a2.434 2.434 0 0 1-3.441 3.44l-6.134-6.134a2.432 2.432 0 1 1 3.44-3.44zm-48.306 0a2.433 2.433 0 0 1 3.44 3.44l-6.134 6.134a2.423 2.423 0 0 1-1.72.713 2.433 2.433 0 0 1-1.72-4.154l6.135-6.134zM816.5 3373c-1.38 0-2.5-1.126-2.5-2.515v-8.97c0-1.389 1.12-2.515 2.5-2.515s2.5 1.126 2.5 2.515v8.97c0 1.389-1.12 2.515-2.5 2.515zm-29.5 29.5c0 1.38-1.126 2.5-2.515 2.5h-8.97a2.508 2.508 0 0 1-2.515-2.5c0-1.38 1.126-2.5 2.515-2.5h8.97c1.389 0 2.515 1.12 2.515 2.5zm69.485-2.5c1.389 0 2.515 1.12 2.515 2.5s-1.126 2.5-2.515 2.5h-8.97a2.508 2.508 0 0 1-2.515-2.5c0-1.38 1.126-2.5 2.515-2.5h8.97zm-39.985 31c1.38 0 2.5 1.126 2.5 2.515v8.97c0 1.389-1.12 2.515-2.5 2.515s-2.5-1.126-2.5-2.515v-8.97c0-1.389 1.12-2.515 2.5-2.515zm.5-53c13.785 0 25 11.214 25 25 0 13.785-11.215 25-25 25-13.786 0-25-11.215-25-25 0-13.786 11.214-25 25-25z"/>
        <filter id="c" width="107%" height="107%" x="-3.5%" y="-3.5%" filterUnits="objectBoundingBox">
            <feGaussianBlur in="SourceAlpha" result="shadowBlurInner1" stdDeviation="1.5"/>
            <feOffset dx="3" dy="3" in="shadowBlurInner1" result="shadowOffsetInner1"/>
            <feComposite in="shadowOffsetInner1" in2="SourceAlpha" k2="-1" k3="1" operator="arithmetic" result="shadowInnerInner1"/>
            <feColorMatrix in="shadowInnerInner1" values="0 0 0 0 0 0 0 0 0 0 0 0 0 0 0 0 0 0 0.5 0"/>
        </filter>
    </defs>
    <g fill="none" fill-rule="nonzero" transform="translate(-773 -3359)">
        <use fill="url(#a)" xlink:href="#b"/>
        <use fill="#000" filter="url(#c)" xlink:href="#b"/>
    </g>
</svg>
