<svg xmlns="http://www.w3.org/2000/svg" xmlns:xlink="http://www.w3.org/1999/xlink" width="53" height="53" viewBox="0 0 53 53">
    <defs>
        <path id="b" d="M1095.98 4574.602a1.627 1.627 0 0 0-1.217-1.327c-.106-.026-8.718-2.19-15.045-6.083l-6.91-6.91c-3.889-6.325-6.057-14.94-6.083-15.045a1.627 1.627 0 0 0-2.963-.467l-2.086 3.364c-1.182-1.066-2.961-1.572-4.415-1.188l-.119.031c-5.15 1.578-8.42 4.849-9.999 10l-.031.118c-.362 1.605.17 3.408 1.354 4.593.09.089.183.175.278.255l.036.03a187.434 187.434 0 0 1 11.39 9.883c-3.277 1.817-6.127 2.72-8.304 2.623a.83.83 0 0 0-.538 1.49l2.46 1.864-2.791 2.677a.83.83 0 0 0 .537 1.427c2.465.11 5.176-.42 8.103-1.575-1.155 2.928-1.684 5.639-1.574 8.103a.83.83 0 0 0 1.427.538l2.677-2.79 1.864 2.459a.83.83 0 0 0 1.49-.538c-.097-2.178.806-5.027 2.623-8.306a187.055 187.055 0 0 1 9.883 11.392l.03.036c.08.095.166.188.255.277 1.184 1.185 2.987 1.717 4.593 1.355l.12-.031c5.15-1.579 8.42-4.85 9.998-10 0 0 .86-2.591-1.157-4.533l3.364-2.086c.557-.345.852-.99.75-1.636zM1064.753 4550a92.973 92.973 0 0 0 1.247 4c-.673-.878-1.34-1.762-2-2.652l.753-1.348zm-1.968 20a190.662 190.662 0 0 0-12.184-10.612 1.35 1.35 0 0 1-.066-.061c-.383-.383-.643-1.022-.49-1.525 1.27-4.081 3.663-6.473 7.747-7.742.462-.154 1.126-.027 1.588.556.256.32.513.64.772.958l.494.606a190.43 190.43 0 0 0 9.354 10.611l-7.215 7.209zm27.175 12.217c-1.27 4.088-3.664 6.484-7.749 7.755-.5.109-1.144-.108-1.527-.491a1.318 1.318 0 0 1-.061-.066A190.26 190.26 0 0 0 1070 4577.22l7.216-7.22a190.363 190.363 0 0 0 10.623 9.363l.606.494c.319.258.639.516.96.772l.065.061c.382.383.63 1.037.49 1.527zm-1.309-5.217a210.88 210.88 0 0 1-2.651-2c1.463.493 2.825.91 4 1.247l-1.349.753z"/>
        <filter id="a" width="114.3%" height="114.3%" x="-7.1%" y="-5.1%" filterUnits="objectBoundingBox">
            <feOffset dy="1" in="SourceAlpha" result="shadowOffsetOuter1"/>
            <feGaussianBlur in="shadowOffsetOuter1" result="shadowBlurOuter1" stdDeviation="1"/>
            <feColorMatrix in="shadowBlurOuter1" values="0 0 0 0 0 0 0 0 0 0 0 0 0 0 0 0 0 0 0.5 0"/>
        </filter>
    </defs>
    <g fill="none" fill-rule="nonzero" transform="translate(-1045 -4543)">
        <use fill="#000" filter="url(#a)" xlink:href="#b"/>
        <use fill="#9EC700" xlink:href="#b"/>
    </g>
</svg>
