<svg xmlns="http://www.w3.org/2000/svg" xmlns:xlink="http://www.w3.org/1999/xlink" width="43" height="57" viewBox="0 0 43 57">
    <defs>
        <path id="b" d="M474.161 4581.548c.808.87 1.785 1.468 2.839 1.755v9.065l-3.25 2.42c-.756.563-1.75-.064-1.75-1.103v-12.517a5.54 5.54 0 0 0 .548-.115c.576-.153 1.18.03 1.613.495zm10.839-.38v12.517c0 1.04-.994 1.666-1.75 1.104l-3.25-2.421v-9.065c1.053-.287 2.031-.885 2.838-1.755.433-.466 1.037-.648 1.614-.495.182.048.364.086.548.115zm10.789-26.754a5.062 5.062 0 0 0 1.226 4.578c.635.684.985 1.575.985 2.508s-.35 1.824-.985 2.508a5.061 5.061 0 0 0-1.226 4.578c.208.91.065 1.855-.402 2.664a3.674 3.674 0 0 1-2.106 1.68 5.063 5.063 0 0 0-3.351 3.35 3.675 3.675 0 0 1-1.68 2.107 3.674 3.674 0 0 1-2.664.402 5.063 5.063 0 0 0-4.579 1.226 3.673 3.673 0 0 1-2.507.985c-.934 0-1.824-.35-2.508-.985a5.062 5.062 0 0 0-4.578-1.226 3.674 3.674 0 0 1-2.664-.402 3.675 3.675 0 0 1-1.68-2.106 5.063 5.063 0 0 0-3.351-3.351 3.674 3.674 0 0 1-2.106-1.68 3.676 3.676 0 0 1-.402-2.664 5.063 5.063 0 0 0-1.226-4.578 3.674 3.674 0 0 1-.985-2.508c0-.933.35-1.824.985-2.508a5.064 5.064 0 0 0 1.226-4.578 3.674 3.674 0 0 1 .402-2.664 3.672 3.672 0 0 1 2.106-1.68 5.063 5.063 0 0 0 3.351-3.35 3.673 3.673 0 0 1 1.68-2.107 3.672 3.672 0 0 1 2.664-.402 5.064 5.064 0 0 0 4.578-1.226 3.672 3.672 0 0 1 2.508-.985c.933 0 1.824.35 2.507.985a5.064 5.064 0 0 0 4.579 1.226 3.676 3.676 0 0 1 2.664.402 3.674 3.674 0 0 1 1.68 2.106 5.062 5.062 0 0 0 3.35 3.351c.892.275 1.64.872 2.107 1.68.467.808.61 1.754.402 2.664zm-17.29 21.731c8.076 0 14.646-6.57 14.646-14.645s-6.57-14.645-14.645-14.645c-8.076 0-14.646 6.57-14.646 14.645s6.57 14.645 14.646 14.645zM490 4561.5c0 6.341-5.159 11.5-11.5 11.5s-11.5-5.159-11.5-11.5 5.159-11.5 11.5-11.5 11.5 5.159 11.5 11.5zm-5.46 2.112a.23.23 0 0 1 .042-.129l.969-1.383c.609-.87.77-1.947.442-2.957a3.323 3.323 0 0 0-2.096-2.132l-1.596-.55a.23.23 0 0 1-.11-.08l-1.016-1.348a3.322 3.322 0 0 0-2.675-1.334 3.321 3.321 0 0 0-2.675 1.334l-1.016 1.349a.23.23 0 0 1-.11.08l-1.596.549a3.323 3.323 0 0 0-2.096 2.132 3.323 3.323 0 0 0 .442 2.957l.969 1.383c.026.038.04.083.042.129l.029 1.688a3.322 3.322 0 0 0 1.38 2.652 3.326 3.326 0 0 0 2.949.493l1.614-.494a.228.228 0 0 1 .135 0l1.615.494c1.015.31 2.09.13 2.949-.493a3.323 3.323 0 0 0 1.38-2.652l.03-1.688zm-2.543-1.542a3.59 3.59 0 0 0-.6 1.938l-.03 1.755a.232.232 0 0 1-.094.19.21.21 0 0 1-.202.036l-1.6-.514a3.164 3.164 0 0 0-1.942 0l-1.6.514a.212.212 0 0 1-.203-.036.232.232 0 0 1-.094-.19l-.03-1.756a3.585 3.585 0 0 0-.6-1.937l-.96-1.438a.24.24 0 0 1-.03-.212.224.224 0 0 1 .144-.153l1.583-.572a3.322 3.322 0 0 0 1.57-1.197l1.008-1.402a.216.216 0 0 1 .183-.096c.076 0 .137.032.183.096l1.008 1.402c.4.557.943.97 1.57 1.197l1.583.572c.072.026.12.078.144.153a.239.239 0 0 1-.03.212l-.96 1.438z"/>
        <filter id="a" width="117.9%" height="113.2%" x="-9%" y="-4.7%" filterUnits="objectBoundingBox">
            <feOffset dy="1" in="SourceAlpha" result="shadowOffsetOuter1"/>
            <feGaussianBlur in="shadowOffsetOuter1" result="shadowBlurOuter1" stdDeviation="1"/>
            <feColorMatrix in="shadowBlurOuter1" values="0 0 0 0 0 0 0 0 0 0 0 0 0 0 0 0 0 0 0.5 0"/>
        </filter>
    </defs>
    <g fill="none" fill-rule="nonzero" transform="translate(-457 -4541)">
        <use fill="#000" filter="url(#a)" xlink:href="#b"/>
        <use fill="#9EC700" xlink:href="#b"/>
    </g>
</svg>
