<svg width="21" height="28" viewBox="0 0 21 28" fill="none" xmlns="http://www.w3.org/2000/svg">
<path d="M9.64929 26.6275L9.31663 27.0008L9.31694 27.0011L9.64929 26.6275ZM1 11.074L1.5 11.074V11.074H1ZM11.6007 26.6275L11.9332 27.001L11.9334 27.0008L11.6007 26.6275ZM9.31694 27.0011C9.68979 27.3328 10.1571 27.5 10.625 27.5V26.5C10.3958 26.5 10.1666 26.4185 9.98164 26.254L9.31694 27.0011ZM0.5 11.074C0.499846 15.116 2.65248 19.0337 4.7893 21.9383C6.93644 24.8569 9.12715 26.8319 9.31663 27.0008L9.98195 26.2542C9.81814 26.1082 7.68406 24.1856 5.5948 21.3457C3.49523 18.4917 1.49986 14.7901 1.5 11.074L0.5 11.074ZM10.6251 0.833374C5.036 0.833374 0.5 5.43254 0.5 11.074H1.5C1.5 5.97354 5.59951 1.83337 10.6251 1.83337V0.833374ZM20.75 11.074C20.75 5.43255 16.2142 0.833374 10.6251 0.833374V1.83337C15.6506 1.83337 19.75 5.97352 19.75 11.074H20.75ZM11.9334 27.0008C12.1229 26.8319 14.3135 24.8569 16.4606 21.9383C18.5974 19.0337 20.75 15.116 20.75 11.074H19.75C19.75 14.7901 17.7546 18.4917 15.6551 21.3457C13.5659 24.1856 11.4319 26.1083 11.2681 26.2542L11.9334 27.0008ZM10.625 27.5C11.0928 27.5 11.5604 27.3328 11.9332 27.001L11.2683 26.254C11.0835 26.4185 10.8543 26.5 10.625 26.5V27.5ZM10.6252 8.89177C11.7663 8.89177 12.6917 9.81678 12.6917 10.9584H13.6917C13.6917 9.26443 12.3185 7.89177 10.6252 7.89177V8.89177ZM8.55834 10.9584C8.55834 9.8168 9.48354 8.89177 10.6252 8.89177V7.89177C8.93136 7.89177 7.55834 9.26441 7.55834 10.9584H8.55834ZM10.6252 13.0251C9.48357 13.0251 8.55834 12.0998 8.55834 10.9584H7.55834C7.55834 12.6521 8.93132 14.0251 10.6252 14.0251V13.0251ZM12.6917 10.9584C12.6917 12.1 11.7663 13.0251 10.6252 13.0251V14.0251C12.3185 14.0251 13.6917 12.6523 13.6917 10.9584H12.6917Z" fill="#AACC23"/>
</svg>
