<svg xmlns="http://www.w3.org/2000/svg" width="1094" height="697" viewBox="0 0 1094 697">
    <g fill="none" fill-rule="evenodd" transform="translate(1 -4)">
        <text fill="#000" font-family="AvenirNextCyr-Demi, Avenir Next Cyr" font-size="22" font-weight="500">
            <tspan x="243" y="21">Зона рычажных блоков</tspan>
        </text>
        <text fill="#000" font-family="AvenirNextCyr-Demi, Avenir Next Cyr" font-size="22" font-weight="500">
            <tspan x="0" y="545">Зона свободных весов</tspan>
        </text>
        <text fill="#000" font-family="AvenirNextCyr-Demi, Avenir Next Cyr" font-size="22" font-weight="500">
            <tspan x="635" y="21">Зона Кроссфита</tspan>
        </text>
        <text fill="#000" font-family="AvenirNextCyr-Demi, Avenir Next Cyr" font-size="22" font-weight="500">
            <tspan x="491" y="128">Кардио зона</tspan>
        </text>
        <circle cx="942.5" cy="188.5" r="5.5" fill="#AACC23" transform="matrix(-1 0 0 1 1885 0)"/>
        <circle cx="843.5" cy="345.5" r="5.5" fill="#AACC23" transform="matrix(-1 0 0 1 1687 0)"/>
        <circle cx="788.5" cy="461.5" r="5.5" fill="#AACC23" transform="matrix(-1 0 0 1 1577 0)"/>
        <circle cx="700.5" cy="568.5" r="5.5" fill="#AACC23" transform="matrix(-1 0 0 1 1401 0)"/>
        <circle cx="386.5" cy="297.5" r="5.5" fill="#AACC23" transform="matrix(-1 0 0 1 773 0)"/>
        <circle cx="421.5" cy="420.5" r="5.5" fill="#AACC23" transform="matrix(-1 0 0 1 843 0)"/>
        <circle cx="516.5" cy="423.5" r="5.5" fill="#AACC23" transform="matrix(-1 0 0 1 1033 0)"/>
        <circle cx="379.5" cy="570.5" r="5.5" fill="#AACC23" transform="matrix(-1 0 0 1 759 0)"/>
        <circle cx="517.5" cy="537.5" r="5.5" fill="#AACC23" transform="matrix(-1 0 0 1 1035 0)"/>
        <circle cx="150.5" cy="334.5" r="5.5" fill="#AACC23" transform="matrix(-1 0 0 1 301 0)"/>
        <circle cx="712.5" cy="265.5" r="5.5" fill="#AACC23" transform="matrix(-1 0 0 1 1425 0)"/>
        <circle cx="82.5" cy="188.5" r="5.5" fill="#AACC23" transform="matrix(-1 0 0 1 165 0)"/>
        <path stroke="#AACC23" stroke-linecap="round" stroke-width="4" d="M941 184L879.172 28.491c-4.616-9.418-10.877-13.905-18.782-13.461H823M387 297l54.112-165.727c4.603-7.87 10.844-11.62 18.725-11.248H483M84 184l79.865-155.509c5.964-9.418 14.05-13.905 24.261-13.461H229"/>
        <text fill="#000" font-family="AvenirNextCyr-Demi, Avenir Next Cyr" font-size="22" font-weight="500">
            <tspan x="0" y="671">Мужская раздевалка</tspan>
        </text>
        <text fill="#000" font-family="AvenirNextCyr-Demi, Avenir Next Cyr" font-size="22" font-weight="500">
            <tspan x="912" y="560">Малый зал</tspan> <tspan x="912" y="583">групповых</tspan> <tspan x="912" y="606">программ</tspan>
        </text>
        <text fill="#000" font-family="AvenirNextCyr-Demi, Avenir Next Cyr" font-size="22" font-weight="500">
            <tspan x="912" y="649">Большой зал</tspan> <tspan x="912" y="672">групповых</tspan> <tspan x="912" y="695">программ</tspan>
        </text>
        <text fill="#000" font-family="AvenirNextCyr-Demi, Avenir Next Cyr" font-size="22" font-weight="500">
            <tspan x="0" y="608">Женская раздевалка</tspan>
        </text>
        <text fill="#000" font-family="AvenirNextCyr-Demi, Avenir Next Cyr" font-size="22" font-weight="500">
            <tspan x="912" y="490">Функциональная</tspan> <tspan x="912" y="513">зона</tspan>
        </text>
        <text fill="#000" font-family="AvenirNextCyr-Demi, Avenir Next Cyr" font-size="22" font-weight="500">
            <tspan x="656" y="700">SPA зона</tspan>
        </text>
        <path stroke="#AACC23" stroke-linecap="round" stroke-width="4" d="M8 520l81.322-172.436c5.304-9.47 12.498-13.98 21.581-13.534H150M420 422c-68.971 105.062-105.66 160.735-110.066 167.02-6.61 9.427-10.582 12.98-21.902 12.98H238M843 345c1.688 77.33 2.83 121.19 3.427 131.58 1.073 9.189 3.8 15.42 15.364 15.42H895M789 464c24.63 51.359 39.504 83.378 44.618 96.057 4.787 11.12 8.56 19.943 20.048 19.943H895M517 426c37.059 156.979 56.748 239.98 59.066 249.006 3.478 13.539 10.582 12.99 21.902 12.99H648M378 570c-36.563 48.274-57.987 76.578-64.272 84.912C308 663.56 302.266 667 293.928 667H238M701 570c36.668 48.274 58.154 76.578 64.458 84.912C771.202 663.56 776.953 667 785.316 667H895"/>
        <path stroke="#AACC23" stroke-linecap="round" stroke-width="4" d="M517 537c28.002 90.35 45.154 139.673 51.458 147.969 5.744 8.607 11.495 12.031 19.858 12.031H648"/>
    </g>
</svg>
