<svg width="22" height="19" viewBox="0 0 22 19" fill="none" xmlns="http://www.w3.org/2000/svg">
<path d="M8.53462 18.7381C8.90083 19.0995 9.48154 19.0853 9.83033 18.7053C10.1796 18.3253 10.1649 17.7239 9.79871 17.362L2.76696 10.4501L21.0833 10.4501C21.5893 10.4501 22 10.0245 22 9.50013C22 8.97572 21.5893 8.55011 21.0833 8.55011L2.79629 8.55011L9.79871 1.63782C10.1654 1.27587 10.1796 0.674506 9.83034 0.294501C9.65021 0.0987996 9.40867 -1.10077e-06 9.16667 -1.12193e-06C8.93933 -1.1418e-06 8.712 0.0869243 8.53463 0.2622L0.537168 8.15681C0.190667 8.51544 8.74897e-07 8.99234 8.30505e-07 9.50012C7.86114e-07 10.0079 0.190667 10.4848 0.553208 10.8596L8.53462 18.7381Z" fill="#95BA00"/>
</svg>
