<svg xmlns="http://www.w3.org/2000/svg" xmlns:xlink="http://www.w3.org/1999/xlink" width="150" height="140" viewBox="0 0 150 140">
    <defs>
        <path id="a" d="M0 .187h149.388V140H0z"/>
    </defs>
    <g fill="none" fill-rule="evenodd">
        <g>
            <mask id="b" fill="#fff">
                <use xlink:href="#a"/>
            </mask>
            <path fill="#59C0CB" d="M147.013 51.488c-2.05-1.553-4.952-1.906-7.43-2.163-3.444-.346-6.965-.04-10.392.376-3.346.42-6.686.92-9.992 1.561-2.344.47-4.627 1.07-6.887 1.72a204.944 204.944 0 0 0 4.515-3.85c5.532-4.968 10.547-10.393 13.328-17.384 1.115-2.768 1.738-6.957-.672-9.19-1.15-1.077-2.747-1.24-4.208-1.392-1.763-.213-3.583.35-5.24.854-5.18 1.586-9.632 4.62-13.882 7.884-3.61 2.773-7.116 5.633-10.358 8.795 2.97-4.933 5.765-9.963 8.088-15.237 1.5-3.4 2.654-6.973 3.156-10.682.384-2.728.374-5.736-.926-8.223-1.626-3.13-4.976-3.64-8.049-2.62-3.02 1.018-5.527 3.858-7.475 6.233-2.536 3.099-4.607 6.52-6.51 10.032-2.012 3.666-3.877 7.385-5.396 11.304a81.706 81.706 0 0 0-2.708 8.138c.346-3.407.813-6.817 1.13-10.246.322-3.8.448-7.667.078-11.466-.35-3.532-1.607-6.844-3.048-10.052-1.378-3.088-3.857-5.386-7.31-5.666-3.18-.26-6.31 1.392-8.273 3.83-1.855 2.289-2.741 5.144-3.185 8.028-.555 3.76-.555 7.428-.043 11.198.676 5.07 1.757 10.11 3.135 15.092-.155-.255-.292-.525-.448-.783-3.744-6.396-8.346-12.074-13.547-17.346-2.4-2.453-4.743-4.734-7.616-6.664-2.352-1.583-4.924-3.035-7.816-3.259-6.17-.46-8.57 6.284-8.434 11.285.063 1.972.623 3.887 1.189 5.764a54.928 54.928 0 0 0 2.765 7.097c2.128 4.515 4.933 8.6 8.152 12.41-3.19-1.825-6.496-3.42-9.929-4.702a46.645 46.645 0 0 0-10.358-2.595c-2.523-.338-5.03-.455-7.465.409-2.46.874-4.212 2.657-4.811 5.216-.692 3.01 1.295 5.993 3.048 8.205 3.097 3.901 7.169 6.831 11.274 9.592 4.246 2.872 9.071 4.872 13.97 6.306 2.148.62 4.324 1.08 6.511 1.45-5.123.961-10.206 2.317-15.125 3.97a47.467 47.467 0 0 0-9.5 4.412c-2.645 1.582-5.06 3.38-6.813 5.963-1.611 2.353-2.752 6.428-.297 8.59 2.425 2.127 5.692 2.958 8.828 3.334 4.592.53 9.355-.072 13.898-.692a112.035 112.035 0 0 0 9.326-1.745c-2.036 1.962-3.984 4.018-5.888 6.129-4.606 5.143-8.668 11.665-8.634 18.765.02 3.254 1.461 6.247 4.69 7.33 2.78.92 5.916.131 8.527-.944 4.494-1.876 8.439-5.332 11.92-8.645 3.725-3.578 6.866-7.632 10.105-11.662 1.86-2.338 3.506-4.793 5.035-7.324-1.076 6.863-1.505 13.77-1.14 20.711.2 3.644.858 7.207 1.939 10.683.75 2.453 1.617 5.016 3.023 7.153 1.461 2.246 3.75 3.675 6.512 3.096 2.891-.638 4.684-3.245 5.896-5.75 1.749-3.604 2.533-7.768 3.063-11.703.662-4.932.789-10.032.59-15a86.309 86.309 0 0 0-.167-2.744c2.216 4.605 4.622 9.079 7.52 13.34.983 1.439 1.986 2.95 3.218 4.21a122.02 122.02 0 0 0 4.359 4.249c2.332 2.148 5.152 4.424 8.419 4.742 2.913.266 5.634-1.238 6.643-3.995 1.14-3.148.039-6.71-.945-9.729-2.06-6.313-5.215-12.303-8.79-17.956a83.066 83.066 0 0 0 6.467 4.04 72.207 72.207 0 0 0 9.861 4.627c2.941 1.136 5.975 2.246 9.13 2.606 3.146.368 6.73-.487 8.634-3.21 1.622-2.315 1.208-5.087.176-7.55-1.875-4.515-5.59-8.482-9.16-11.739-4.144-3.777-8.868-6.8-13.64-9.71a86.882 86.882 0 0 0-3.895-2.238 134.569 134.569 0 0 0 12.572-2.764c6.463-1.73 13.129-3.875 19.051-7.01 2.955-1.567 5.911-3.567 7.806-6.366 1.903-2.823 1.655-6.64-1.145-8.733" mask="url(#b)"/>
        </g>
        <path fill="#FAF5C1" d="M100.719 7a.617.617 0 0 1-.33-.099c-.359-.213-.488-.725-.309-1.145l.568-1.301c.188-.405.617-.574.972-.366.346.214.48.741.3 1.148l-.563 1.307c-.13.293-.376.456-.638.456M97.834 13.173a1.143 1.143 0 0 1-.39-.107.84.84 0 0 1-.362-1.121l1.315-2.488c.203-.425.727-.572 1.133-.362.43.21.593.717.37 1.122l-1.31 2.487a.858.858 0 0 1-.756.47m-2.942 5.597a.903.903 0 0 1-.4-.1.83.83 0 0 1-.357-1.124l1.305-2.483c.208-.42.727-.569 1.147-.367.421.214.58.713.366 1.133l-1.315 2.488a.846.846 0 0 1-.746.453m-2.957 5.604a.65.65 0 0 1-.39-.102.813.813 0 0 1-.362-1.122l1.305-2.486a.867.867 0 0 1 1.142-.364.839.839 0 0 1 .377 1.127l-1.33 2.493a.813.813 0 0 1-.742.454m-2.962 5.61a1.334 1.334 0 0 1-.396-.1c-.4-.212-.573-.728-.356-1.124l1.316-2.49a.842.842 0 0 1 1.137-.36c.42.209.593.72.371 1.122l-1.31 2.494a.886.886 0 0 1-.762.458m-2.947 5.603a.939.939 0 0 1-.4-.089.859.859 0 0 1-.362-1.136l1.315-2.49a.86.86 0 0 1 1.147-.362.826.826 0 0 1 .347 1.136l-1.296 2.5a.86.86 0 0 1-.751.44m-2.962 5.604a.8.8 0 0 1-.385-.087c-.42-.224-.594-.72-.361-1.13l1.31-2.496a.85.85 0 0 1 1.142-.355c.41.207.583.72.361 1.126l-1.315 2.484a.846.846 0 0 1-.752.458m-2.947 5.613a.858.858 0 0 1-.395-.1.818.818 0 0 1-.366-1.118l1.305-2.494a.848.848 0 0 1 1.157-.35c.42.187.573.706.366 1.102l-1.316 2.497a.823.823 0 0 1-.751.463m-2.962 5.599a.837.837 0 0 1-.38-.08.84.84 0 0 1-.371-1.134l1.315-2.5c.202-.408.726-.57 1.146-.345a.813.813 0 0 1 .357 1.122l-1.32 2.487a.838.838 0 0 1-.747.45m-2.953 5.608a.929.929 0 0 1-.39-.09c-.41-.22-.573-.733-.365-1.118l1.315-2.504a.87.87 0 0 1 1.152-.365.848.848 0 0 1 .356 1.137l-1.32 2.491a.822.822 0 0 1-.748.449m-2.956 5.606a.947.947 0 0 1-.385-.087.837.837 0 0 1-.371-1.127l1.325-2.5a.84.84 0 0 1 1.142-.35c.4.2.569.716.351 1.127l-1.31 2.492a.83.83 0 0 1-.752.445m-.38 6.233a.846.846 0 0 1-.85-.842l-.006-2.805c0-.458.39-.841.85-.838a.84.84 0 0 1 .85.833l.01 2.81a.85.85 0 0 1-.854.842m.01 6.323a.864.864 0 0 1-.86-.845l.004-2.804c-.005-.462.38-.839.846-.849.47-.003.845.39.845.849l-.004 2.8c0 .454-.372.85-.832.85m-.014 6.299a.84.84 0 0 1-.85-.83l.01-2.815c0-.456.375-.825.845-.82.47.004.845.364.845.83v2.802c.01.463-.376.833-.85.833m.005 6.32a.84.84 0 0 1-.85-.843l.004-2.802a.832.832 0 0 1 .846-.832.83.83 0 0 1 .845.83l-.004 2.803a.836.836 0 0 1-.841.845m-.005 6.312a.841.841 0 0 1-.846-.827l-.005-2.813c0-.47.38-.84.856-.84a.84.84 0 0 1 .845.84v2.82c0 .445-.38.82-.85.82m.005 6.318a.84.84 0 0 1-.85-.835l-.006-2.804a.85.85 0 0 1 1.7 0l-.008 2.797a.832.832 0 0 1-.836.842m-.005 6.325c-.47 0-.85-.39-.85-.837V104.1c0-.462.38-.839.855-.844.46.005.84.38.84.843l.005 2.815a.86.86 0 0 1-.85.835m.005 6.298c-.48.005-.866-.365-.856-.833v-2.803c0-.463.375-.827.846-.825.47 0 .85.362.85.834l-.004 2.8a.824.824 0 0 1-.836.827m-.01 6.33a.85.85 0 0 1-.856-.842l.01-2.806c0-.468.38-.84.85-.835a.846.846 0 0 1 .85.835l-.003 2.806c0 .462-.377.83-.851.842m0 6.308a.843.843 0 0 1-.846-.828v-2.815a.848.848 0 1 1 1.696 0l-.004 2.813a.842.842 0 0 1-.846.83M70.86 133a.844.844 0 0 1-.861-.837l.01-2.803c0-.45.375-.835.846-.832.47-.009.85.379.85.835l-.004 2.797a.83.83 0 0 1-.841.84M71.017 138c-.561 0-1.017-.359-1.017-.81v-1.384c0-.435.456-.808 1.011-.806.556 0 .989.368.989.803v1.385c.012.45-.44.81-.983.812M29.98 120a1.097 1.097 0 0 1-.607-.167c-.423-.316-.497-.88-.166-1.269l1.036-1.212c.337-.398.955-.47 1.379-.157.417.319.514.875.165 1.264l-1.035 1.217c-.2.217-.492.329-.772.324M66.287 73.003a.898.898 0 0 1-.516-.182.825.825 0 0 1-.147-1.157l1.857-2.34c.3-.368.836-.433 1.194-.14a.812.812 0 0 1 .143 1.161l-1.858 2.348a.908.908 0 0 1-.673.31m-4.18 5.246a.753.753 0 0 1-.502-.173.816.816 0 0 1-.153-1.171l1.858-2.33a.865.865 0 0 1 1.199-.148c.358.29.422.815.128 1.17l-1.852 2.333a.834.834 0 0 1-.679.319m-4.18 5.247a.78.78 0 0 1-.507-.172c-.364-.282-.448-.808-.137-1.174l1.837-2.335c.305-.349.83-.419 1.194-.131a.832.832 0 0 1 .152 1.169l-1.867 2.33a.838.838 0 0 1-.673.313m-4.171 5.257c-.193 0-.374-.045-.521-.183a.832.832 0 0 1-.152-1.167l1.866-2.332a.873.873 0 0 1 1.199-.138c.354.286.418.8.138 1.17l-1.867 2.33a.844.844 0 0 1-.663.32m-4.187 5.25a.757.757 0 0 1-.516-.18c-.359-.286-.442-.807-.147-1.17l1.857-2.331a.867.867 0 0 1 1.194-.136.814.814 0 0 1 .148 1.158l-1.873 2.345a.82.82 0 0 1-.663.315m-4.181 5.25a.84.84 0 0 1-.668-1.348l1.881-2.336c.266-.359.796-.414 1.16-.138a.812.812 0 0 1 .147 1.167l-1.847 2.333a.866.866 0 0 1-.673.322m-4.172 5.255a.864.864 0 0 1-.526-.175.825.825 0 0 1-.132-1.169l1.852-2.338a.839.839 0 0 1 1.18-.143c.373.29.427.806.146 1.165l-1.857 2.336a.876.876 0 0 1-.663.324m-4.18 5.25c-.192.008-.37-.068-.532-.183a.826.826 0 0 1-.147-1.165l1.862-2.338a.87.87 0 0 1 1.204-.14c.353.283.423.81.137 1.171l-1.862 2.338c-.172.201-.428.325-.663.316M32.841 115a.874.874 0 0 1-.52-.166.818.818 0 0 1-.133-1.17l1.848-2.334a.868.868 0 0 1 1.199-.14c.348.282.432.8.132 1.165l-1.857 2.338a.868.868 0 0 1-.669.307"/>
        <path fill="#FAF5C1" d="M71.238 68a.751.751 0 0 1-.65-.435l-.112-.186-.107.173c-.258.378-.747.433-1.068.147-.342-.292-.4-.841-.133-1.21l.8-1.158a.731.731 0 0 1 .664-.328c.254.01.48.188.601.418l.66 1.27c.217.423.092.946-.268 1.185a.678.678 0 0 1-.387.124M75.322 74.203a.847.847 0 0 1-.717-.408l-1.498-2.534a.85.85 0 0 1 .317-1.149.848.848 0 0 1 1.142.294l1.488 2.553a.816.816 0 0 1-.308 1.137.775.775 0 0 1-.424.107m3.365 5.731a.833.833 0 0 1-.727-.408l-1.492-2.549a.831.831 0 0 1 .307-1.144.825.825 0 0 1 1.136.301l1.497 2.549a.84.84 0 0 1-.302 1.142.797.797 0 0 1-.419.109m3.355 5.719a.834.834 0 0 1-.726-.408l-1.493-2.55a.847.847 0 0 1 .297-1.143.85.85 0 0 1 1.152.306l1.477 2.536a.83.83 0 0 1-.283 1.147.814.814 0 0 1-.424.112m3.345 5.726a.901.901 0 0 1-.727-.404l-1.477-2.548a.827.827 0 0 1 .293-1.144.859.859 0 0 1 1.16.291l1.478 2.549a.84.84 0 0 1-.293 1.14.827.827 0 0 1-.434.116m3.36 5.73a.83.83 0 0 1-.716-.425l-1.502-2.533c-.24-.413-.112-.916.307-1.142a.822.822 0 0 1 1.137.298l1.506 2.545a.839.839 0 0 1-.302 1.141.976.976 0 0 1-.43.116m3.356 5.721a.814.814 0 0 1-.712-.425l-1.512-2.54a.844.844 0 0 1 .307-1.138c.4-.225.922-.094 1.141.301l1.493 2.537a.813.813 0 0 1-.302 1.14.687.687 0 0 1-.415.125m3.36 5.722a.877.877 0 0 1-.731-.413l-1.492-2.543a.854.854 0 0 1 .292-1.145.846.846 0 0 1 1.16.304l1.487 2.548c.245.391.1.896-.297 1.128a.728.728 0 0 1-.419.12m3.346 5.717a.787.787 0 0 1-.717-.41l-1.488-2.539a.824.824 0 0 1 .297-1.15.819.819 0 0 1 1.132.3l1.502 2.548a.844.844 0 0 1-.301 1.144.892.892 0 0 1-.425.107m3.36 5.732a.82.82 0 0 1-.722-.423l-1.492-2.546a.806.806 0 0 1 .298-1.123.853.853 0 0 1 1.155.28l1.477 2.555c.23.394.107.91-.297 1.137a.706.706 0 0 1-.419.12M104.309 124c-.253-.003-.48-.154-.607-.43l-.603-1.277c-.204-.408-.078-.938.244-1.173.338-.24.766-.11.953.308l.608 1.274c.195.406.085.932-.258 1.185a.555.555 0 0 1-.337.113M5.818 89.995a.797.797 0 0 1-.768-.513c-.155-.402.063-.85.497-.986l1.339-.458c.43-.127.913.07 1.068.48.15.402-.077.86-.522 1.005l-1.329.432a.57.57 0 0 1-.285.04M64.522 69.647a.808.808 0 0 1-.784-.556c-.15-.445.067-.926.493-1.077l2.655-.966a.828.828 0 0 1 1.066.524c.15.435-.062.927-.504 1.079l-2.654.957a.69.69 0 0 1-.272.04m-5.954 2.157a.84.84 0 0 1-.799-.574.856.856 0 0 1 .504-1.08l2.66-.954c.426-.15.896.084 1.06.524a.845.845 0 0 1-.513 1.077l-2.66.951a.635.635 0 0 1-.252.056m-5.983 2.153a.853.853 0 0 1-.79-.568.871.871 0 0 1 .514-1.08l2.65-.956a.806.806 0 0 1 1.052.507c.16.444-.049.932-.495 1.089l-2.65.958a.998.998 0 0 1-.28.05m-5.954 2.141a.868.868 0 0 1-.79-.555c-.15-.457.082-.937.494-1.093L49 73.498a.828.828 0 0 1 1.056.521c.15.438-.057.927-.503 1.085l-2.65.95c-.097.033-.194.038-.271.045m-5.979 2.154a.825.825 0 0 1-.784-.57c-.136-.44.082-.927.518-1.082l2.655-.948a.806.806 0 0 1 1.051.511c.15.443-.077.935-.499 1.089l-2.664.951a.642.642 0 0 1-.277.049M34.7 80.405a.831.831 0 0 1-.789-.578.859.859 0 0 1 .508-1.08l2.65-.953a.835.835 0 0 1 1.07.522.863.863 0 0 1-.517 1.084l-2.655.95a.702.702 0 0 1-.267.055m-5.963 2.15a.844.844 0 0 1-.795-.572c-.14-.446.068-.924.514-1.08l2.645-.944a.822.822 0 0 1 1.07.508c.15.43-.087.919-.523 1.084l-2.64.959c-.087.017-.184.044-.271.044m-5.968 2.144a.821.821 0 0 1-.771-.567.833.833 0 0 1 .485-1.078l2.66-.961a.826.826 0 0 1 1.055.517c.155.444-.067.94-.503 1.084l-2.651.96c-.101.041-.189.043-.275.045m-5.97 2.157a.837.837 0 0 1-.784-.576c-.145-.429.078-.928.514-1.074l2.65-.961a.833.833 0 0 1 1.061.52.86.86 0 0 1-.509 1.086l-2.65.946a.798.798 0 0 1-.281.06M10.84 89a.826.826 0 0 1-.784-.566.825.825 0 0 1 .503-1.078l2.65-.96a.82.82 0 0 1 1.06.52.83.83 0 0 1-.508 1.072l-2.64.964a.785.785 0 0 1-.28.048"/>
        <path fill="#FAF5C1" d="M73.208 67a.832.832 0 0 1-.438-.12l-.811-.44-.909.276c-.401.122-.857-.067-1-.427-.153-.348.06-.736.475-.855l1.282-.396a.952.952 0 0 1 .71.072l1.125.65c.365.202.475.626.217.939-.143.202-.401.301-.65.301M78.14 71.183a.9.9 0 0 1-.444-.13l-2.329-1.518a.86.86 0 0 1-.235-1.165.828.828 0 0 1 1.163-.22l2.324 1.512c.396.262.503.773.23 1.156-.157.242-.42.363-.708.365m5.234 3.42a.83.83 0 0 1-.45-.123l-2.333-1.532c-.386-.244-.479-.775-.235-1.147a.843.843 0 0 1 1.163-.238l2.324 1.516a.85.85 0 0 1 .235 1.159.81.81 0 0 1-.704.365m5.225 3.431a.772.772 0 0 1-.464-.143l-2.31-1.518a.825.825 0 0 1-.254-1.147.86.86 0 0 1 1.182-.24l2.305 1.52c.391.252.493.763.24 1.155a.834.834 0 0 1-.7.373m5.216 3.421a.75.75 0 0 1-.458-.14l-2.32-1.506c-.376-.269-.498-.787-.24-1.164a.863.863 0 0 1 1.173-.238l2.304 1.513c.4.271.504.787.244 1.164a.835.835 0 0 1-.703.371m5.235 3.423a.902.902 0 0 1-.464-.141l-2.329-1.515a.832.832 0 0 1-.234-1.152.84.84 0 0 1 1.166-.23l2.32 1.51a.852.852 0 0 1 .24 1.16.837.837 0 0 1-.699.368m5.22 3.43a.94.94 0 0 1-.459-.133l-2.33-1.525a.825.825 0 0 1-.224-1.162c.244-.38.766-.482 1.153-.228l2.32 1.525c.394.24.492.76.239 1.142a.848.848 0 0 1-.7.381m5.221 3.425a.856.856 0 0 1-.463-.14l-2.32-1.527a.814.814 0 0 1-.234-1.148c.243-.399.776-.486 1.157-.237l2.319 1.512c.39.262.494.783.235 1.165-.167.233-.415.38-.694.375m5.225 3.417a.892.892 0 0 1-.464-.141l-2.324-1.52a.832.832 0 1 1 .932-1.38l2.325 1.509a.835.835 0 0 1-.47 1.532m5.216 3.415a.875.875 0 0 1-.454-.121l-2.325-1.525a.822.822 0 0 1-.239-1.152.843.843 0 0 1 1.158-.245l2.333 1.52a.837.837 0 0 1 .24 1.152.834.834 0 0 1-.713.37m5.23 3.436a.926.926 0 0 1-.469-.138l-2.31-1.522a.819.819 0 0 1-.238-1.153.854.854 0 0 1 1.161-.24l2.31 1.526c.4.249.503.772.244 1.155a.845.845 0 0 1-.698.372M129.124 104a1.246 1.246 0 0 1-.478-.104l-1.26-.647c-.401-.214-.502-.638-.244-.944.265-.315.823-.395 1.21-.198l1.26.65c.4.207.508.622.243.937-.173.2-.452.3-.731.306M10.163 47a.918.918 0 0 1-.342-.065l-1.326-.515c-.421-.165-.611-.602-.421-.976.19-.37.69-.55 1.105-.38l1.332.51c.41.174.602.602.42.977-.132.274-.44.449-.768.449"/>
        <path fill="#FAF5C1" d="M15.503 49.85a.614.614 0 0 1-.317-.084L12.5 48.608a.851.851 0 0 1-.429-1.11c.185-.41.683-.62 1.102-.424l2.677 1.156a.86.86 0 0 1 .42 1.115.843.843 0 0 1-.766.504m6.013 2.63a1.5 1.5 0 0 1-.35-.068l-2.658-1.176c-.425-.188-.62-.682-.425-1.104.186-.42.663-.617 1.102-.42l2.658 1.16c.424.186.614.691.433 1.101a.813.813 0 0 1-.76.508m5.999 2.63a1.446 1.446 0 0 1-.351-.064l-2.648-1.174c-.435-.18-.63-.685-.435-1.102.18-.424.669-.62 1.103-.424l2.662 1.153c.43.21.61.689.44 1.115a.855.855 0 0 1-.771.495m5.988 2.647a.766.766 0 0 1-.331-.078l-2.663-1.164a.85.85 0 0 1-.434-1.11c.2-.438.687-.628 1.102-.436l2.677 1.173c.42.188.629.674.434 1.102a.878.878 0 0 1-.785.513m103.809.62a.82.82 0 0 1-.815-.659.839.839 0 0 1 .649-1l2.852-.605c.45-.086.888.2.986.659a.823.823 0 0 1-.644.978l-2.853.614c-.064.008-.127.018-.175.013m-6.414 1.358a.839.839 0 0 1-.828-.667.838.838 0 0 1 .653-.987l2.844-.614a.847.847 0 0 1 1.004.653.84.84 0 0 1-.644.986l-2.863.61a.506.506 0 0 1-.166.02m-91.387.639a.612.612 0 0 1-.332-.076l-2.668-1.168a.837.837 0 0 1-.438-1.094.86.86 0 0 1 1.112-.439l2.663 1.179c.433.175.614.685.433 1.105a.777.777 0 0 1-.77.493m84.98.714a.836.836 0 0 1-.176-1.654l2.853-.609c.449-.086.903.2.975.648a.835.835 0 0 1-.638 1.001l-2.844.604c-.063.005-.121.008-.17.01m-6.413 1.372a.821.821 0 0 1-.814-.674.83.83 0 0 1 .644-.997l2.838-.611a.844.844 0 0 1 .99.655c.117.45-.186.892-.639.99l-2.858.612c-.048.01-.112.023-.161.025m-72.564.556a1.238 1.238 0 0 1-.327-.067l-2.667-1.176a.843.843 0 0 1-.434-1.107.842.842 0 0 1 1.101-.434l2.668 1.181c.42.178.615.67.424 1.1-.117.31-.438.503-.765.503m66.142.802a.853.853 0 0 1-.815-.666.854.854 0 0 1 .654-1.002l2.838-.596a.82.82 0 0 1 .99.639.834.834 0 0 1-.644 1.003l-2.838.6c-.063.01-.127.022-.185.022m-6.408 1.354a.861.861 0 0 1-.824-.664.857.857 0 0 1 .643-.998l2.858-.602c.458-.088.902.198.99.644a.822.822 0 0 1-.649.993l-2.853.6a1.143 1.143 0 0 1-.165.027m-53.726.486a.906.906 0 0 1-.332-.082l-2.672-1.163a.853.853 0 0 1-.434-1.11.844.844 0 0 1 1.107-.436l2.657 1.176a.843.843 0 0 1 .445 1.105.854.854 0 0 1-.77.51m47.307.865a.822.822 0 0 1-.815-.661.832.832 0 0 1 .644-.997l2.844-.593a.843.843 0 0 1 1 .644c.088.451-.201.895-.64.987l-2.857.598c-.049.022-.113.02-.176.022m-6.408 1.369a.883.883 0 0 1-.829-.668.858.858 0 0 1 .658-.998l2.844-.598c.468-.095.907.18.995.632.092.46-.186.912-.644.998l-2.848.607a1.38 1.38 0 0 1-.176.027m-34.897.385a.654.654 0 0 1-.341-.066l-2.668-1.173a.847.847 0 0 1-.424-1.098.843.843 0 0 1 1.107-.43l2.653 1.171c.429.184.634.69.439 1.104a.81.81 0 0 1-.766.492m28.48.966a.859.859 0 0 1-.829-.66.86.86 0 0 1 .658-1.005l2.853-.596a.838.838 0 0 1 .99.646.83.83 0 0 1-.644.984l-2.843.614c-.063.008-.117.023-.185.017m-6.403 1.354a.82.82 0 0 1-.82-.667.833.833 0 0 1 .64-.992l2.852-.604a.832.832 0 0 1 .985.648.841.841 0 0 1-.634 1l-2.853.598c-.058.017-.111.015-.17.017m-16.073.325a.96.96 0 0 1-.322-.07l-2.683-1.179a.839.839 0 0 1-.434-1.098.824.824 0 0 1 1.107-.431l2.668 1.17c.429.175.62.666.434 1.099a.824.824 0 0 1-.77.509m9.655 1.033a.845.845 0 0 1-.824-.675.818.818 0 0 1 .653-.97l2.848-.618a.83.83 0 0 1 .99.65c.112.463-.19.9-.639.997l-2.853.597a.912.912 0 0 1-.175.02M68.288 73a1.289 1.289 0 0 1-.342-.066l-1.428-.626a.863.863 0 0 1-.424-1.116.86.86 0 0 1 1.106-.424l1.176.517 1.077-.231c.444-.103.888.192.99.653a.843.843 0 0 1-.658.983l-1.332.288a.745.745 0 0 1-.165.022M143.824 57a.833.833 0 0 1-.809-.678c-.084-.444.191-.914.637-1.002l1.37-.301a.796.796 0 0 1 .959.65c.095.462-.176.908-.613 1l-1.359.3a.51.51 0 0 1-.185.031M28.33 18a.686.686 0 0 1-.543-.335c-.736-1.33-.787-1.45-.787-1.79 0-.484.31-.875.669-.875.294 0 .537.24.63.548.04.089.165.34.575 1.044.211.396.152.934-.141 1.237a.657.657 0 0 1-.402.171M32.632 22.97a.832.832 0 0 1-.67-.317c-.647-.845-1.253-1.59-1.786-2.293a.838.838 0 0 1 .166-1.19.83.83 0 0 1 1.16.153c.543.693 1.139 1.467 1.795 2.291.284.365.2.914-.156 1.195a.848.848 0 0 1-.51.162m4.018 5.146a.824.824 0 0 1-.656-.321c-.626-.793-1.218-1.565-1.786-2.297a.825.825 0 0 1 .138-1.17.839.839 0 0 1 1.174.135c.582.732 1.174 1.503 1.805 2.286a.85.85 0 0 1-.152 1.185.899.899 0 0 1-.523.182m4.065 5.115a.861.861 0 0 1-.675-.308c-.611-.775-1.213-1.534-1.8-2.282a.853.853 0 0 1 .146-1.19.823.823 0 0 1 1.17.14c.591.75 1.188 1.501 1.81 2.287.279.362.225.903-.142 1.185a.986.986 0 0 1-.509.168m4.042 5.122c-.25.002-.495-.086-.646-.321l-1.82-2.277a.854.854 0 0 1 .132-1.172.842.842 0 0 1 1.19.127l1.81 2.274a.87.87 0 0 1-.143 1.193.837.837 0 0 1-.523.176m4.05 5.114a.834.834 0 0 1-.66-.318l-1.81-2.283a.831.831 0 0 1 .162-1.164.806.806 0 0 1 1.159.136l1.796 2.26a.83.83 0 0 1-.117 1.18.878.878 0 0 1-.53.189m4.072 5.104c-.26 0-.505-.09-.66-.318l-1.807-2.262c-.288-.373-.24-.906.128-1.188.366-.281.91-.232 1.194.143l1.79 2.256a.826.826 0 0 1-.132 1.18.71.71 0 0 1-.513.19m4.06 5.123a.842.842 0 0 1-.66-.33l-1.796-2.273a.82.82 0 0 1 .123-1.17.846.846 0 0 1 1.184.127l1.805 2.267c.303.377.24.891-.147 1.17a.764.764 0 0 1-.51.209m4.067 5.085a.814.814 0 0 1-.65-.308l-1.821-2.279a.826.826 0 0 1 .142-1.17.846.846 0 0 1 1.184.128l1.8 2.271a.829.829 0 0 1-.122 1.176.764.764 0 0 1-.533.182m4.071 5.11a.852.852 0 0 1-.651-.309l-1.815-2.273a.847.847 0 0 1 .132-1.188.83.83 0 0 1 1.18.14l1.814 2.274a.85.85 0 0 1-.127 1.185.853.853 0 0 1-.533.17M69.15 69a.882.882 0 0 1-.66-.308l-1.815-2.282a.85.85 0 0 1 .141-1.178.84.84 0 0 1 1.175.135l1.825 2.26c.288.38.234.893-.137 1.187a.858.858 0 0 1-.529.186"/>
        <path fill="#FAF5C1" d="M71.897 73c-.027-.003-.053-.005-.096-.016a.922.922 0 0 1-.623-.318l-.974-1.208a.887.887 0 0 1 .138-1.266.927.927 0 0 1 1.283.15l.384.479.463-.396a.941.941 0 0 1 1.31.09.896.896 0 0 1-.107 1.275l-1.188 1a.987.987 0 0 1-.59.21M119.985 31.518a.854.854 0 0 1-.645-.285.861.861 0 0 1 .093-1.194l2.189-1.847a.844.844 0 0 1 1.176.103.816.816 0 0 1-.097 1.167l-2.174 1.859a.805.805 0 0 1-.542.197m-4.908 4.153a.766.766 0 0 1-.635-.284.85.85 0 0 1 .088-1.174l2.188-1.861c.341-.287.879-.239 1.187.106a.834.834 0 0 1-.103 1.174l-2.174 1.842a.777.777 0 0 1-.551.197m-4.905 4.175a.83.83 0 0 1-.635-.277.853.853 0 0 1 .088-1.195l2.193-1.845c.333-.304.865-.248 1.172.09a.822.822 0 0 1-.092 1.174l-2.178 1.844c-.167.137-.352.222-.548.21m-4.908 4.17c-.235.005-.465-.111-.636-.287a.852.852 0 0 1 .089-1.193l2.187-1.847a.838.838 0 0 1 1.183.104c.297.331.259.86-.098 1.167l-2.173 1.847a.855.855 0 0 1-.552.209m-4.895 4.159a.864.864 0 0 1-.645-.285.852.852 0 0 1 .093-1.198L102 44.856c.342-.308.88-.253 1.182.092.289.345.264.88-.092 1.179l-2.179 1.845a.843.843 0 0 1-.542.204m-4.909 4.168a.906.906 0 0 1-.65-.29.842.842 0 0 1 .103-1.182l2.178-1.856a.856.856 0 0 1 1.192.098c.298.34.235.872-.098 1.179l-2.173 1.842a.853.853 0 0 1-.552.21m-4.909 4.162a.884.884 0 0 1-.65-.285.862.862 0 0 1 .107-1.19l2.175-1.859a.87.87 0 0 1 1.191.09c.288.371.26.886-.087 1.2l-2.184 1.847a.887.887 0 0 1-.552.197m-4.9 4.159a.834.834 0 0 1-.639-.297.816.816 0 0 1 .093-1.169l2.183-1.857a.863.863 0 0 1 1.177.086c.313.37.264.889-.083 1.193l-2.198 1.85a.813.813 0 0 1-.532.194m-4.914 4.177a.826.826 0 0 1-.63-.3.839.839 0 0 1 .093-1.187l2.174-1.837c.356-.302.888-.263 1.177.09a.829.829 0 0 1-.088 1.17l-2.18 1.847a.839.839 0 0 1-.546.217M75.834 69a.815.815 0 0 1-.64-.295.847.847 0 0 1 .098-1.178l2.183-1.85a.847.847 0 0 1 1.182.085.846.846 0 0 1-.088 1.186l-2.188 1.85a.907.907 0 0 1-.547.202M124.898 28a.883.883 0 0 1-.687-.348 1.02 1.02 0 0 1 .095-1.35l1.194-1.082a.877.877 0 0 1 1.28.127c.328.397.285 1.005-.1 1.335l-1.19 1.097a.94.94 0 0 1-.592.221M65.073 6c-.48 0-.874-.321-.934-.745l-.135-1.37c-.048-.458.33-.843.848-.883.502-.03.96.286 1.004.737l.14 1.374c.05.434-.33.836-.836.87-.028.02-.06.017-.087.017M66.177 12.473c-.456-.005-.849-.319-.89-.757l-.283-2.804c-.047-.453.324-.854.812-.908.497-.044.942.305.974.757l.283 2.811c.041.455-.315.86-.827.904-.026-.003-.042-.008-.07-.003zm.618 6.321c-.455 0-.853-.328-.895-.763l-.284-2.808c-.046-.455.32-.85.823-.907.497-.045.938.298.98.768l.267 2.8c.047.448-.31.866-.807.903-.036.015-.068.015-.084.007zm.613 6.311c-.461 0-.849-.317-.9-.755l-.262-2.806c-.053-.46.309-.869.805-.918.498-.037.933.317.985.775l.267 2.799c.042.47-.314.86-.822.905h-.073zm.608 6.316c-.451-.002-.849-.328-.896-.761l-.262-2.811c-.053-.454.314-.863.806-.902.493-.051.938.29.99.767l.272 2.797c.037.46-.324.865-.832.908-.016.007-.047.005-.078.002zm.628 6.31c-.46 0-.865-.315-.896-.75l-.277-2.806c-.053-.461.308-.868.811-.91.493-.052.938.294.985.755l.262 2.817c.058.443-.304.85-.807.9 0 0-.052-.002-.078-.007zm.613 6.315c-.462 0-.848-.314-.906-.762l-.262-2.796c-.048-.465.324-.855.8-.915.514-.044.944.296.98.76l.283 2.802c.047.466-.325.867-.812.916-.031-.005-.052-.005-.083-.005zm.612 6.315c-.471.002-.858-.322-.885-.75l-.288-2.807a.862.862 0 0 1 .811-.915c.51-.044.943.301.985.757l.278 2.806c.03.46-.325.865-.822.909h-.079zm.618 6.313c-.466.005-.849-.314-.895-.755l-.278-2.81c-.053-.458.324-.863.807-.907.513-.041.943.292.99.76l.272 2.801c.03.465-.325.87-.818.916a.141.141 0 0 1-.078-.005zm.618 6.324c-.471.004-.859-.325-.895-.762l-.288-2.81a.88.88 0 0 1 .822-.91c.498-.045.932.304.974.749l.277 2.816c.052.47-.308.868-.811.919-.037 0-.063 0-.079-.002zM71.064 67.995c-.483 0-.873-.308-.928-.732l-.13-1.38c-.06-.442.326-.844.836-.88.53-.04.96.287 1.009.735l.145 1.38c.045.45-.33.839-.85.882-.033-.007-.05-.005-.082-.005"/>
        <path fill="#59C0CB" d="M99 67.008C98.99 82.472 86.459 95 70.993 95 55.526 94.99 42.996 82.46 43 66.988 43 51.534 55.546 38.992 71.008 39 86.458 39.005 98.99 51.544 99 67.008"/>
        <path fill="#FFDEA0" d="M97 65.496C96.99 80.142 85.124 92 70.495 92 55.852 91.99 44.005 80.136 44 65.496 44.005 50.855 55.872 39 70.51 39 85.138 39 96.99 50.87 97 65.496"/>
    </g>
</svg>
