<svg xmlns="http://www.w3.org/2000/svg" xmlns:xlink="http://www.w3.org/1999/xlink" width="99" height="99" viewBox="0 0 99 99">
    <defs>
        <path id="a" d="M0 .131h98.596v98.167H0z"/>
    </defs>
    <g fill="none" fill-rule="evenodd">
        <g>
            <mask id="b" fill="#fff">
                <use xlink:href="#a"/>
            </mask>
            <path fill="#59C0CB" d="M97.029 36.151c-1.353-1.09-3.269-1.338-4.905-1.519-2.272-.242-4.596-.027-6.858.265a94.613 94.613 0 0 0-6.595 1.096c-1.547.329-3.054.751-4.545 1.208 1-.884 1.999-1.785 2.98-2.704 3.65-3.488 6.96-7.297 8.796-12.206.736-1.943 1.147-4.884-.443-6.452-.76-.757-1.813-.871-2.778-.978-1.163-.149-2.365.245-3.457.6-3.42 1.113-6.358 3.244-9.163 5.536-2.382 1.946-4.696 3.954-6.837 6.174 1.96-3.463 3.806-6.994 5.339-10.698.99-2.387 1.752-4.895 2.083-7.5.253-1.915.247-4.027-.611-5.773C68.96 1 66.75.644 64.723 1.36c-1.994.715-3.649 2.71-4.934 4.377-1.674 2.175-3.04 4.578-4.297 7.043-1.327 2.574-2.559 5.185-3.561 7.937a59.967 59.967 0 0 0-1.787 5.714c.228-2.392.536-4.786.745-7.194.213-2.668.296-5.384.052-8.05-.232-2.48-1.06-4.806-2.012-7.059C48.019 1.96 46.383.347 44.105.15c-2.1-.183-4.165.978-5.46 2.689-1.225 1.608-1.81 3.612-2.102 5.637a29.406 29.406 0 0 0-.03 7.863c.447 3.56 1.16 7.098 2.07 10.596-.103-.179-.193-.369-.296-.55-2.47-4.49-5.508-8.477-8.94-12.179-1.585-1.722-3.131-3.324-5.027-4.679-1.553-1.111-3.25-2.13-5.159-2.288-4.072-.323-5.656 4.412-5.566 7.924.041 1.384.411 2.729.784 4.046a40.084 40.084 0 0 0 1.825 4.983c1.405 3.17 3.256 6.04 5.38 8.714-2.104-1.282-4.287-2.401-6.552-3.302a29.287 29.287 0 0 0-6.837-1.821c-1.665-.238-3.32-.32-4.927.286-1.623.614-2.78 1.866-3.175 3.663-.457 2.114.855 4.208 2.012 5.76 2.044 2.74 4.731 4.797 7.44 6.736 2.803 2.016 5.988 3.42 9.221 4.427 1.417.436 2.854.759 4.297 1.018a71.124 71.124 0 0 0-9.982 2.788 30.494 30.494 0 0 0-6.27 3.098c-1.746 1.11-3.34 2.373-4.497 4.186-1.064 1.653-1.816 4.514-.196 6.031 1.6 1.494 3.757 2.078 5.827 2.341 3.03.373 6.174-.05 9.172-.485 2.067-.31 4.12-.73 6.155-1.225a83.46 83.46 0 0 0-3.886 4.303c-3.04 3.61-5.72 8.19-5.698 13.175.013 2.285.964 4.386 3.095 5.147 1.835.646 3.905.092 5.628-.663 2.966-1.317 5.57-3.744 7.867-6.07 2.459-2.512 4.532-5.359 6.67-8.188 1.227-1.642 2.313-3.365 3.323-5.143-.71 4.82-.994 9.669-.752 14.543.131 2.558.565 5.06 1.279 7.5.494 1.722 1.067 3.522 1.995 5.022.965 1.577 2.475 2.581 4.298 2.174 1.908-.448 3.091-2.278 3.891-4.037 1.154-2.53 1.672-5.454 2.022-8.217.437-3.463.52-7.044.389-10.532-.026-.64-.064-1.28-.11-1.926 1.463 3.233 3.05 6.374 4.963 9.367.65 1.01 1.311 2.07 2.124 2.954a83.108 83.108 0 0 0 2.877 2.984c1.54 1.508 3.4 3.107 5.556 3.33 1.923.187 3.72-.87 4.385-2.805.752-2.21.026-4.712-.624-6.831-1.36-4.433-3.442-8.639-5.8-12.608a54.421 54.421 0 0 0 4.267 2.837 46.409 46.409 0 0 0 6.508 3.248c1.942.798 3.944 1.578 6.026 1.83 2.077.258 4.442-.341 5.699-2.254 1.07-1.625.797-3.571.116-5.3-1.238-3.17-3.69-5.956-6.046-8.243-2.735-2.651-5.852-4.774-9.002-6.817a56.568 56.568 0 0 0-2.571-1.572c2.796-.5 5.563-1.16 8.298-1.94 4.265-1.215 8.665-2.721 12.573-4.922 1.95-1.1 3.902-2.505 5.152-4.47 1.257-1.982 1.092-4.662-.755-6.132" mask="url(#b)"/>
        </g>
        <path fill="#FAF5C1" d="M66.36 5a.256.256 0 0 1-.165-.066c-.18-.142-.245-.483-.155-.764l.284-.867c.094-.27.309-.382.486-.243.173.142.24.493.15.764l-.281.872c-.065.195-.188.304-.32.304M64.556 8.928a.732.732 0 0 1-.26-.076c-.274-.146-.376-.508-.241-.786l.877-1.745a.542.542 0 0 1 .755-.255.583.583 0 0 1 .247.788l-.874 1.745a.57.57 0 0 1-.504.329m-1.962 3.927a.578.578 0 0 1-.267-.07c-.273-.143-.378-.5-.237-.788l.87-1.742a.56.56 0 0 1 .765-.258.6.6 0 0 1 .244.795l-.877 1.746a.561.561 0 0 1-.498.317m-1.97 3.932a.416.416 0 0 1-.261-.071c-.277-.139-.389-.497-.24-.787l.87-1.745a.564.564 0 0 1 .76-.255.603.603 0 0 1 .252.79l-.887 1.75a.54.54 0 0 1-.495.318m-1.975 3.936a.853.853 0 0 1-.263-.07.605.605 0 0 1-.238-.789l.878-1.746a.548.548 0 0 1 .758-.253.59.59 0 0 1 .247.787l-.874 1.75a.587.587 0 0 1-.508.321m-1.964 3.931a.6.6 0 0 1-.267-.062.618.618 0 0 1-.241-.797l.877-1.747c.155-.294.488-.401.765-.254.274.153.386.509.23.797l-.863 1.754a.57.57 0 0 1-.501.31m-1.975 3.93a.511.511 0 0 1-.256-.06.588.588 0 0 1-.241-.793l.873-1.751a.553.553 0 0 1 .762-.25.596.596 0 0 1 .24.79l-.876 1.744a.56.56 0 0 1-.502.32m-1.965 3.939a.588.588 0 0 1-.507-.854l.87-1.75a.552.552 0 0 1 .772-.247c.28.132.382.496.244.774l-.878 1.752a.546.546 0 0 1-.5.325m-1.975 3.928a.535.535 0 0 1-.254-.056.605.605 0 0 1-.247-.795l.877-1.754a.546.546 0 0 1 .764-.243c.275.144.39.496.238.787l-.88 1.745a.556.556 0 0 1-.498.316m-1.968 3.934a.594.594 0 0 1-.26-.063.605.605 0 0 1-.244-.784l.877-1.757a.566.566 0 0 1 .768-.255c.27.153.378.5.237.797l-.88 1.748a.545.545 0 0 1-.498.314M46.83 44.32a.605.605 0 0 1-.257-.061.602.602 0 0 1-.247-.79l.883-1.755c.145-.29.48-.4.761-.245.267.14.38.502.234.79l-.873 1.749a.55.55 0 0 1-.501.312m-.254 4.373c-.317 0-.564-.264-.567-.59l-.003-1.969c0-.321.26-.59.567-.587.316 0 .567.264.567.584l.006 1.972c0 .33-.257.587-.57.59m.006 4.437a.591.591 0 0 1-.573-.594l.003-1.967a.586.586 0 0 1 .564-.595c.313-.002.564.273.564.595l-.003 1.964c0 .32-.248.597-.555.597m-.01 4.42c-.313.005-.563-.263-.566-.583l.006-1.975c0-.32.251-.579.564-.576a.571.571 0 0 1 .564.583v1.966a.568.568 0 0 1-.567.584m.003 4.435a.575.575 0 0 1-.567-.591l.003-1.966a.57.57 0 0 1 .564-.585.568.568 0 0 1 .564.583l-.003 1.966c0 .332-.248.593-.56.593m-.004 4.43a.576.576 0 0 1-.564-.581l-.003-1.974c0-.33.253-.59.57-.59a.575.575 0 0 1 .564.59v1.978a.575.575 0 0 1-.567.576m.003 4.433a.575.575 0 0 1-.567-.586l-.003-1.967c0-.326.257-.592.564-.592.32.001.57.264.57.592l-.007 1.962a.57.57 0 0 1-.557.59m-.003 4.439a.584.584 0 0 1-.567-.588v-1.972c0-.325.253-.59.57-.593.307.004.56.267.56.591l.004 1.976c-.003.308-.254.586-.567.586m.003 4.418a.565.565 0 0 1-.57-.584v-1.966c0-.325.25-.581.564-.58.313 0 .567.255.567.586l-.004 1.964a.564.564 0 0 1-.557.58m-.006 4.441a.582.582 0 0 1-.571-.59l.007-1.969c0-.328.253-.59.567-.586.31.002.564.258.567.586l-.003 1.968c0 .325-.251.583-.567.591m0 4.426a.576.576 0 0 1-.564-.58v-1.976c0-.324.257-.587.564-.59a.58.58 0 0 1 .567.59l-.004 1.974a.576.576 0 0 1-.563.582m.003 4.43c-.314.008-.574-.26-.574-.586l.007-1.967c0-.316.25-.586.564-.584.313-.006.567.266.567.587l-.004 1.962a.568.568 0 0 1-.56.589M46.509 96c-.281 0-.509-.24-.509-.54v-.923c0-.29.228-.539.506-.537.277 0 .494.246.494.535v.924c.006.3-.22.54-.491.541M19.653 85a.731.731 0 0 1-.404-.111c-.282-.211-.332-.587-.111-.846l.69-.808a.687.687 0 0 1 .92-.105c.278.212.343.583.11.843l-.69.811a.69.69 0 0 1-.515.216M43.24 51.785a.558.558 0 0 1-.334-.127.602.602 0 0 1-.096-.805l1.205-1.628c.195-.256.542-.3.774-.097.24.197.281.557.093.808l-1.205 1.633a.573.573 0 0 1-.437.216m-2.712 3.649a.468.468 0 0 1-.325-.12.595.595 0 0 1-.099-.815l1.205-1.62a.536.536 0 0 1 .778-.104.604.604 0 0 1 .083.814l-1.202 1.624a.527.527 0 0 1-.44.22m-2.712 3.651a.485.485 0 0 1-.328-.12.593.593 0 0 1-.09-.816l1.192-1.625c.198-.242.54-.29.775-.09.24.197.28.561.099.812l-1.211 1.622a.53.53 0 0 1-.437.217m-2.706 3.657a.454.454 0 0 1-.337-.127.607.607 0 0 1-.1-.812l1.211-1.622a.54.54 0 0 1 .778-.096c.23.199.271.556.09.813l-1.211 1.621a.534.534 0 0 1-.43.223m-2.716 3.653a.47.47 0 0 1-.335-.126.604.604 0 0 1-.095-.814l1.204-1.622a.537.537 0 0 1 .775-.094.594.594 0 0 1 .096.806l-1.215 1.63a.519.519 0 0 1-.43.22m-2.712 3.652a.531.531 0 0 1-.332-.121.614.614 0 0 1-.102-.816l1.22-1.626a.514.514 0 0 1 .753-.095.592.592 0 0 1 .096.811l-1.199 1.623a.548.548 0 0 1-.436.224m-2.706 3.656a.536.536 0 0 1-.341-.122.602.602 0 0 1-.086-.813l1.201-1.627a.52.52 0 0 1 .765-.099.6.6 0 0 1 .096.81l-1.205 1.626a.555.555 0 0 1-.43.225m-2.712 3.652a.531.531 0 0 1-.345-.127.603.603 0 0 1-.095-.81l1.208-1.627a.54.54 0 0 1 .78-.098.615.615 0 0 1 .09.815l-1.208 1.627a.552.552 0 0 1-.43.22M21.545 81a.541.541 0 0 1-.337-.115.597.597 0 0 1-.086-.815l1.199-1.623a.537.537 0 0 1 .777-.097.6.6 0 0 1 .086.81l-1.204 1.626a.548.548 0 0 1-.434.214"/>
        <path fill="#FAF5C1" d="M47.492 48a.5.5 0 0 1-.434-.29l-.074-.124-.071.115a.471.471 0 0 1-.712.098.613.613 0 0 1-.09-.807l.535-.771a.487.487 0 0 1 .442-.22c.17.008.32.126.4.28l.44.846c.146.282.062.631-.178.79a.452.452 0 0 1-.258.083M49.548 52.942a.56.56 0 0 1-.478-.285l-.998-1.774a.61.61 0 0 1 .21-.804.55.55 0 0 1 .762.205l.992 1.787c.155.276.071.64-.206.796a.498.498 0 0 1-.282.075m2.243 4.012a.55.55 0 0 1-.484-.286l-.995-1.784a.598.598 0 0 1 .205-.8c.26-.167.601-.069.757.21l.998 1.784a.604.604 0 0 1-.201.8.512.512 0 0 1-.28.076m2.237 4.003a.55.55 0 0 1-.484-.285l-.995-1.785c-.147-.275-.069-.635.198-.8a.552.552 0 0 1 .767.214l.985 1.775a.597.597 0 0 1-.188.803.523.523 0 0 1-.283.078m2.23 4.008a.594.594 0 0 1-.484-.282l-.985-1.784a.595.595 0 0 1 .195-.801.557.557 0 0 1 .774.204l.984 1.784a.605.605 0 0 1-.194.798.532.532 0 0 1-.29.081m2.24 4.011a.55.55 0 0 1-.477-.297l-1.002-1.774c-.16-.288-.075-.64.205-.799.263-.167.598-.073.758.209l1.004 1.781a.604.604 0 0 1-.201.8.627.627 0 0 1-.286.08m2.236 4.005a.54.54 0 0 1-.474-.297l-1.008-1.779a.607.607 0 0 1 .204-.796.545.545 0 0 1 .761.21l.995 1.777a.585.585 0 0 1-.201.797.443.443 0 0 1-.277.088m2.24 4.005a.58.58 0 0 1-.487-.289l-.995-1.78a.615.615 0 0 1 .195-.801.55.55 0 0 1 .774.212l.99 1.784a.583.583 0 0 1-.197.79.468.468 0 0 1-.28.084m2.23 4.002a.52.52 0 0 1-.477-.288l-.992-1.777c-.16-.285-.075-.644.198-.804a.532.532 0 0 1 .754.209l1.002 1.784a.608.608 0 0 1-.201.8.572.572 0 0 1-.283.076M67.446 85a.542.542 0 0 1-.481-.296l-.995-1.783a.58.58 0 0 1 .199-.785.553.553 0 0 1 .77.195l.985 1.79c.152.275.071.636-.198.795a.455.455 0 0 1-.28.084M68.654 87c-.126-.002-.24-.102-.303-.286l-.302-.852c-.102-.272-.038-.625.122-.782.17-.16.384-.073.477.205l.304.85c.098.27.042.621-.129.79a.235.235 0 0 1-.169.075M3.545 63.998c-.222.002-.435-.095-.512-.257-.103-.201.042-.425.332-.493l.892-.229c.287-.063.609.035.712.24.1.201-.051.43-.348.503l-.886.215a.496.496 0 0 1-.19.02M42.722 48.805a.53.53 0 0 1-.515-.38c-.098-.302.045-.63.324-.733l1.74-.66a.538.538 0 0 1 .698.358c.098.296-.041.632-.33.735l-1.74.653a.436.436 0 0 1-.177.027m-3.901 1.471a.553.553 0 0 1-.524-.391.59.59 0 0 1 .33-.736l1.743-.65c.279-.104.587.056.695.356.098.307-.05.631-.337.735l-1.743.648a.402.402 0 0 1-.164.038m-3.92 1.468a.56.56 0 0 1-.518-.388c-.092-.3.057-.629.337-.736l1.736-.651c.282-.108.6.045.689.345.105.303-.032.636-.324.743l-1.736.653a.631.631 0 0 1-.184.034M31 53.204a.57.57 0 0 1-.517-.379c-.099-.311.054-.638.323-.744l1.746-.65c.286-.101.597.055.692.355.098.299-.038.632-.33.74l-1.736.648c-.063.022-.127.025-.178.03m-3.917 1.468a.543.543 0 0 1-.514-.388c-.089-.3.054-.632.34-.738l1.74-.646c.288-.11.59.047.688.348.098.302-.05.638-.327.743l-1.746.648a.406.406 0 0 1-.18.033m-3.902 1.468a.547.547 0 0 1-.517-.395.593.593 0 0 1 .333-.736l1.737-.65a.542.542 0 0 1 .7.356c.1.3-.053.63-.338.74l-1.74.648a.444.444 0 0 1-.175.037m-3.907 1.465a.555.555 0 0 1-.52-.389c-.092-.304.044-.63.336-.737l1.733-.643c.289-.115.597.043.702.346a.602.602 0 0 1-.343.74l-1.73.653c-.057.011-.12.03-.178.03m-3.91 1.462a.54.54 0 0 1-.505-.387c-.108-.299.038-.63.318-.735l1.742-.655c.286-.104.59.053.692.352.102.303-.044.642-.33.74l-1.737.654c-.066.028-.123.03-.18.031m-3.91 1.47a.55.55 0 0 1-.514-.392c-.096-.293.05-.633.336-.732l1.736-.656c.28-.107.596.056.695.354a.594.594 0 0 1-.333.741l-1.736.645a.505.505 0 0 1-.185.04M7.55 62a.544.544 0 0 1-.513-.386.57.57 0 0 1 .33-.735l1.735-.655c.29-.109.6.054.696.355a.572.572 0 0 1-.334.731l-1.73.657A.496.496 0 0 1 7.55 62"/>
        <path fill="#FAF5C1" d="M48.406 47a.874.874 0 0 1-.328-.06l-.609-.22-.682.138c-.3.06-.642-.034-.75-.213-.114-.175.045-.369.357-.428l.96-.198a1.04 1.04 0 0 1 .534.036l.843.325c.274.101.357.313.163.47-.107.1-.3.15-.488.15M53.032 49.247a.548.548 0 0 1-.288-.092l-1.506-1.072a.643.643 0 0 1-.152-.822c.167-.268.505-.347.752-.155l1.504 1.067a.602.602 0 0 1 .148.816.522.522 0 0 1-.458.258m3.387 2.414a.504.504 0 0 1-.29-.087l-1.51-1.081c-.25-.173-.31-.547-.153-.81a.518.518 0 0 1 .753-.168l1.504 1.07a.635.635 0 0 1 .152.818.513.513 0 0 1-.456.258m3.38 2.422a.471.471 0 0 1-.3-.1l-1.493-1.073c-.254-.172-.326-.538-.165-.81a.529.529 0 0 1 .765-.169l1.491 1.073c.253.178.32.54.155.815a.53.53 0 0 1-.452.264m3.375 2.415a.458.458 0 0 1-.297-.1l-1.5-1.062a.636.636 0 0 1-.156-.822.53.53 0 0 1 .758-.168l1.491 1.068a.62.62 0 0 1 .159.822.53.53 0 0 1-.455.262m3.387 2.416a.55.55 0 0 1-.3-.1l-1.507-1.07c-.25-.178-.313-.54-.152-.812a.517.517 0 0 1 .755-.163l1.5 1.066c.25.185.31.542.155.82a.53.53 0 0 1-.451.259m3.377 2.421a.571.571 0 0 1-.297-.094l-1.507-1.076c-.253-.18-.315-.546-.145-.82a.51.51 0 0 1 .746-.161l1.5 1.076c.256.17.32.537.155.806a.539.539 0 0 1-.452.27m3.378 2.417a.521.521 0 0 1-.3-.099l-1.5-1.078a.607.607 0 0 1-.152-.81.509.509 0 0 1 .748-.168l1.501 1.068c.253.185.32.552.152.822-.108.164-.269.268-.449.265m3.38 2.411a.543.543 0 0 1-.3-.1l-1.503-1.072c-.247-.176-.316-.542-.149-.819a.515.515 0 0 1 .752-.155l1.504 1.065c.253.182.313.548.152.817a.525.525 0 0 1-.455.264m3.375 2.411a.53.53 0 0 1-.295-.085l-1.504-1.077a.613.613 0 0 1-.154-.813c.167-.272.502-.349.749-.173l1.51 1.073a.624.624 0 0 1 .155.813.528.528 0 0 1-.461.262M83.456 71a.563.563 0 0 1-.303-.097l-1.495-1.075a.61.61 0 0 1-.154-.814.525.525 0 0 1 .752-.169l1.494 1.077c.26.176.325.545.158.815a.536.536 0 0 1-.452.263M85.416 73a1.07 1.07 0 0 1-.318-.052l-.84-.324c-.268-.107-.335-.318-.163-.471.176-.158.549-.198.806-.1l.84.325c.267.104.339.312.162.469-.115.1-.301.15-.487.153M7.442 33a.795.795 0 0 1-.228-.032l-.884-.258c-.28-.082-.407-.3-.28-.488.126-.185.46-.275.736-.19l.888.255c.274.087.401.3.28.489-.088.137-.293.224-.512.224"/>
        <path fill="#FAF5C1" d="M9.336 34.973a.398.398 0 0 1-.212-.058l-1.791-.802a.598.598 0 0 1-.286-.768c.123-.284.455-.43.734-.294l1.785.8c.28.134.397.477.28.773a.562.562 0 0 1-.51.349m4.008 1.82a.967.967 0 0 1-.234-.047l-1.772-.814a.582.582 0 0 1-.283-.764.54.54 0 0 1 .735-.291l1.772.803c.283.129.41.479.289.762a.542.542 0 0 1-.507.352m4 1.82a.932.932 0 0 1-.235-.044l-1.765-.812a.577.577 0 0 1-.29-.763.539.539 0 0 1 .735-.294l1.775.799a.611.611 0 0 1 .293.771.569.569 0 0 1-.514.343m3.992 1.832a.495.495 0 0 1-.22-.053l-1.776-.806c-.286-.128-.406-.477-.289-.769.133-.303.458-.435.734-.302l1.785.812c.28.13.42.467.29.763a.585.585 0 0 1-.524.355m69.206.43a.552.552 0 0 1-.543-.456.58.58 0 0 1 .433-.693l1.901-.418c.3-.06.592.138.657.455.059.306-.123.618-.43.678l-1.9.425c-.044.005-.086.012-.118.009m-4.275.94a.564.564 0 0 1-.553-.462c-.058-.313.134-.622.436-.683l1.895-.425a.565.565 0 0 1 .67.452.582.582 0 0 1-.43.682l-1.908.423a.326.326 0 0 1-.11.013m-60.926.443a.395.395 0 0 1-.22-.053l-1.78-.809a.588.588 0 0 1-.291-.757.565.565 0 0 1 .741-.304l1.775.817c.289.12.41.474.289.765a.518.518 0 0 1-.514.34m56.654.496a.562.562 0 0 1-.55-.459.58.58 0 0 1 .433-.687l1.902-.421c.299-.06.602.138.65.448a.579.579 0 0 1-.426.693l-1.895.419-.114.007m-4.276.95a.553.553 0 0 1-.542-.468.575.575 0 0 1 .43-.69l1.891-.423a.564.564 0 0 1 .66.453.564.564 0 0 1-.426.686l-1.905.424c-.032.006-.075.015-.108.017m-48.375.385a.799.799 0 0 1-.218-.046l-1.778-.814a.593.593 0 0 1-.29-.767.554.554 0 0 1 .734-.3l1.78.817a.58.58 0 0 1 .282.762.544.544 0 0 1-.51.348m44.094.555a.574.574 0 0 1-.543-.461c-.058-.312.13-.63.436-.694l1.892-.412c.305-.076.598.133.66.442a.578.578 0 0 1-.43.694l-1.891.416c-.042.007-.085.015-.124.015m-4.272.938a.58.58 0 0 1-.55-.46c-.058-.317.14-.626.43-.69l1.905-.417a.559.559 0 0 1 .66.445c.065.323-.124.625-.432.688l-1.903.415a.736.736 0 0 1-.11.019m-35.817.336a.586.586 0 0 1-.221-.057l-1.782-.805a.6.6 0 0 1-.29-.768.555.555 0 0 1 .739-.302l1.771.814a.592.592 0 0 1 .297.765.57.57 0 0 1-.514.353m31.539.599a.553.553 0 0 1-.544-.458c-.068-.308.124-.628.43-.69l1.895-.41a.562.562 0 0 1 .667.445c.059.313-.134.62-.426.684l-1.905.414c-.033.015-.075.014-.117.015m-4.272.948a.594.594 0 0 1-.553-.463.594.594 0 0 1 .439-.69l1.895-.415a.548.548 0 0 1 .664.438c.061.319-.124.631-.43.69l-1.898.42a.889.889 0 0 1-.117.02m-23.265.266a.422.422 0 0 1-.227-.046l-1.779-.811c-.272-.126-.4-.465-.282-.76a.554.554 0 0 1 .738-.298l1.768.81a.584.584 0 0 1 .293.765.54.54 0 0 1-.511.34m18.986.669a.578.578 0 0 1-.552-.457.596.596 0 0 1 .439-.696l1.902-.412a.56.56 0 0 1 .66.447c.061.307-.127.62-.43.681l-1.895.425c-.042.006-.078.016-.124.012m-4.268.937a.552.552 0 0 1-.546-.462.577.577 0 0 1 .426-.686l1.901-.419a.556.556 0 0 1 .657.45.583.583 0 0 1-.423.692l-1.902.414c-.039.011-.074.01-.113.011m-10.716.225a.62.62 0 0 1-.214-.049l-1.789-.815a.59.59 0 0 1-.289-.76.542.542 0 0 1 .738-.3l1.778.81a.579.579 0 0 1 .29.762.55.55 0 0 1-.514.352m6.437.716a.569.569 0 0 1-.55-.467c-.058-.303.128-.617.436-.672l1.9-.428c.298-.066.6.132.66.45a.57.57 0 0 1-.427.69l-1.902.414a.587.587 0 0 1-.117.013M44.525 51a.831.831 0 0 1-.228-.045l-.952-.434a.607.607 0 0 1-.282-.772.565.565 0 0 1 .737-.294l.784.358.718-.16c.296-.072.592.133.66.452a.584.584 0 0 1-.439.68l-.887.2a.48.48 0 0 1-.11.015M95.55 40c-.254 0-.483-.135-.54-.339-.056-.222.127-.457.425-.501l.913-.15c.297-.05.585.095.64.324.063.231-.118.455-.41.5l-.905.15a.445.445 0 0 1-.124.016M18.665 12c-.101-.003-.207-.087-.272-.224-.367-.885-.393-.966-.393-1.192 0-.323.155-.584.335-.584.146 0 .268.16.314.365.02.06.083.227.288.696.105.265.076.623-.07.825-.067.073-.131.11-.202.114M21.71 15.78a.527.527 0 0 1-.435-.223c-.42-.592-.814-1.112-1.16-1.605a.617.617 0 0 1 .107-.833.514.514 0 0 1 .754.107c.353.485.74 1.027 1.167 1.604.185.256.13.64-.102.836a.525.525 0 0 1-.33.114m2.61 3.602a.522.522 0 0 1-.425-.225c-.407-.555-.792-1.095-1.161-1.608a.608.608 0 0 1 .089-.819.52.52 0 0 1 .763.095c.378.512.763 1.052 1.173 1.6a.626.626 0 0 1-.098.83.558.558 0 0 1-.34.127m2.642 3.58a.544.544 0 0 1-.439-.216c-.397-.542-.788-1.073-1.17-1.596a.629.629 0 0 1 .096-.833.51.51 0 0 1 .76.098c.384.525.772 1.05 1.176 1.6.181.254.147.632-.092.83a.61.61 0 0 1-.33.117m2.626 3.586a.46.46 0 0 1-.42-.225l-1.183-1.593c-.178-.25-.143-.625.086-.821a.521.521 0 0 1 .773.089l1.177 1.592a.642.642 0 0 1-.093.834.52.52 0 0 1-.34.124m2.633 3.58a.529.529 0 0 1-.429-.223l-1.177-1.598a.612.612 0 0 1 .106-.815c.225-.207.565-.163.753.095l1.167 1.582a.612.612 0 0 1-.076.826.546.546 0 0 1-.344.132M34.87 33.7a.482.482 0 0 1-.429-.222l-1.174-1.584c-.187-.26-.155-.634.083-.831a.528.528 0 0 1 .776.1l1.164 1.58a.608.608 0 0 1-.086.825.443.443 0 0 1-.334.132m2.64 3.587a.535.535 0 0 1-.43-.23l-1.167-1.592a.603.603 0 0 1 .08-.82.524.524 0 0 1 .77.09l1.173 1.587a.584.584 0 0 1-.095.819.478.478 0 0 1-.332.146m2.644 3.56a.516.516 0 0 1-.423-.216l-1.184-1.595a.608.608 0 0 1 .093-.819.524.524 0 0 1 .77.09l1.17 1.59a.61.61 0 0 1-.08.822.474.474 0 0 1-.346.128m2.646 3.576a.54.54 0 0 1-.423-.215l-1.18-1.592a.625.625 0 0 1 .086-.831.515.515 0 0 1 .766.097l1.18 1.593a.627.627 0 0 1-.083.829.528.528 0 0 1-.346.12M45.448 48a.557.557 0 0 1-.43-.216l-1.18-1.597c-.178-.248-.146-.624.093-.824a.52.52 0 0 1 .763.094l1.187 1.582a.62.62 0 0 1-.09.83.534.534 0 0 1-.343.131"/>
        <path fill="#FAF5C1" d="M47.422 51c-.02-.002-.039-.004-.07-.01a.724.724 0 0 1-.469-.213l-.73-.805c-.24-.26-.192-.636.104-.844a.757.757 0 0 1 .962.1l.288.32.347-.265c.299-.22.739-.19.982.06.252.255.204.635-.08.85l-.89.667a.8.8 0 0 1-.444.14M80.053 22.488a.53.53 0 0 1-.417-.201.65.65 0 0 1 .06-.844l1.414-1.307a.513.513 0 0 1 .76.073.615.615 0 0 1-.063.825l-1.404 1.315a.494.494 0 0 1-.35.14m-3.17 2.937a.477.477 0 0 1-.41-.201.642.642 0 0 1 .057-.83l1.413-1.317c.22-.203.568-.169.766.075a.63.63 0 0 1-.066.83l-1.404 1.304c-.1.1-.234.145-.356.14m-3.168 2.952a.516.516 0 0 1-.41-.196.644.644 0 0 1 .057-.845l1.416-1.305c.215-.215.559-.176.757.064a.62.62 0 0 1-.06.83L74.07 28.23c-.108.097-.227.157-.354.148m-3.17 2.95a.548.548 0 0 1-.41-.203.644.644 0 0 1 .057-.843l1.413-1.307a.51.51 0 0 1 .763.074.62.62 0 0 1-.062.825l-1.404 1.306a.525.525 0 0 1-.357.148m-3.16 2.942a.537.537 0 0 1-.417-.202.643.643 0 0 1 .06-.847l1.41-1.3c.22-.218.567-.178.763.066.186.244.17.622-.06.833l-1.407 1.306a.517.517 0 0 1-.35.144m-3.17 2.948a.564.564 0 0 1-.42-.205.635.635 0 0 1 .066-.836l1.407-1.313c.227-.211.568-.178.77.07.192.24.152.616-.063.833l-1.404 1.303a.524.524 0 0 1-.356.148m-3.17 2.944a.55.55 0 0 1-.42-.2.651.651 0 0 1 .069-.843l1.404-1.315a.528.528 0 0 1 .77.064.663.663 0 0 1-.057.849l-1.41 1.306a.543.543 0 0 1-.357.14m-3.164 2.94a.52.52 0 0 1-.413-.209.615.615 0 0 1 .06-.826l1.41-1.314a.523.523 0 0 1 .76.06.638.638 0 0 1-.053.845l-1.42 1.307a.498.498 0 0 1-.344.138m-3.173 2.955a.517.517 0 0 1-.407-.213.633.633 0 0 1 .06-.84l1.404-1.298a.504.504 0 0 1 .76.063.625.625 0 0 1-.057.828l-1.407 1.306a.517.517 0 0 1-.353.154M51.539 49a.509.509 0 0 1-.414-.208.64.64 0 0 1 .064-.834l1.41-1.308a.514.514 0 0 1 .763.06c.193.25.17.624-.057.839l-1.413 1.308a.557.557 0 0 1-.353.143M82.599 20a.589.589 0 0 1-.459-.232.68.68 0 0 1 .064-.9l.796-.722a.585.585 0 0 1 .853.085c.219.265.19.67-.067.89l-.793.732A.626.626 0 0 1 82.6 20M43.537 5c-.24 0-.438-.214-.467-.497l-.068-.913c-.024-.305.165-.562.424-.589.251-.02.48.191.502.492l.07.916c.025.289-.165.557-.418.58-.014.013-.03.01-.043.01M43.673 9.172c-.26-.004-.485-.226-.51-.537l-.16-1.988c-.028-.322.185-.606.463-.644.284-.032.539.216.557.536l.161 1.994c.024.323-.18.61-.472.64-.015-.001-.024-.005-.04-.001zm.353 4.482c-.26 0-.488-.233-.512-.54l-.162-1.992c-.026-.323.183-.603.47-.644.284-.031.536.212.56.545l.153 1.985c.027.318-.177.615-.461.64-.021.011-.04.011-.048.006zm.35 4.475c-.263 0-.485-.224-.515-.535l-.15-1.99c-.03-.326.177-.616.461-.651.285-.026.533.225.563.55l.153 1.984c.024.333-.18.61-.47.642h-.042zm.347 4.479c-.258-.001-.485-.233-.512-.54l-.15-1.994c-.03-.321.18-.61.462-.64.281-.035.535.207.565.545l.156 1.983c.02.327-.186.613-.476.645-.01.004-.027.002-.045 0zm.36 4.474c-.264 0-.495-.223-.513-.532l-.158-1.99c-.03-.327.176-.615.463-.644.282-.038.536.207.563.535l.15 1.997c.033.314-.174.602-.461.639 0 0-.03-.002-.045-.005zm.35 4.478c-.264 0-.485-.223-.518-.54l-.15-1.983c-.027-.33.185-.606.458-.65.293-.03.539.21.56.54l.16 1.987c.028.33-.184.615-.463.65-.018-.004-.03-.004-.047-.004zm.35 4.478c-.27.001-.491-.229-.506-.532l-.165-1.99c-.021-.33.186-.625.464-.65.29-.03.539.214.562.537l.16 1.99c.017.327-.187.613-.47.645h-.046zm.352 4.476c-.266.004-.484-.222-.51-.535l-.16-1.993c-.03-.325.186-.612.461-.643.293-.03.539.207.566.54l.155 1.985c.018.33-.185.617-.467.65a.066.066 0 0 1-.045-.004zm.354 4.484c-.27.004-.491-.23-.512-.54l-.164-1.992c-.016-.324.191-.622.47-.646.284-.032.532.216.556.532l.158 1.997c.03.333-.176.615-.463.651-.021 0-.037 0-.045-.002zM46.532 47.997c-.241 0-.437-.206-.464-.488l-.065-.92c-.03-.295.163-.563.418-.587.265-.026.48.191.504.49l.073.92c.022.3-.165.56-.425.588-.017-.005-.025-.003-.041-.003"/>
        <path fill="#59C0CB" d="M65 47.505C64.994 58.275 56.938 67 46.995 67 37.052 66.994 28.997 58.267 29 47.492 29 36.729 37.065 27.994 47.005 28c9.933.003 17.99 8.736 17.995 19.505"/>
        <path fill="#FFDEA0" d="M65 46.497C64.994 56.722 57.157 65 47.497 65c-9.67-.006-17.494-8.283-17.497-18.503C30.003 36.276 37.84 28 47.507 28c9.66 0 17.487 8.286 17.493 18.497"/>
    </g>
</svg>
