<svg xmlns="http://www.w3.org/2000/svg" xmlns:xlink="http://www.w3.org/1999/xlink" width="230" height="123" viewBox="0 0 230 123">
    <defs>
        <path id="a" d="M0 .035h229.853V123H0z"/>
    </defs>
    <g fill="none" fill-rule="evenodd" opacity=".45">
        <g transform="matrix(-1 0 0 1 230 0)">
            <mask id="b" fill="#fff">
                <use xlink:href="#a"/>
            </mask>
            <path fill="#B7E0F9" d="M9.902 69.11a10.504 10.504 0 0 1 5.308 1.04c1.637-8.123 8.497-14.48 17.133-15.056a18.63 18.63 0 0 1 6.952.855c1.723-7.791 8.384-13.843 16.718-14.401 8.986-.603 16.88 5.4 19.025 13.86a16.066 16.066 0 0 1 2.034-.219c4.5-.149 8.6 1.702 11.444 4.757 2.561-6.588 8.099-11.712 14.992-13.665-1.623-1.824-2.666-4.117-2.812-6.666-.372-6.424 5.608-11.42 12.555-12.479 3.048-.462 8.43 1.985 9.693 4.322-2.16-9.546 4.894-17.579 15.24-18.188 2.912-.166 10.403 2.345 12.015 4.143 2.198-8.52 6.489-17.378 16.509-17.378 11.664 0 17.49 4.456 20.183 15.935 1.123 4.825-.527 8.678-.545 9.192 8.433-7.39 20.448-.816 22.6 5.94.27-4.054 3.905-5.088 4.971-5.154 8.35-.481 15.47 5.315 15.915 12.949.441 7.646-5.963 14.233-14.31 14.72a16.307 16.307 0 0 1-5.647-.652c-4.075 4.552-10.104 7.61-16.99 8.015-3.656.214-7.15-.337-10.312-1.513-2.086 2.43-4.766 4.408-7.847 5.798.536 1.266.914 2.61 1.103 4.022a14.213 14.213 0 0 1 9.859 13.685c5.041-.076 9.597 2.343 12.43 6.168.641-.18 1.311-.294 1.986-.344 5.375-.358 10.006 3.715 10.36 9.102.362 5.383-3.693 10.03-9.057 10.392a9.506 9.506 0 0 1-3.634-.45c-2.58 3.22-6.434 5.385-10.859 5.68a15.135 15.135 0 0 1-6.651-1.05c-2.433 3.166-6.144 5.31-10.434 5.602-5.924.39-11.25-2.878-13.78-7.872a9.446 9.446 0 0 1-6.922 3.714c-5.07.343-9.487-3.381-10.074-8.397-.065.028-.128.037-.19.066-2.219 9.692-10.694 17.069-21.06 17.406-10.164.325-18.962-6.208-21.978-15.433a22.542 22.542 0 0 1-8.315 1.868c-8.156.27-15.436-3.809-19.678-10.143-3.14 3.614-7.65 6.043-12.79 6.384-7.686.505-14.59-3.72-17.88-10.21-2.084 2.73-5.283 4.58-8.971 4.817-6.586.451-12.307-4.38-13.083-10.89-1.153.55-2.437.898-3.794.984C5.462 90.754.41 86.322.024 80.449c-.39-5.867 4.028-10.94 9.878-11.34" mask="url(#b)"/>
        </g>
        <path fill="#FFF" d="M188.91 75.702c-1.466-.212-4.06.873-4.668 1.923 1.024-4.276-2.39-7.897-7.377-8.19-1.406-.077-5.01 1.03-5.792 1.838-1.072-3.82-3.162-7.802-7.988-7.82-4.691-.021-7.4 1.39-8.917 4.827-1.991-3.776-5.899-6.41-10.462-6.55a12.21 12.21 0 0 0-9.35 3.872c-2.618-6.721-9.044-11.58-16.697-11.835-5.535-.175-10.584 2.092-14.114 5.847-.416-.22-.846-.394-1.281-.582 3.946-1.102 6.91-4.076 7.356-7.779 1.035.416 2.176.677 3.392.747 5.21.305 9.645-3.041 9.895-7.473.257-4.435-4.187-7.905-9.36-8.656-2.257-.329-6.252 1.347-7.182 2.956 1.574-6.579-3.678-12.15-11.367-12.606-2.17-.116-7.718 1.592-8.913 2.83C84.42 23.164 81.212 17.032 73.77 17c-8.65-.03-12.97 3.03-14.927 10.947-.831 3.323.413 5.995.419 6.344-6.277-5.12-15.19-.624-16.759 4.037-.22-2.797-2.92-3.525-3.71-3.58-6.202-.35-11.471 3.63-11.778 8.9-.311 5.275 4.467 9.845 10.666 10.2 1.461.089 2.883-.072 4.194-.43 3.037 3.158 7.53 5.284 12.641 5.584a20.006 20.006 0 0 0 7.651-1.015c2.239 2.422 5.374 4.226 8.998 5.042-4.661 1.71-8.066 6.117-8.237 11.4a12.434 12.434 0 0 0 2.243 7.56 13.609 13.609 0 0 0-1.23.009c-3.037.177-5.702 1.442-7.505 3.315a7.698 7.698 0 0 0-2.478-.258c-3.681.214-6.511 2.927-6.334 6.058.187 3.122 3.31 5.482 6.984 5.271.472-.027 2.078-.46 2.207-2.117.932 2.764 6.217 5.433 9.946 2.39-.007.208-.74 1.79-.257 3.764 1.16 4.7 3.72 6.51 8.859 6.491 4.407-.017 6.324-3.653 7.302-7.14.709.73 4 1.749 5.287 1.671 1.944-.115 3.61-.806 4.823-1.842.461 9.428 8.065 17.077 17.663 17.39 8.294.264 15.478-5.055 17.948-12.573a18.584 18.584 0 0 0 6.797 1.52c8.592.28 16.018-5.32 18.428-13.183a10.41 10.41 0 0 0 5.16 1.552 10.42 10.42 0 0 0 4.148-.714c.687.43 1.42.761 2.222.87 5.069.717 20.347-1.515 21.212-8.772a7.075 7.075 0 0 0 2.212.483c3.376.196 6.258-1.977 6.43-4.85.16-2.882-2.73-5.133-6.084-5.622"/>
    </g>
</svg>
