<svg xmlns="http://www.w3.org/2000/svg" xmlns:xlink="http://www.w3.org/1999/xlink" width="251" height="134" viewBox="0 0 251 134">
    <defs>
        <path id="a" d="M0 .038h250.75V134H0z"/>
    </defs>
    <g fill="none" fill-rule="evenodd" opacity=".45">
        <g>
            <mask id="b" fill="#fff">
                <use xlink:href="#a"/>
            </mask>
            <path fill="#B7E0F9" d="M10.802 75.29a11.472 11.472 0 0 1 5.79 1.134c1.787-8.85 9.27-15.776 18.692-16.403a20.35 20.35 0 0 1 7.583.931c1.88-8.488 9.146-15.08 18.238-15.689 9.803-.656 18.414 5.884 20.754 15.1a17.55 17.55 0 0 1 2.22-.238 16.28 16.28 0 0 1 12.484 5.182c2.794-7.177 8.835-12.759 16.355-14.888-1.771-1.986-2.909-4.484-3.067-7.26-.407-7 6.117-12.442 13.695-13.596 3.325-.504 9.198 2.162 10.575 4.708-2.356-10.399 5.339-19.15 16.625-19.814 3.177-.181 11.35 2.555 13.108 4.513C166.25 9.688 170.932.038 181.863.038c12.725 0 19.08 4.855 22.019 17.36 1.225 5.257-.576 9.454-.595 10.014 9.199-8.051 22.307-.89 24.654 6.471.295-4.416 4.26-5.543 5.423-5.614 9.108-.525 16.876 5.79 17.362 14.106.481 8.33-6.505 15.507-15.61 16.037a17.813 17.813 0 0 1-6.161-.71c-4.446 4.959-11.023 8.29-18.535 8.732-3.988.233-7.8-.367-11.25-1.649-2.275 2.647-5.199 4.802-8.56 6.317a16.97 16.97 0 0 1 1.203 4.381 15.488 15.488 0 0 1 10.726 13.734c.02.392.037.781.03 1.175 5.499-.082 10.47 2.553 13.56 6.72.7-.196 1.43-.32 2.167-.375 5.862-.39 10.915 4.047 11.302 9.916.394 5.864-4.03 10.927-9.88 11.322a10.383 10.383 0 0 1-3.966-.49c-2.814 3.506-7.018 5.865-11.845 6.186a16.531 16.531 0 0 1-7.257-1.143c-2.654 3.45-6.702 5.785-11.382 6.103-6.463.426-12.273-3.135-15.032-8.576a10.308 10.308 0 0 1-7.552 4.046c-5.531.374-10.35-3.683-10.99-9.148-.071.03-.14.04-.208.073-2.42 10.558-11.665 18.595-22.973 18.962-11.088.355-20.687-6.763-23.977-16.813a24.62 24.62 0 0 1-9.07 2.035c-8.898.293-16.84-4.15-21.468-11.05-3.424 3.937-8.345 6.584-13.953 6.955-8.384.55-15.916-4.054-19.504-11.123-2.274 2.974-5.764 4.99-9.788 5.248-7.184.491-13.425-4.772-14.272-11.865a11.274 11.274 0 0 1-4.139 1.072C5.958 98.87.448 94.042.026 87.644-.4 81.252 4.42 75.726 10.802 75.29" mask="url(#b)"/>
        </g>
        <path fill="#FFF" d="M44.634 81.985c1.597-.231 4.422.951 5.084 2.096-1.115-4.66 2.604-8.608 8.036-8.926 1.532-.085 5.458 1.123 6.309 2.002 1.168-4.163 3.444-8.503 8.701-8.524 5.11-.022 8.061 1.515 9.714 5.262 2.168-4.116 6.425-6.987 11.395-7.14 4-.135 7.647 1.508 10.186 4.222 2.851-7.327 9.851-12.622 18.188-12.901 6.029-.191 11.529 2.28 15.374 6.373.453-.239.92-.43 1.395-.634-4.298-1.2-7.527-4.442-8.012-8.479-1.129.453-2.37.738-3.695.814-5.676.332-10.507-3.315-10.78-8.146-.279-4.834 4.562-8.616 10.196-9.435 2.459-.358 6.81 1.468 7.824 3.222-1.715-7.17 4.007-13.243 12.382-13.74 2.364-.127 8.406 1.735 9.708 3.084 1.814-6.416 5.309-13.1 13.416-13.135 9.423-.033 14.129 3.303 16.26 11.932.905 3.622-.45 6.535-.456 6.915 6.837-5.58 16.546-.68 18.255 4.4.239-3.049 3.18-3.842 4.04-3.902 6.757-.382 12.496 3.957 12.83 9.701.34 5.75-4.866 10.732-11.618 11.12-1.591.095-3.14-.08-4.568-.47-3.308 3.442-8.202 5.759-13.77 6.086a21.779 21.779 0 0 1-8.334-1.107c-2.439 2.641-5.854 4.607-9.801 5.496 5.077 1.865 8.785 6.668 8.972 12.427a13.559 13.559 0 0 1-2.443 8.24c.444-.017.892-.014 1.34.01 3.308.192 6.21 1.571 8.175 3.614a8.38 8.38 0 0 1 2.699-.282c4.01.233 7.093 3.19 6.9 6.603-.204 3.403-3.605 5.976-7.608 5.746-.514-.03-2.264-.502-2.404-2.308-1.016 3.013-6.772 5.922-10.834 2.606.007.226.806 1.95.28 4.102-1.263 5.124-4.052 7.096-9.65 7.076-4.8-.02-6.888-3.982-7.954-7.784-.772.796-4.357 1.907-5.759 1.822-2.117-.126-3.932-.878-5.254-2.008-.502 10.277-8.785 18.614-19.24 18.955-9.035.288-16.86-5.51-19.55-13.704a20.232 20.232 0 0 1-7.404 1.656c-9.36.306-17.448-5.798-20.073-14.369a11.334 11.334 0 0 1-5.62 1.691 11.343 11.343 0 0 1-4.52-.777c-.748.468-1.547.83-2.42.948-5.521.782-22.164-1.651-23.106-9.562a7.703 7.703 0 0 1-2.409.527c-3.678.213-6.818-2.155-7.004-5.287-.175-3.141 2.974-5.595 6.627-6.128"/>
    </g>
</svg>
