<svg xmlns="http://www.w3.org/2000/svg" width="31" height="31" viewBox="0 0 31 31">
    <path fill="#AACC23" fill-rule="nonzero" d="M26.46 4.54A15.399 15.399 0 0 1 31 15.5c0 4.14-1.612 8.033-4.54 10.96A15.398 15.398 0 0 1 15.5 31c-4.14 0-8.033-1.612-10.96-4.54A15.398 15.398 0 0 1 0 15.5c0-4.14 1.612-8.033 4.54-10.96A15.399 15.399 0 0 1 15.5 0c4.14 0 8.033 1.612 10.96 4.54zM15.5 29.184c7.545 0 13.684-6.139 13.684-13.684 0-7.545-6.139-13.684-13.684-13.684-7.545 0-13.684 6.139-13.684 13.684 0 7.545 6.139 13.684 13.684 13.684zm8.223-18.905c.37.372.37.976 0 1.348l-9.034 9.094a.941.941 0 0 1-1.34 0l-5.072-5.106a.958.958 0 0 1 0-1.349.943.943 0 0 1 1.34 0l4.403 4.432 8.363-8.419a.943.943 0 0 1 1.34 0z"/>
</svg>
