<svg xmlns="http://www.w3.org/2000/svg" width="2500" height="960" viewBox="0 0 2500 960">
    <path fill="#DAF081" fill-opacity=".25" fill-rule="evenodd" d="M2080.73 960l-117.513-257.296-501.93 136.197L1595.57 960H1578l-130.119-117.46L1015 960h-44.093l466.305-127.092-374.758-338.3-450.023 221.81L777.811 960h-15.587l-161.2-237.96L118.233 960H87.895l505.77-248.824-203.259-300.044L0 832.158v-18.253l383.445-413.049-240.95-355.685L-1.877 20.852 0 9l133.19 22.434L111.894 0h14.124l23.172 34.13 495.645 83.486L514.544 0h16.51L653.26 110.21 755.571 0h16.066L662.074 118.156l3.222 2.906 840.193 141.522 209.616-103.125L1642.277 0H1656l70.788 153.711L2039.227 0h26.722l-334.11 164.678 67.914 147.472 702.124 118.265-1.877 11.852-694.172-116.926L1972.4 687.042 2500 543.245v13.804l-522.208 141.7L2098.104 960h-17.374zM391.956 391.688l244.451-263.323L158.52 47.87l233.436 343.818zm213.108 313.88l447.307-220.063L661.41 132.576l-10.99-1.85-251.497 271.222 206.142 303.62zM1063.4 480.078l423.663-208.43L681.89 136.026 1063.4 480.08zm720.2-170.65l-63.474-138.978-193.984 95.612L1783.6 309.43zM1450.597 829.26l507.276-138.258-168.252-368.39-281.879-47.48-434.259 214.04 377.114 340.088z"/>
</svg>
