<svg xmlns="http://www.w3.org/2000/svg" width="1920" height="1410" viewBox="0 0 1920 1410">
    <path fill="#DAF081" fill-opacity=".25" fill-rule="evenodd" d="M1434.424 376.672L1282.367 36.686l10.785-5.26 152.057 339.986 493.108-240.516 5.26 10.786-493.466 240.69 64.787 144.858 574.104 90.932-1.877 11.853-566.379-89.71 156.079 348.978 305.247-81.794 3.106 11.591-303.391 81.297 157.14 351.35-10.786 5.261-158.086-353.467-512.175 137.243 242.55 210.854-7.873 9.056L1143.9 1044.51l-627 168.011 128.67 190.769-9.949 6.71-130.98-194.194-484.096 129.719-3.106-11.592 480.105-128.649-181.84-269.6-349.407 170.424-5.26-10.786 347.89-169.685-196.43-291.234-640.579 711.463-8.917-8.03L105.58 624.15-370.9-82.29l9.949-6.71 474.806 703.959 234.42-260.362-434.007-68.743L-83.855 274l417.489 66.127L-11.155 40.395l7.873-9.056L356 343.67l1.85.293L667.402.156l8.918 8.03-304.338 338.016 849.16 134.5 213.282-104.03zm4.902 10.96l-197.521 96.342 258.953 41.016-61.432-137.358zm67.28 150.434l-283.605-44.92-445.243 217.168 369.198 320.953 518.137-138.84-158.486-354.361zM358.213 361.494L120.77 625.212l199.048 295.113 436.385-212.848-397.99-345.983zM509.802 1202l623.173-166.985L766.04 716.029 326.594 930.371l183.208 271.628zM373.089 358.527l394.83 343.235 434.42-211.89-829.25-131.345z"/>
</svg>
