<svg xmlns="http://www.w3.org/2000/svg" xmlns:xlink="http://www.w3.org/1999/xlink" width="97" height="99" viewBox="0 0 97 99">
    <defs>
        <linearGradient id="a" x1="50%" x2="50%" y1="33.203%" y2="100%">
            <stop offset="0%" stop-color="#D2E911"/>
            <stop offset="100%" stop-color="#96BC00"/>
        </linearGradient>
        <path id="b" d="M1458.05 3654.071c1.244 1.005 1.958 2.49 1.95 4.052v31.757c.01 1.565-.705 3.053-1.95 4.059-1.226.983-2.751 1.31-4.106.867l-16.944-6.442v-28.73l16.96-6.437c1.341-.454 2.87-.108 4.09.874zm-61.124-2.198l35.883 7.85H1435v28.625h-2.192s-26.282 5.718-34.786 7.848a5.465 5.465 0 0 0-3.4 2.425 5.875 5.875 0 0 0-.52 4.704l.09.306a19.755 19.755 0 0 0 2.942 5.998l.811 1.186a16.083 16.083 0 0 1 2.097 4.018c.019.377.14.741.351 1.054.9 3.169.782 6.543-.337 9.64l-2.3 6.54v10.436c0 4.218-4.587 7.497-8.532 7.497h-.49c-2.962 0-5.576-1.841-6.687-4.692l-12.931-33.194c-.261-.666-.605-1.096-1.022-1.273-.469-.2-1.163-.132-1.948.199a2.188 2.188 0 0 1-3.02-1.249 2.209 2.209 0 0 1 1.334-2.815c1.907-.8 3.759-.867 5.346-.19 1.521.649 2.694 1.937 3.388 3.72l12.949 33.203a2.85 2.85 0 0 0 2.608 1.894h.49c1.702 0 4.108-1.579 4.145-3.067a11.008 11.008 0 0 1-4.383-5.164v-6.518a4.474 4.474 0 0 1-1.096-1.846l-7.377-25.304c-1.335-4.553-4.08-8.743-8.394-12.802-4.603-4.342-7.171-9.857-7.233-15.55.007-.07.011-.14.011-.21 0-7.741 3.627-14.773 9.955-19.33 6.244-4.49 14.276-5.923 22.057-3.939zm-1.352 80.513h-2.974a4.946 4.946 0 0 1-1.41-.22v2.425h4.384v-2.205z"/>
        <filter id="c" width="104.1%" height="104%" x="-2.1%" y="-2%" filterUnits="objectBoundingBox">
            <feGaussianBlur in="SourceAlpha" result="shadowBlurInner1" stdDeviation="1"/>
            <feOffset dx="2" dy="1" in="shadowBlurInner1" result="shadowOffsetInner1"/>
            <feComposite in="shadowOffsetInner1" in2="SourceAlpha" k2="-1" k3="1" operator="arithmetic" result="shadowInnerInner1"/>
            <feColorMatrix in="shadowInnerInner1" values="0 0 0 0 0 0 0 0 0 0 0 0 0 0 0 0 0 0 0.304004589 0"/>
        </filter>
    </defs>
    <g fill="none" fill-rule="nonzero" transform="translate(-1363 -3651)">
        <use fill="url(#a)" xlink:href="#b"/>
        <use fill="#000" filter="url(#c)" xlink:href="#b"/>
    </g>
</svg>
