<svg xmlns="http://www.w3.org/2000/svg" xmlns:xlink="http://www.w3.org/1999/xlink" width="121" height="113" viewBox="0 0 121 113">
    <defs>
        <path id="a" d="M0 .413h120.422V113H0z"/>
    </defs>
    <g fill="none" fill-rule="evenodd">
        <g>
            <mask id="b" fill="#fff">
                <use xlink:href="#a"/>
            </mask>
            <path fill="#F99748" d="M118.523 41.952c-1.659-1.252-3.98-1.556-5.993-1.763-2.78-.3-5.595-.057-8.38.275a117.25 117.25 0 0 0-8.068 1.23c-1.892.363-3.72.846-5.547 1.368a123.327 123.327 0 0 0 3.651-3.1c4.48-3.968 8.512-8.342 10.797-13.962.906-2.22 1.436-5.588-.517-7.393-.928-.86-2.198-.992-3.393-1.132-1.405-.179-2.885.266-4.207.681-4.199 1.265-7.82 3.684-11.238 6.306-2.916 2.222-5.75 4.499-8.376 7.048 2.417-3.956 4.685-8.01 6.571-12.246 1.222-2.74 2.15-5.61 2.58-8.584.31-2.21.319-4.63-.727-6.647-1.314-2.512-4.002-2.934-6.488-2.121-2.426.817-4.453 3.092-6.05 5.003-2.05 2.484-3.731 5.24-5.272 8.054-1.628 2.954-3.14 5.933-4.387 9.082a70.475 70.475 0 0 0-2.207 6.563c.29-2.757.683-5.492.942-8.252.276-3.05.385-6.179.097-9.233-.272-2.853-1.266-5.503-2.43-8.104-1.086-2.493-3.1-4.35-5.863-4.59-2.573-.21-5.1 1.125-6.698 3.063-1.501 1.853-2.215 4.149-2.596 6.472a31.322 31.322 0 0 0-.061 9.001c.543 4.084 1.405 8.148 2.49 12.165-.131-.205-.236-.416-.376-.629-2.994-5.162-6.68-9.748-10.857-14.006-1.935-1.982-3.813-3.835-6.13-5.395-1.908-1.263-3.953-2.458-6.277-2.633-4.991-.4-6.944 5.03-6.852 9.068.04 1.58.503 3.126.954 4.625a45.685 45.685 0 0 0 2.207 5.737c1.698 3.63 3.94 6.953 6.532 10.01a54.808 54.808 0 0 0-7.999-3.827c-2.67-1.022-5.494-1.713-8.349-2.097-2.036-.268-4.036-.391-6.002.302C2.008 32.99.598 34.41.121 36.47c-.574 2.433 1.007 4.821 2.425 6.613 2.478 3.144 5.766 5.526 9.076 7.754 3.402 2.318 7.298 3.963 11.247 5.128 1.72.494 3.458.867 5.227 1.178A89.669 89.669 0 0 0 15.903 60.3a38.538 38.538 0 0 0-7.696 3.52c-2.123 1.269-4.072 2.703-5.508 4.79-1.308 1.904-2.228 5.181-.267 6.907 1.97 1.726 4.597 2.417 7.136 2.71 3.691.44 7.53-.029 11.19-.516 2.54-.34 5.04-.821 7.517-1.37-1.628 1.578-3.2 3.21-4.75 4.923-3.73 4.114-7.013 9.36-7.022 15.089.01 2.604 1.169 5.029 3.76 5.892 2.251.76 4.786.127 6.88-.732 3.633-1.499 6.82-4.258 9.648-6.93 3.008-2.865 5.556-6.116 8.165-9.362 1.523-1.862 2.85-3.84 4.076-5.885-.884 5.526-1.235 11.084-.972 16.685a35.962 35.962 0 0 0 1.54 8.608c.605 1.956 1.284 4.035 2.426 5.761 1.182 1.812 3 2.982 5.236 2.5 2.32-.499 3.792-2.593 4.763-4.592 1.415-2.905 2.08-6.254 2.522-9.428.543-3.964.657-8.067.49-12.072-.008-.747-.06-1.48-.109-2.205 1.782 3.704 3.696 7.315 6.024 10.753.793 1.169 1.594 2.387 2.58 3.389a123.003 123.003 0 0 0 3.502 3.44c1.882 1.746 4.163 3.59 6.79 3.845 2.338.226 4.544-.978 5.363-3.198.937-2.526.048-5.403-.74-7.837-1.624-5.084-4.164-9.918-7.036-14.484a64.532 64.532 0 0 0 5.219 3.277 57.628 57.628 0 0 0 7.937 3.748c2.347.92 4.803 1.821 7.347 2.125 2.543.308 5.442-.373 6.965-2.56 1.31-1.87.972-4.084.162-6.074-1.506-3.647-4.47-6.85-7.347-9.48-3.327-3.053-7.127-5.495-10.98-7.855a93.485 93.485 0 0 0-3.121-1.822c3.41-.55 6.804-1.303 10.14-2.196 5.205-1.372 10.59-3.063 15.375-5.573 2.386-1.27 4.777-2.87 6.313-5.115 1.533-2.26 1.361-5.336-.898-7.025" mask="url(#b)"/>
        </g>
        <path fill="#FDD8B3" d="M80.718 7a.787.787 0 0 1-.325-.062c-.352-.144-.492-.493-.32-.764l.575-.865c.2-.278.622-.39.96-.247.362.153.492.493.311.771l-.56.86c-.136.201-.386.312-.641.306M78.273 11.359a.677.677 0 0 1-.304-.072.682.682 0 0 1-.287-.898l1.052-2.021a.676.676 0 0 1 .91-.292.66.66 0 0 1 .269.914L78.869 11c-.1.232-.347.361-.596.359m-2.335 4.516a.576.576 0 0 1-.305-.07.683.683 0 0 1-.291-.912l1.04-2.003a.7.7 0 0 1 .917-.298c.33.186.457.582.279.915l-1.049 2.006a.674.674 0 0 1-.591.362m-2.34 4.521a.801.801 0 0 1-.318-.074c-.317-.186-.46-.591-.278-.91l1.044-2.011c.17-.324.587-.464.896-.285.33.184.456.585.287.911l-1.035 2.01a.671.671 0 0 1-.596.36m-2.349 4.526a.838.838 0 0 1-.313-.09.674.674 0 0 1-.279-.9l1.04-2.012a.668.668 0 0 1 .905-.285.678.678 0 0 1 .278.911l-1.044 2.002a.688.688 0 0 1-.587.374m-2.348 4.511a.64.64 0 0 1-.292-.074.665.665 0 0 1-.292-.918l1.031-2.01a.676.676 0 0 1 .91-.28c.33.164.452.575.273.917l-1.035 1.99a.661.661 0 0 1-.595.375m-2.35 4.522a.616.616 0 0 1-.295-.077c-.335-.19-.47-.595-.3-.909l1.035-2.021c.2-.327.596-.462.909-.29.326.186.466.584.291.919l-1.043 2.006a.693.693 0 0 1-.596.372m-2.357 4.505a.606.606 0 0 1-.292-.075.675.675 0 0 1-.292-.916l1.049-1.999c.16-.33.578-.46.896-.293a.7.7 0 0 1 .308.921L64.8 38.106a.672.672 0 0 1-.604.355m-2.332 4.52a.872.872 0 0 1-.314-.077.695.695 0 0 1-.282-.916l1.048-2.005c.178-.324.561-.458.892-.285.348.18.47.58.3.917l-1.044 2.002a.687.687 0 0 1-.6.363m-2.353 4.518a.572.572 0 0 1-.296-.074.666.666 0 0 1-.287-.91l1.04-2.006a.686.686 0 0 1 .909-.295c.326.17.452.59.274.917l-1.035 1.998a.687.687 0 0 1-.605.37m-2.349 4.515a.718.718 0 0 1-.296-.072.691.691 0 0 1-.29-.911l1.043-2.006c.183-.341.574-.468.9-.293a.683.683 0 0 1 .291.915l-1.043 2.006a.667.667 0 0 1-.605.361m-.317 5.022a.651.651 0 0 1-.652-.677v-2.263c0-.376.3-.674.665-.672.378 0 .674.296.674.677l-.009 2.258c-.004.372-.304.687-.678.677m-.01 5.102a.688.688 0 0 1-.673-.68l.018-2.27a.67.67 0 0 1 .665-.672c.374.004.67.315.67.683l-.018 2.26a.673.673 0 0 1-.661.679m-.026 5.093a.676.676 0 0 1-.661-.679l.013-2.269c0-.374.287-.667.66-.665.366 0 .675.29.675.677l-.013 2.261a.678.678 0 0 1-.674.675m-.022 5.107c-.37-.002-.657-.316-.657-.692l.01-2.267a.66.66 0 0 1 .66-.67c.383 0 .675.302.675.672l-.01 2.271a.688.688 0 0 1-.678.686m-.009 5.094a.68.68 0 0 1-.665-.691l.009-2.257c0-.383.296-.67.665-.666.374 0 .67.298.67.679l-.01 2.249a.672.672 0 0 1-.669.686m-.026 5.093a.662.662 0 0 1-.652-.68l.008-2.272c0-.37.293-.665.662-.664.374 0 .67.299.661.673l-.005 2.268c0 .368-.291.681-.674.675m-.026 5.104c-.365-.004-.643-.317-.643-.685l.008-2.265a.67.67 0 0 1 .652-.678.682.682 0 0 1 .675.69l-.013 2.26c0 .363-.3.678-.679.678m-.008 5.09a.666.666 0 0 1-.653-.684v-2.262a.665.665 0 1 1 1.33.009l-.012 2.255c0 .377-.278.681-.665.681m-.018 5.094a.668.668 0 0 1-.66-.684l.017-2.262c0-.372.286-.672.652-.672.378.004.674.31.674.679l-.013 2.255a.666.666 0 0 1-.67.684m-.022 5.097a.669.669 0 0 1-.652-.682l.005-2.267a.657.657 0 0 1 .656-.665c.383 0 .679.308.679.678l-.018 2.26a.66.66 0 0 1-.67.676M56.67 108a.667.667 0 0 1-.669-.677l.008-2.262c.01-.372.292-.676.661-.676a.682.682 0 0 1 .675.68l-.01 2.258c0 .382-.295.681-.665.677M56.487 112c-.272 0-.487-.362-.487-.818l.006-1.38c.01-.45.218-.8.487-.802.289.008.507.364.507.815l-.006 1.375c0 .448-.218.813-.507.81M23.649 97a.65.65 0 0 1-.397-.132.56.56 0 0 1-.115-.833l.69-.807a.712.712 0 0 1 .93-.1.568.568 0 0 1 .1.84l-.697.81a.669.669 0 0 1-.511.222M52.82 60.222a.797.797 0 0 1-.425-.148.665.665 0 0 1-.124-.943l1.521-1.878a.686.686 0 0 1 .948-.114.68.68 0 0 1 .123.943L53.36 59.97a.729.729 0 0 1-.54.253m-3.406 4.218c-.15.002-.284-.055-.425-.15a.65.65 0 0 1-.102-.93l1.509-1.883a.707.707 0 0 1 .964-.119.683.683 0 0 1 .102.946l-1.51 1.878a.68.68 0 0 1-.538.258m-3.393 4.23a.688.688 0 0 1-.416-.153c-.305-.23-.34-.647-.115-.943l1.513-1.874a.697.697 0 0 1 .964-.117c.283.246.358.659.11.95l-1.507 1.875a.707.707 0 0 1-.55.261m-3.383 4.22c-.142 0-.274-.068-.42-.14a.667.667 0 0 1-.107-.952l1.5-1.87a.685.685 0 0 1 .956-.102.644.644 0 0 1 .115.931l-1.509 1.88a.652.652 0 0 1-.535.254m-3.397 4.22a.573.573 0 0 1-.407-.149.652.652 0 0 1-.115-.936l1.495-1.882a.702.702 0 0 1 .964-.105c.292.22.354.656.11.934l-1.507 1.894a.693.693 0 0 1-.54.243m-3.402 4.23a.644.644 0 0 1-.39-.149c-.3-.23-.367-.656-.119-.942l1.491-1.878c.235-.303.668-.333.964-.12a.69.69 0 0 1 .12.958L36.39 81.09a.757.757 0 0 1-.553.249m-3.375 4.22a.712.712 0 0 1-.424-.14.677.677 0 0 1-.107-.955l1.504-1.868a.7.7 0 0 1 .96-.108c.3.23.354.64.115.944L32.994 85.3a.682.682 0 0 1-.531.26m-3.388 4.226a.698.698 0 0 1-.426-.14.678.678 0 0 1-.114-.953l1.512-1.859a.67.67 0 0 1 .96-.123.65.65 0 0 1 .098.94L29.6 89.534a.693.693 0 0 1-.526.252M25.69 94a.702.702 0 0 1-.424-.137.665.665 0 0 1-.124-.943l1.513-1.887c.221-.278.668-.327.964-.104.297.23.332.65.106.947l-1.508 1.882a.693.693 0 0 1-.527.242"/>
        <path fill="#FDD8B3" d="M58.222 55c-.247 0-.52-.097-.644-.288l-.109-.118-.103.115c-.263.25-.739.285-1.07.09-.338-.2-.392-.551-.135-.81l.813-.771c.158-.151.401-.23.659-.217.243.006.48.127.6.28l.663.853c.213.283.089.632-.282.788a.838.838 0 0 1-.392.078M60.856 60.45c-.24.004-.441-.122-.59-.338l-1.176-2.1c-.184-.321-.075-.747.235-.916.315-.195.726-.082.923.24l1.19 2.095a.668.668 0 0 1-.236.921.73.73 0 0 1-.346.098m2.674 4.69a.599.599 0 0 1-.56-.341l-1.208-2.087c-.184-.32-.075-.75.241-.921a.671.671 0 0 1 .932.231l1.202 2.098a.68.68 0 0 1-.262.931.609.609 0 0 1-.345.09m2.69 4.7c-.232-.006-.477-.125-.59-.34l-1.182-2.092a.674.674 0 0 1 .258-.933c.306-.2.722-.08.893.248l1.211 2.091a.665.665 0 0 1-.25.923.665.665 0 0 1-.34.102m2.673 4.69a.665.665 0 0 1-.573-.343l-1.186-2.08a.701.701 0 0 1 .245-.941c.324-.182.735-.08.905.255l1.221 2.083c.17.33.057.74-.266.938a.7.7 0 0 1-.346.088m2.694 4.695a.674.674 0 0 1-.586-.336l-1.194-2.08a.696.696 0 0 1 .262-.941c.312-.2.731-.073.91.244l1.199 2.089c.162.33.074.741-.249.934a.603.603 0 0 1-.342.09m2.686 4.705a.69.69 0 0 1-.59-.35l-1.177-2.08a.692.692 0 0 1 .245-.941.673.673 0 0 1 .92.257l1.184 2.082c.201.32.08.739-.25.943a.659.659 0 0 1-.332.089m2.686 4.684c-.249.01-.45-.129-.577-.335l-1.207-2.096a.665.665 0 0 1 .253-.915c.324-.2.723-.092.919.243l1.186 2.078a.693.693 0 0 1-.242.943.726.726 0 0 1-.332.082m2.656 4.693a.662.662 0 0 1-.56-.329l-1.194-2.095a.7.7 0 0 1 .24-.932c.337-.186.748-.08.924.262l1.202 2.071a.696.696 0 0 1-.249.94.707.707 0 0 1-.363.083M82.314 98a.66.66 0 0 1-.56-.327l-1.212-2.09a.661.661 0 0 1 .25-.925.64.64 0 0 1 .914.246l1.212 2.078a.714.714 0 0 1-.253.938.806.806 0 0 1-.351.08M84.288 101a.78.78 0 0 1-.601-.277l-.592-.867c-.196-.28-.078-.625.25-.782.333-.152.761-.064.952.208l.605.853c.192.276.096.627-.24.792a.836.836 0 0 1-.374.073M4.56 73c-.242 0-.447-.192-.529-.512-.1-.42.05-.864.334-.996l.905-.45c.291-.14.593.086.694.493.108.413-.032.844-.33.986l-.888.446c-.072.03-.126.03-.187.033M52.177 57.063a.7.7 0 0 1-.647-.44.668.668 0 0 1 .43-.848l2.141-.734a.657.657 0 0 1 .852.391c.145.35-.06.728-.415.85l-2.15.738c-.062.014-.14.043-.21.043m-4.831 1.658a.718.718 0 0 1-.651-.453.654.654 0 0 1 .419-.834l2.156-.737a.677.677 0 0 1 .856.398c.127.347-.074.726-.415.847l-2.142.734c-.079.021-.158.045-.223.045m-4.826 1.657c-.285-.005-.556-.176-.643-.433-.14-.351.061-.725.415-.847l2.134-.747a.692.692 0 0 1 .87.414.65.65 0 0 1-.42.837l-2.142.737a.457.457 0 0 1-.214.04m-4.848 1.655a.668.668 0 0 1-.63-.433c-.14-.36.06-.718.415-.853l2.133-.733a.679.679 0 0 1 .861.408c.119.337-.06.735-.414.834L37.899 62a.56.56 0 0 1-.226.034m-4.835 1.664a.668.668 0 0 1-.635-.432c-.113-.353.061-.733.411-.843l2.147-.754a.692.692 0 0 1 .86.412.633.633 0 0 1-.401.837l-2.147.743c-.078.037-.166.037-.235.037m-4.836 1.663a.656.656 0 0 1-.625-.439.67.67 0 0 1 .402-.846l2.164-.748c.341-.12.73.07.853.419.127.34-.075.725-.42.842l-2.146.742a.66.66 0 0 1-.228.03m-4.822 1.665a.658.658 0 0 1-.629-.449c-.149-.353.052-.725.402-.84l2.147-.746c.362-.114.738.063.857.408a.674.674 0 0 1-.394.853l-2.178.733a.561.561 0 0 1-.205.04m-4.848 1.655a.678.678 0 0 1-.63-.442.674.674 0 0 1 .411-.845l2.151-.748a.696.696 0 0 1 .857.413.646.646 0 0 1-.41.844l-2.147.742a.665.665 0 0 1-.232.036m-4.826 1.657a.668.668 0 0 1-.634-.438.664.664 0 0 1 .407-.843l2.15-.734c.341-.117.743.062.866.401a.661.661 0 0 1-.42.849l-2.146.731a.52.52 0 0 1-.223.034M8.666 72a.67.67 0 0 1-.629-.439.667.667 0 0 1 .407-.846l2.16-.732a.67.67 0 0 1 .856.41c.122.328-.066.713-.406.831l-2.156.744c-.078.03-.14.03-.232.032"/>
        <path fill="#FDD8B3" d="M59.4 55a.514.514 0 0 1-.332-.113l-.592-.451-.67.273c-.328.112-.655-.058-.774-.419-.108-.352.07-.738.362-.866l.954-.386a.566.566 0 0 1 .543.075l.856.642c.257.207.338.639.15.938A.559.559 0 0 1 59.4 55M63.54 57.609a.772.772 0 0 1-.372-.1l-1.873-1.261c-.303-.2-.39-.621-.18-.956a.697.697 0 0 1 .948-.179l1.854 1.258c.32.2.396.636.194.948a.67.67 0 0 1-.57.29m4.205 2.828a.645.645 0 0 1-.381-.109l-1.86-1.263a.69.69 0 0 1-.193-.937.664.664 0 0 1 .939-.18l1.86 1.236c.319.212.402.635.192.952a.624.624 0 0 1-.557.3m4.196 2.82a.709.709 0 0 1-.376-.107l-1.869-1.252a.699.699 0 0 1-.193-.951.683.683 0 0 1 .948-.182l1.85 1.254a.67.67 0 0 1 .202.941.621.621 0 0 1-.562.297m4.197 2.82a.747.747 0 0 1-.381-.105l-1.868-1.264a.69.69 0 0 1-.184-.938.692.692 0 0 1 .951-.197l1.864 1.274c.315.186.395.613.18.945a.68.68 0 0 1-.562.285m4.197 2.823c-.14.003-.246-.041-.378-.114l-1.863-1.25a.7.7 0 0 1-.193-.95.681.681 0 0 1 .938-.184l1.868 1.256c.32.211.4.632.193.938a.622.622 0 0 1-.565.304m4.205 2.82a.628.628 0 0 1-.377-.113l-1.868-1.255c-.324-.199-.4-.617-.193-.948a.677.677 0 0 1 .939-.189l1.863 1.26a.702.702 0 0 1 .202.95.697.697 0 0 1-.566.295m4.192 2.821a.596.596 0 0 1-.372-.117l-1.869-1.242a.706.706 0 0 1-.183-.962c.196-.303.618-.38.938-.177l1.846 1.254c.32.209.412.637.193.951a.612.612 0 0 1-.553.293m4.197 2.817a.55.55 0 0 1-.364-.107l-1.881-1.245a.69.69 0 0 1-.193-.95c.21-.32.631-.409.938-.195l1.873 1.254a.7.7 0 0 1 .188.946.661.661 0 0 1-.56.297m4.191 2.838a.695.695 0 0 1-.372-.123l-1.856-1.249a.665.665 0 0 1-.192-.95.676.676 0 0 1 .942-.187l1.838 1.246c.333.219.42.64.193.956a.634.634 0 0 1-.553.307M101.32 83a.571.571 0 0 1-.36-.11l-1.86-1.242a.701.701 0 0 1-.196-.967.691.691 0 0 1 .93-.181l1.871 1.263c.303.202.391.63.181.943a.646.646 0 0 1-.566.294M104.414 84.999a.49.49 0 0 1-.326-.097l-.83-.667c-.257-.194-.34-.632-.166-.934.186-.307.538-.398.81-.185l.837.641c.273.205.341.633.16.95a.528.528 0 0 1-.485.292M7.435 38a.67.67 0 0 1-.23-.06l-.878-.523c-.277-.169-.405-.6-.277-.973.123-.383.448-.545.736-.38l.89.515c.27.161.404.6.274.973-.095.29-.303.448-.515.448"/>
        <path fill="#FDD8B3" d="M12.834 40.288a.666.666 0 0 1-.267-.048l-2.153-.958c-.351-.142-.491-.548-.373-.877.18-.34.565-.502.907-.344l2.148.948c.334.147.51.544.347.884a.65.65 0 0 1-.61.395m4.827 2.13a.689.689 0 0 1-.285-.064l-2.126-.947c-.355-.131-.495-.54-.346-.89a.65.65 0 0 1 .877-.323l2.152.94c.35.153.49.56.35.89a.684.684 0 0 1-.622.393m4.827 2.13a.63.63 0 0 1-.272-.061l-2.13-.94a.66.66 0 0 1-.351-.886.666.666 0 0 1 .885-.343l2.149.944c.35.143.495.564.342.887-.092.255-.36.4-.623.4m4.84 2.139a.654.654 0 0 1-.28-.07l-2.136-.938c-.35-.153-.504-.55-.35-.888a.664.664 0 0 1 .89-.342l2.13.933c.373.156.526.55.355.904-.092.249-.355.4-.61.4m83.707.793a.676.676 0 0 1-.666-.543.658.658 0 0 1 .517-.79l2.289-.471a.672.672 0 0 1 .815.51.68.68 0 0 1-.518.794l-2.306.481c-.043.004-.11.02-.131.02m-5.195 1.068c-.307-.006-.6-.211-.653-.543a.668.668 0 0 1 .526-.794l2.297-.48c.377-.079.72.17.798.53a.667.667 0 0 1-.522.783l-2.301.483c-.062.01-.088.01-.145.02m-73.68.267c-.088.007-.171-.032-.263-.062l-2.153-.952a.677.677 0 0 1-.355-.877.668.668 0 0 1 .899-.347l2.135.94c.35.155.504.557.36.893a.67.67 0 0 1-.623.405m68.494.801a.66.66 0 0 1-.64-.545c-.08-.35.162-.703.53-.803l2.293-.467a.68.68 0 0 1 .798.53.675.675 0 0 1-.527.794l-2.296.474a.522.522 0 0 1-.158.017m-5.169 1.072a.666.666 0 0 1-.644-.544.68.68 0 0 1 .517-.787l2.288-.484a.7.7 0 0 1 .825.53.679.679 0 0 1-.526.785l-2.315.482a.403.403 0 0 1-.145.018m-58.512.253a.523.523 0 0 1-.245-.064l-2.157-.952a.663.663 0 0 1-.35-.878.693.693 0 0 1 .907-.34l2.143.948c.338.147.51.548.338.88a.652.652 0 0 1-.636.406m53.365.811a.69.69 0 0 1-.674-.528.678.678 0 0 1 .521-.796l2.306-.484c.373-.07.72.152.798.532.079.366-.154.711-.535.796l-2.288.474c-.053.01-.097.006-.128.006m-5.203 1.08a.708.708 0 0 1-.658-.532.7.7 0 0 1 .553-.803l2.28-.473a.647.647 0 0 1 .788.532.654.654 0 0 1-.517.781l-2.31.48c-.027.013-.08.013-.136.015m-43.291.238a.606.606 0 0 1-.285-.068l-2.152-.935c-.33-.16-.496-.553-.352-.889a.69.69 0 0 1 .9-.344l2.147.953c.342.147.505.541.356.89a.684.684 0 0 1-.614.393m38.131.836c-.303-.005-.6-.227-.662-.53a.679.679 0 0 1 .526-.808l2.293-.475c.381-.075.714.157.802.53a.666.666 0 0 1-.526.784l-2.306.488c-.035-.004-.097.011-.127.011m-5.177 1.075a.698.698 0 0 1-.662-.543.676.676 0 0 1 .53-.799l2.293-.469a.67.67 0 0 1 .802.526.662.662 0 0 1-.512.786l-2.31.48a.943.943 0 0 1-.141.019m-28.136.218a.388.388 0 0 1-.263-.067l-2.153-.934a.664.664 0 0 1-.342-.894.69.69 0 0 1 .877-.347l2.148.962c.364.144.5.537.351.873-.123.246-.373.41-.618.407m22.954.85a.68.68 0 0 1-.653-.535.69.69 0 0 1 .526-.805l2.292-.478a.7.7 0 0 1 .808.521.693.693 0 0 1-.536.812l-2.293.473c-.043.011-.096.013-.144.011m-5.165 1.073a.675.675 0 0 1-.653-.545.664.664 0 0 1 .505-.794l2.314-.474a.677.677 0 0 1 .798.518c.07.377-.158.73-.526.8l-2.297.476c-.057.02-.093.018-.14.02m-12.95.207a.529.529 0 0 1-.272-.063l-2.144-.947a.648.648 0 0 1-.363-.875.692.692 0 0 1 .915-.354l2.131.957c.342.139.495.54.333.879a.645.645 0 0 1-.6.403m7.772.858a.673.673 0 0 1-.657-.53.68.68 0 0 1 .521-.805l2.306-.483c.355-.07.71.168.79.526.074.37-.154.737-.518.81l-2.306.47c-.044.012-.1.012-.136.012M55.318 59a.73.73 0 0 1-.29-.052l-1.113-.497a.662.662 0 0 1-.36-.882.69.69 0 0 1 .903-.35l.925.415.869-.183a.687.687 0 0 1 .82.537.68.68 0 0 1-.527.783l-1.1.223a1.366 1.366 0 0 1-.127.006M116.54 47c-.237-.005-.478-.277-.531-.678-.054-.466.138-.91.425-1.006l.91-.302c.304-.083.591.21.644.656.06.48-.12.918-.414 1.037l-.924.285c-.036.008-.075.008-.11.008M23.324 15a.753.753 0 0 1-.535-.23c-.745-.882-.789-.965-.789-1.189 0-.333.3-.585.675-.581.284 0 .532.15.632.364.043.061.153.23.558.692.227.265.16.633-.144.824a.666.666 0 0 1-.397.12M26.101 19.176a.66.66 0 0 1-.535-.267c-.521-.66-1.008-1.279-1.424-1.825-.223-.305-.184-.724.123-.946.28-.224.705-.172.95.13.426.556.895 1.166 1.43 1.824a.688.688 0 0 1-.14.947.571.571 0 0 1-.404.137m3.226 4.12a.769.769 0 0 1-.557-.259c-.473-.633-.96-1.245-1.416-1.833a.686.686 0 0 1 .114-.941.68.68 0 0 1 .951.122c.465.579.93 1.189 1.438 1.82.241.299.17.71-.123.948a.675.675 0 0 1-.407.143m3.238 4.088a.664.664 0 0 1-.539-.242c-.49-.62-.98-1.243-1.428-1.838a.643.643 0 0 1 .1-.93c.308-.237.71-.18.965.114.465.59.937 1.196 1.437 1.818a.658.658 0 0 1-.118.938.58.58 0 0 1-.417.14m3.235 4.105a.714.714 0 0 1-.54-.261l-1.44-1.821a.695.695 0 0 1 .122-.945.703.703 0 0 1 .955.111l1.438 1.827a.67.67 0 0 1-.102.938.727.727 0 0 1-.433.15m3.247 4.082a.694.694 0 0 1-.526-.242l-1.46-1.825a.681.681 0 0 1 .123-.943.672.672 0 0 1 .947.111l1.446 1.81c.22.296.176.71-.118.95a.653.653 0 0 1-.412.139m3.243 4.087a.672.672 0 0 1-.53-.257l-1.438-1.807a.682.682 0 0 1 .119-.948c.28-.235.71-.176.942.107l1.442 1.825c.224.29.17.714-.114.934a.614.614 0 0 1-.42.146m3.26 4.09a.688.688 0 0 1-.53-.255l-1.447-1.82c-.232-.286-.184-.695.11-.946a.69.69 0 0 1 .951.12l1.446 1.807c.228.297.17.71-.11.948a.776.776 0 0 1-.42.146m3.256 4.085a.63.63 0 0 1-.525-.257l-1.46-1.817c-.233-.278-.17-.71.114-.94a.675.675 0 0 1 .946.111l1.425 1.823a.647.647 0 0 1-.08.94c-.13.086-.275.149-.42.14m3.247 4.083a.622.622 0 0 1-.52-.257l-1.448-1.814a.683.683 0 0 1 .106-.947.698.698 0 0 1 .951.11l1.455 1.828a.661.661 0 0 1-.114.936.711.711 0 0 1-.43.144M55.311 56a.638.638 0 0 1-.513-.257l-1.455-1.814a.667.667 0 0 1 .118-.948c.28-.225.706-.167.942.114l1.451 1.82a.671.671 0 0 1-.1.937.74.74 0 0 1-.443.148"/>
        <path fill="#FDD8B3" d="M57.412 59c-.017-.002-.044 0-.057-.002-.187-.017-.37-.091-.48-.227l-.723-.801c-.235-.253-.195-.632.106-.836a.746.746 0 0 1 .964.093l.288.323.36-.265a.767.767 0 0 1 .967.066c.24.26.217.628-.08.845l-.91.67a.769.769 0 0 1-.435.134M96.538 26.845a.717.717 0 0 1-.52-.24.669.669 0 0 1 .096-.953l1.765-1.492a.678.678 0 0 1 .953.076c.247.29.22.714-.07.95l-1.774 1.5a.702.702 0 0 1-.45.159m-3.97 3.346a.764.764 0 0 1-.526-.238.68.68 0 0 1 .08-.955l1.778-1.483a.68.68 0 0 1 .948.074.668.668 0 0 1-.066.956L93 30.029a.66.66 0 0 1-.433.162m-3.992 3.35a.676.676 0 0 1-.517-.23.677.677 0 0 1 .09-.963l1.764-1.476c.273-.251.71-.208.97.077a.69.69 0 0 1-.105.95l-1.761 1.494a.702.702 0 0 1-.44.147m-3.985 3.355a.676.676 0 0 1-.53-.234.683.683 0 0 1 .093-.957l1.77-1.485a.668.668 0 0 1 .957.077.657.657 0 0 1-.093.948l-1.765 1.49a.623.623 0 0 1-.432.161m-3.988 3.351a.714.714 0 0 1-.53-.237.685.685 0 0 1 .093-.952l1.774-1.492a.673.673 0 0 1 .953.095c.25.273.203.698-.075.945l-1.765 1.479a.626.626 0 0 1-.45.162m-3.984 3.35a.68.68 0 0 1-.507-.238.654.654 0 0 1 .066-.944l1.778-1.49a.674.674 0 0 1 .957.073c.247.294.19.703-.083.957l-1.76 1.49c-.142.11-.3.149-.45.151m-3.984 3.355a.667.667 0 0 1-.512-.237.653.653 0 0 1 .075-.948l1.769-1.491a.693.693 0 0 1 .957.079.679.679 0 0 1-.08.95l-1.768 1.494a.656.656 0 0 1-.441.153m-3.998 3.35a.609.609 0 0 1-.494-.233.671.671 0 0 1 .062-.956l1.77-1.49c.3-.241.727-.205.957.085a.664.664 0 0 1-.08.944l-1.755 1.496a.768.768 0 0 1-.46.153m-3.97 3.354a.676.676 0 0 1-.534-.229.719.719 0 0 1 .075-.961l1.792-1.491a.676.676 0 0 1 .939.071.686.686 0 0 1-.048.964l-1.787 1.483a.612.612 0 0 1-.437.163M60.676 57a.67.67 0 0 1-.441-1.18l1.778-1.487a.683.683 0 0 1 .961.074c.23.287.19.706-.075.957l-1.769 1.477a.784.784 0 0 1-.454.159M100.604 23a.621.621 0 0 1-.474-.234.678.678 0 0 1 .086-.896l.788-.714a.576.576 0 0 1 .85.069c.22.273.187.68-.067.911l-.795.701a.544.544 0 0 1-.388.163M52.536 5.997c-.236 0-.446-.308-.47-.73l-.063-1.38c-.028-.444.17-.838.418-.886.267-.025.486.295.504.731l.072 1.406c.028.441-.166.825-.421.862-.013-.003-.018-.006-.04-.003M52.864 10.585c-.338-.003-.639-.259-.651-.61l-.21-2.25a.663.663 0 0 1 .595-.723.685.685 0 0 1 .73.604l.188 2.245a.668.668 0 0 1-.605.731c-.025.003-.038 0-.047.003zm.441 5.051c-.35-.01-.642-.263-.677-.602l-.197-2.257c-.017-.363.245-.691.609-.723a.67.67 0 0 1 .72.603l.189 2.25a.69.69 0 0 1-.592.73h-.052zm.412 5.048a.638.638 0 0 1-.643-.612l-.193-2.24a.67.67 0 0 1 .596-.734.655.655 0 0 1 .707.61l.202 2.255a.66.66 0 0 1-.669.721zm.433 5.05a.66.66 0 0 1-.647-.6l-.198-2.253c-.021-.363.236-.695.6-.715a.667.667 0 0 1 .72.602l.19 2.238c.05.369-.224.7-.6.726l-.065.001zm.441 5.062a.672.672 0 0 1-.655-.613l-.184-2.251a.648.648 0 0 1 .595-.716c.364-.044.677.231.707.61l.189 2.241a.653.653 0 0 1-.6.724c-.018.005-.03 0-.052.005zm.433 5.052c-.33 0-.613-.266-.655-.607l-.19-2.255a.67.67 0 0 1 .601-.72.663.663 0 0 1 .712.61l.205 2.243a.68.68 0 0 1-.608.72c-.026.007-.035.007-.065.01zm.433 5.037a.671.671 0 0 1-.656-.603l-.188-2.241a.67.67 0 0 1 .587-.726.678.678 0 0 1 .737.604l.188 2.244a.66.66 0 0 1-.668.722zm.437 5.065a.644.644 0 0 1-.642-.606l-.206-2.248a.68.68 0 0 1 .609-.728.665.665 0 0 1 .715.604l.184 2.246a.685.685 0 0 1-.596.739c-.02 0-.047 0-.064-.007zm.438 5.05c-.335.008-.622-.257-.656-.614l-.201-2.25a.676.676 0 0 1 .6-.71.642.642 0 0 1 .724.6l.197 2.248c.043.363-.24.69-.609.725-.008.003-.038-.002-.055 0zM57.522 55c-.23.002-.427-.207-.45-.491l-.07-.926c-.024-.301.169-.565.427-.578.247-.043.475.183.5.484l.069.925c.027.292-.172.56-.427.586h-.049z"/>
        <path fill="#F99748" d="M80 54.588C79.952 67.004 69.842 77.05 57.414 77 44.982 76.955 34.956 66.84 35 54.424 35.048 41.989 45.15 31.952 57.573 32 69.996 32.045 80.04 42.154 80 54.588"/>
        <path fill="#FFDEA0" d="M79 53.574C78.952 65.442 69.29 75.046 57.417 75 45.549 74.963 35.96 65.287 36 53.423 36.049 41.541 45.715 31.96 57.575 32c11.872.044 21.469 9.694 21.425 21.574"/>
    </g>
</svg>
