<svg xmlns="http://www.w3.org/2000/svg" width="97" height="104" viewBox="0 0 97 104">
    <path fill="#000" fill-rule="nonzero" d="M48.176 19.497c-11.523 3.277-21.51 3.815-23.076-1.305-1.567-5.115-3.19-13.584 8.332-16.858 11.52-3.273 31.818-.11 33.385 5.007 1.569 5.116-7.126 9.885-18.641 13.156zM26.103 35.455c1.633-6.442 34.708-14.347 50.834-10.394 16.13 3.952 14.76 14.604 13.131 21.046-1.632 6.445-15.383 5.904-31.512 1.95C42.43 44.106 24.474 41.9 26.103 35.456zM35.47 50C54.247 50 97 63.982 97 72.691 97 81.401 68.013 85 49.235 85c-.668 0-1.324-.015-1.983-.024a10.432 10.432 0 0 0-5.414-5.643c5.129-3.557 8.016-9.623 4.947-14.982-3.045-5.28-9.49-6.022-14.139-2.696-.299-3.98-2.242-8.312-5.646-10.413 2.339-.78 5.119-1.242 8.47-1.242zM22.972 77c-.196-4.407-2.374-7.935-4.359-11.283-.911-1.53-1.613-2.883-1.613-4.16C17 57.91 19.261 55 22.972 55c3.712 0 5.823 3.064 6.714 6.603 1.174 4.664-.918 12.175-6.714 15.397zm-.943 5c.197 4.423 2.374 7.94 4.362 11.289.907 1.528 1.609 2.878 1.609 4.153 0 3.647-2.268 6.558-5.97 6.558-3.71 0-5.828-3.063-6.716-6.604-.439-1.744-.419-3.866.067-6.009.824-3.651 3.005-7.365 6.648-9.387zM6.194 75.966C1.69 75.529-1.63 71.02.844 66.943c1.895-3.103 5.862-3.449 9.545-2.43 4.59 1.262 9.815 6.185 10.48 12.144.11.047.134.996.13 1.343-5.488-2.682-11.264-1.7-14.805-2.034zm30.288 6.954c7.728 0 9.938 5.347 7.676 9.047-.882 1.437-2.948 2.481-4.238 2.78C32.108 96.557 23.945 88.317 24 81c4.59 2.241 9.001 1.946 12.471 1.923.004-.001.007-.001.01-.003zM21 80.746c-6.796 4.221-7.71 11.289-11.057 13.161-2.192 1.232-4.816 1.575-7.052.23-3.566-2.162-4.307-6.888.495-11.356 1.79-1.668 4.49-2.828 6.962-3.365 4.196-.906 7.841-.273 10.652 1.33zm12.904-.996c-3.804.656-7.332-.027-9.904-1.503 6.789-4.223 7.706-11.304 11.047-13.182 3.043-1.703 6.286-1.277 8.186.658 3.154 3.219 1.76 7.325-1.62 10.485-1.914 1.789-5.085 3.088-7.709 3.542z"/>
</svg>
