<svg xmlns="http://www.w3.org/2000/svg" width="427" height="279" viewBox="0 0 427 279">
    <defs>
        <linearGradient id="a" x1="-.36%" x2="23.485%" y1="59.115%" y2="59.115%">
            <stop offset="0%" stop-color="#D9D9D9"/>
            <stop offset="100%" stop-color="#FFF"/>
        </linearGradient>
        <linearGradient id="b" x1="5.67%" x2="56.809%" y1="50.005%" y2="50.005%">
            <stop offset="0%" stop-color="#608D08"/>
            <stop offset="100%" stop-color="#AACC23"/>
        </linearGradient>
        <linearGradient id="c" x1="12.356%" x2="110.619%" y1="50.019%" y2="50.019%">
            <stop offset="0%" stop-color="#0A121D"/>
            <stop offset="49.49%" stop-color="#14243B"/>
            <stop offset="74.91%" stop-color="#25344A"/>
            <stop offset="100%" stop-color="#314054"/>
        </linearGradient>
        <linearGradient id="d" x1="25.032%" x2="124.281%" y1="69.662%" y2="-8.43%">
            <stop offset="0%" stop-color="#0A121D"/>
            <stop offset="49.49%" stop-color="#14243B"/>
            <stop offset="74.91%" stop-color="#25344A"/>
            <stop offset="100%" stop-color="#314054"/>
        </linearGradient>
    </defs>
    <g fill="none" fill-rule="evenodd">
        <path fill="url(#a)" d="M489 189l28-48.5L489 92h-56l-28 48.5 28 48.5z" transform="translate(-90)"/>
        <path fill="url(#b)" fill-rule="nonzero" d="M407.817 233L463 137.067 407.817 41H297.183L242 137.067 297.183 233z" opacity=".9" transform="translate(-90)"/>
        <path fill="url(#c)" fill-rule="nonzero" d="M272.533 279L353 139.567 272.533 0H111.467L31 139.567 111.467 279z" transform="translate(-90)"/>
        <path fill="url(#d)" fill-rule="nonzero" d="M257.533 279L338 139.567 257.533 0H80.467L0 139.567 80.467 279z" transform="translate(-90)"/>
    </g>
</svg>
