<svg xmlns="http://www.w3.org/2000/svg" width="41" height="41" viewBox="0 0 41 41">
    <g fill="none" fill-rule="evenodd">
        <circle cx="20.5" cy="20.5" r="20.5" fill="#4D76A1" fill-rule="nonzero"/>
        <path stroke="#FFF" stroke-width="2" d="M20.232 27.941h1.494s.451-.048.682-.292c.212-.224.205-.644.205-.644s-.03-1.969.901-2.259c.918-.285 2.096 1.903 3.344 2.744.945.637 1.662.497 1.662.497l3.339-.046s1.746-.105.918-1.453c-.068-.11-.482-.997-2.482-2.82-2.094-1.907-1.813-1.598.708-4.898 1.536-2.009 2.15-3.236 1.958-3.761-.182-.5-1.312-.368-1.312-.368l-3.76.023s-.278-.037-.484.084c-.202.119-.332.396-.332.396s-.595 1.555-1.389 2.877c-1.674 2.79-2.343 2.937-2.617 2.764-.636-.404-.477-1.622-.477-2.487 0-2.704.418-3.832-.814-4.124-.408-.097-.709-.16-1.754-.17-1.341-.014-2.476.003-3.12.312-.427.206-.757.664-.556.69.249.033.811.15 1.11.548.385.514.371 1.67.371 1.67s.222 3.183-.517 3.578c-.506.271-1.201-.282-2.694-2.814-.764-1.296-1.342-2.73-1.342-2.73s-.111-.267-.31-.41c-.24-.174-.577-.23-.577-.23l-3.572.024s-.537.014-.733.243c-.176.204-.014.625-.014.625s2.796 6.422 5.963 9.659c2.903 2.967 6.2 2.772 6.2 2.772z"/>
    </g>
</svg>
