<svg xmlns="http://www.w3.org/2000/svg" width="581" height="392" viewBox="0 0 581 392">
    <defs>
        <linearGradient id="a" x1="-.36%" x2="23.485%" y1="59.115%" y2="59.115%">
            <stop offset="0%" stop-color="#D9D9D9"/>
            <stop offset="100%" stop-color="#FFF"/>
        </linearGradient>
        <linearGradient id="b" x1="5.67%" x2="56.809%" y1="50.005%" y2="50.005%">
            <stop offset="0%" stop-color="#608D08"/>
            <stop offset="100%" stop-color="#AACC23"/>
        </linearGradient>
        <linearGradient id="c" x1="12.356%" x2="110.619%" y1="50.019%" y2="50.019%">
            <stop offset="0%" stop-color="#0A121D"/>
            <stop offset="49.49%" stop-color="#14243B"/>
            <stop offset="74.91%" stop-color="#25344A"/>
            <stop offset="100%" stop-color="#314054"/>
        </linearGradient>
        <linearGradient id="d" x1="25.032%" x2="124.281%" y1="71.705%" y2="-14.499%">
            <stop offset="0%" stop-color="#0A121D"/>
            <stop offset="49.49%" stop-color="#14243B"/>
            <stop offset="74.91%" stop-color="#25344A"/>
            <stop offset="100%" stop-color="#314054"/>
        </linearGradient>
    </defs>
    <g fill="none" fill-rule="evenodd">
        <path fill="url(#a)" d="M666.75 270L706 202l-39.25-68h-78.5L549 202l39.25 68z" transform="translate(-125)"/>
        <path fill="url(#b)" fill-rule="nonzero" d="M545.593 332L623 197.094 545.593 62H390.407L313 197.094 390.407 332z" opacity=".9" transform="translate(-125)"/>
        <path fill="url(#c)" fill-rule="nonzero" d="M360.047 392L473 196.094 360.047 0H133.953L21 196.094 133.953 392z" transform="translate(-125)"/>
        <path fill="url(#d)" fill-rule="nonzero" d="M339.047 392L452 196.094 339.047 0H112.953L0 196.094 112.953 392z" transform="translate(-125)"/>
    </g>
</svg>
