<svg xmlns="http://www.w3.org/2000/svg" xmlns:xlink="http://www.w3.org/1999/xlink" width="99" height="98" viewBox="0 0 99 98">
    <defs>
        <path id="a" d="M0 .051h98.74V97.66H0z"/>
    </defs>
    <g fill="none" fill-rule="evenodd">
        <g>
            <mask id="b" fill="#fff">
                <use xlink:href="#a"/>
            </mask>
            <path fill="#F0869B" d="M97.187 36.055c-1.357-1.092-3.282-1.341-4.914-1.52-2.283-.256-4.603-.05-6.87.233a89.55 89.55 0 0 0-6.611 1.07c-1.553.318-3.054.733-4.56 1.183a87.399 87.399 0 0 0 3-2.684c3.67-3.442 6.98-7.24 8.847-12.101.747-1.918 1.163-4.846-.428-6.424-.76-.748-1.805-.861-2.78-.982-1.159-.142-2.37.243-3.462.6-3.435 1.087-6.375 3.189-9.201 5.462-2.386 1.934-4.705 3.915-6.863 6.111 1.977-3.433 3.844-6.932 5.377-10.617 1.01-2.365 1.769-4.869 2.118-7.445.264-1.902.264-4.008-.59-5.757C69.175 1 66.966.644 64.93 1.35c-1.997.699-3.663 2.68-4.957 4.333-1.686 2.152-3.053 4.542-4.327 6.977-1.328 2.564-2.578 5.155-3.589 7.882a63.69 63.69 0 0 0-1.803 5.688c.227-2.384.55-4.755.758-7.155.232-2.648.318-5.35.086-8.012-.223-2.462-1.057-4.778-1.996-7.024C48.197 1.887 46.56.274 44.29.072c-2.103-.193-4.186.957-5.48 2.654-1.234 1.597-1.831 3.582-2.125 5.596-.378 2.617-.378 5.18-.051 7.811.436 3.552 1.143 7.075 2.04 10.546-.107-.18-.197-.355-.308-.54-2.46-4.48-5.487-8.448-8.91-12.151-1.584-1.71-3.125-3.315-5.023-4.658-1.549-1.122-3.243-2.146-5.157-2.304-4.076-.344-5.683 4.367-5.609 7.871.032 1.363.401 2.711.782 4.012a40.547 40.547 0 0 0 1.809 4.966c1.395 3.164 3.246 6.024 5.357 8.688-2.107-1.282-4.277-2.414-6.548-3.319a30.169 30.169 0 0 0-6.847-1.822c-1.667-.24-3.317-.344-4.93.262-1.626.607-2.806 1.84-3.19 3.63-.473 2.106.829 4.179 1.996 5.738 2.04 2.726 4.716 4.784 7.437 6.722 2.794 2.008 5.978 3.425 9.22 4.425 1.408.45 2.842.774 4.284 1.025a72.845 72.845 0 0 0-10.002 2.75 31.373 31.373 0 0 0-6.29 3.044c-1.749 1.111-3.34 2.358-4.52 4.15C1.16 60.816.39 63.66 2.018 65.162c1.608 1.496 3.758 2.1 5.837 2.36 3.019.372 6.175-.024 9.178-.453 2.079-.303 4.135-.71 6.17-1.187a77.515 77.515 0 0 0-3.898 4.265c-3.05 3.564-5.77 8.118-5.762 13.073.011 2.268.958 4.363 3.073 5.125 1.851.657 3.92.105 5.66-.646 2.967-1.29 5.59-3.688 7.892-5.997 2.469-2.498 4.568-5.32 6.706-8.118 1.234-1.626 2.335-3.336 3.349-5.105-.727 4.795-1.022 9.617-.802 14.46a32.73 32.73 0 0 0 1.257 7.465c.492 1.708 1.062 3.498 1.986 5.003.966 1.568 2.475 2.567 4.296 2.16 1.91-.43 3.1-2.25 3.915-3.99 1.155-2.504 1.686-5.42 2.044-8.164.463-3.437.546-6.995.42-10.464a78.198 78.198 0 0 0-.09-1.92c1.446 3.223 3.034 6.356 4.936 9.322.653 1.012 1.301 2.073 2.114 2.954.948 1.013 1.88 2.017 2.87 2.977 1.533 1.509 3.404 3.108 5.566 3.334 1.906.2 3.722-.852 4.39-2.786.763-2.187.04-4.676-.601-6.788-1.348-4.412-3.412-8.603-5.77-12.56a55.305 55.305 0 0 0 4.268 2.841 48.956 48.956 0 0 0 6.497 3.26c1.957.792 3.962 1.575 6.03 1.837 2.094.264 4.457-.325 5.734-2.222 1.066-1.607.799-3.545.134-5.258-1.234-3.167-3.679-5.938-6.033-8.224-2.732-2.649-5.845-4.773-9.005-6.81a62.473 62.473 0 0 0-2.555-1.584 85.295 85.295 0 0 0 8.31-1.894c4.272-1.198 8.69-2.66 12.608-4.845 1.961-1.096 3.911-2.477 5.173-4.425 1.27-1.963 1.112-4.627-.727-6.103" mask="url(#b)"/>
        </g>
        <path fill="#FADCEB" d="M64.704 7a.745.745 0 0 1-.315-.053c-.351-.152-.494-.499-.305-.774l.57-.865c.182-.278.61-.387.96-.247.347.146.484.498.311.772l-.575.869c-.137.196-.381.302-.646.297M62.567 9.924a.581.581 0 0 1-.25-.068c-.282-.151-.373-.505-.234-.791l.87-1.75c.135-.286.48-.401.754-.245.262.144.373.501.23.791L63.08 9.61a.605.605 0 0 1-.512.315m-1.953 3.93a.635.635 0 0 1-.242-.068.618.618 0 0 1-.255-.801l.878-1.74a.547.547 0 0 1 .758-.244c.262.144.374.5.23.788l-.865 1.742a.596.596 0 0 1-.504.324m-1.95 3.924a.64.64 0 0 1-.262-.064.625.625 0 0 1-.234-.796l.873-1.744a.543.543 0 0 1 .755-.25c.274.15.377.51.226.795l-.858 1.742a.573.573 0 0 1-.5.317m-1.954 3.93a.603.603 0 0 1-.261-.064.613.613 0 0 1-.231-.795l.858-1.75c.15-.282.484-.399.766-.245.266.153.37.503.235.793l-.866 1.744a.568.568 0 0 1-.5.317m-1.962 3.937a.541.541 0 0 1-.25-.077.598.598 0 0 1-.242-.79l.881-1.743a.524.524 0 0 1 .743-.248c.273.152.38.5.234.795l-.866 1.742a.592.592 0 0 1-.5.321m-1.961 3.925a.546.546 0 0 1-.25-.07.616.616 0 0 1-.239-.797l.878-1.742a.53.53 0 0 1 .75-.248.595.595 0 0 1 .226.801l-.865 1.738a.543.543 0 0 1-.5.318m-1.946 3.928a.442.442 0 0 1-.258-.067c-.282-.149-.377-.505-.235-.789l.866-1.752a.55.55 0 0 1 .759-.25c.274.152.373.5.23.792l-.862 1.749a.564.564 0 0 1-.5.317m-1.962 3.934a.491.491 0 0 1-.25-.07.607.607 0 0 1-.242-.796l.874-1.742c.142-.291.48-.4.762-.254.254.15.37.505.226.793l-.873 1.743a.56.56 0 0 1-.497.326m-1.953 3.926a.539.539 0 0 1-.254-.066.614.614 0 0 1-.238-.795l.865-1.747c.147-.29.48-.402.754-.25.283.144.39.507.243.786l-.874 1.755a.569.569 0 0 1-.496.317M44.97 45.29a.523.523 0 0 1-.25-.073.593.593 0 0 1-.246-.789l.874-1.75a.551.551 0 0 1 .762-.244.602.602 0 0 1 .226.792l-.865 1.742a.575.575 0 0 1-.5.322m-.267 4.361a.566.566 0 0 1-.556-.587l.005-1.963a.576.576 0 0 1 .563-.589c.306.002.56.26.56.593l-.008 1.96c0 .33-.254.59-.564.586m-.015 4.43c-.31.002-.556-.261-.556-.58l.003-1.974c.008-.32.258-.577.56-.577a.57.57 0 0 1 .564.581l-.008 1.974c0 .322-.262.58-.563.576m-.02 4.441c-.298 0-.552-.267-.552-.593l.007-1.962c0-.328.255-.595.556-.595.318 0 .564.271.564.6v1.964a.586.586 0 0 1-.575.586m-.012 4.434c-.31 0-.552-.265-.556-.59l.008-1.964c0-.33.258-.59.555-.59a.586.586 0 0 1 .568.592l-.011 1.965a.577.577 0 0 1-.564.587m-.016 4.435a.574.574 0 0 1-.552-.584l.008-1.978c0-.323.25-.586.56-.582.305-.002.56.26.552.586v1.98a.574.574 0 0 1-.568.578m-.016 4.438a.574.574 0 0 1-.552-.59l.004-1.977c.004-.33.254-.586.556-.582.317 0 .567.259.571.585l-.011 1.979a.572.572 0 0 1-.568.585m-.016 4.436c-.302-.004-.556-.268-.556-.592l.008-1.977c.008-.318.258-.576.56-.576.306-.003.56.262.56.582v1.973c-.009.33-.263.592-.572.59m-.012 4.43a.57.57 0 0 1-.556-.583l.008-1.98c0-.325.258-.585.556-.585a.572.572 0 0 1 .56.588l-.004 1.982a.575.575 0 0 1-.564.578m-.016 4.43c-.306.003-.552-.262-.552-.586l.008-1.971c0-.321.246-.586.556-.588.31.004.564.271.564.592l-.012 1.967c.004.326-.258.595-.564.586m-.012 4.438a.57.57 0 0 1-.556-.597l.004-1.965a.57.57 0 0 1 .56-.58.566.566 0 0 1 .56.589l-.004 1.969a.576.576 0 0 1-.564.584M44.544 94c-.298-.004-.552-.273-.544-.59l.005-1.97a.565.565 0 0 1 .555-.582c.306-.002.56.26.56.587l-.008 1.969a.585.585 0 0 1-.568.586M47.99 96c-.55-.002-.99-.243-.99-.532l.007-.932c-.007-.297.452-.536.99-.536.551 0 .996.247 1.003.54l-.007.932c0 .289-.459.526-1.003.528M18.652 83a.706.706 0 0 1-.409-.126.553.553 0 0 1-.092-.837l.677-.807a.688.688 0 0 1 .92-.098.563.563 0 0 1 .115.837l-.7.811a.672.672 0 0 1-.511.22"/>
        <path fill="#FADCEB" d="M43.175 51.78a.572.572 0 0 1-.348-.122.585.585 0 0 1-.096-.82l1.263-1.617a.554.554 0 0 1 .791-.097.597.597 0 0 1 .097.816l-1.251 1.623a.59.59 0 0 1-.456.217m-2.819 3.653a.573.573 0 0 1-.444-.94l1.252-1.614a.541.541 0 0 1 .791-.1c.25.19.291.56.097.812l-1.26 1.624a.548.548 0 0 1-.436.218m-2.829 3.654a.537.537 0 0 1-.343-.13.566.566 0 0 1-.098-.812l1.252-1.624a.55.55 0 0 1 .795-.09c.247.19.287.562.101.811l-1.259 1.622a.598.598 0 0 1-.448.223m-2.83 3.646a.516.516 0 0 1-.347-.123.584.584 0 0 1-.097-.816l1.26-1.621a.563.563 0 0 1 .794-.102c.247.213.295.571.093.819l-1.25 1.625a.608.608 0 0 1-.453.218m-2.826 3.648a.574.574 0 0 1-.355-.122.584.584 0 0 1-.09-.812l1.26-1.624a.557.557 0 0 1 .792-.092c.25.195.295.554.096.811l-1.255 1.62a.523.523 0 0 1-.448.219m-2.822 3.65a.574.574 0 0 1-.448-.934l1.26-1.626a.557.557 0 0 1 .79-.093c.247.2.291.564.097.818l-1.25 1.617a.532.532 0 0 1-.449.219m-2.834 3.66a.593.593 0 0 1-.347-.127.599.599 0 0 1-.097-.82l1.264-1.615a.555.555 0 0 1 .795-.103.594.594 0 0 1 .089.812l-1.26 1.63a.557.557 0 0 1-.444.222m-2.818 3.643a.554.554 0 0 1-.351-.113.58.58 0 0 1-.097-.816l1.251-1.63a.564.564 0 0 1 .8-.095c.254.2.299.567.097.814l-1.251 1.626a.571.571 0 0 1-.449.214M20.56 81a.61.61 0 0 1-.343-.13.6.6 0 0 1-.097-.82l1.26-1.622a.571.571 0 0 1 .8-.099c.237.198.29.573.088.819l-1.26 1.625a.57.57 0 0 1-.448.227M45.487 49c-.177 0-.336-.106-.43-.293l-.076-.114-.07.105a.467.467 0 0 1-.716.099.624.624 0 0 1-.087-.805l.547-.78a.472.472 0 0 1 .43-.21c.178.01.323.116.413.28l.431.848c.144.283.061.63-.185.788a.445.445 0 0 1-.257.082M50.56 52.776a.567.567 0 0 1-.49-.274l-.998-1.68a.549.549 0 0 1 .208-.748.575.575 0 0 1 .77.197l.985 1.678a.525.525 0 0 1-.195.749.509.509 0 0 1-.28.078m2.227 3.773a.556.556 0 0 1-.487-.275l-.986-1.673a.544.544 0 0 1 .192-.752.583.583 0 0 1 .782.197l.99 1.683a.543.543 0 0 1-.491.82m2.23 3.78a.564.564 0 0 1-.479-.266l-.99-1.686a.538.538 0 0 1 .204-.746.558.558 0 0 1 .766.199l.99 1.674a.544.544 0 0 1-.491.825m2.242 3.781a.573.573 0 0 1-.49-.273l-.982-1.679a.535.535 0 0 1 .203-.753.575.575 0 0 1 .762.198l.994 1.684c.155.26.064.6-.204.75a.592.592 0 0 1-.283.073m2.23 3.78a.588.588 0 0 1-.482-.27l-.986-1.688a.529.529 0 0 1 .203-.747.556.556 0 0 1 .759.2l.993 1.674c.164.264.06.598-.204.758a.642.642 0 0 1-.283.073m2.238 3.777a.576.576 0 0 1-.486-.271l-.99-1.683a.552.552 0 0 1 .204-.759.6.6 0 0 1 .777.21l.983 1.684a.537.537 0 0 1-.204.745.578.578 0 0 1-.284.074m2.23 3.78a.55.55 0 0 1-.478-.278l-.99-1.679a.543.543 0 0 1 .204-.754.568.568 0 0 1 .767.201l.989 1.687c.159.258.055.598-.2.75a.602.602 0 0 1-.291.072m2.23 3.778a.575.575 0 0 1-.47-.272l-.994-1.686a.529.529 0 0 1 .2-.747.561.561 0 0 1 .766.202l1.009 1.684a.55.55 0 0 1-.223.745.583.583 0 0 1-.288.074m2.243 3.775a.558.558 0 0 1-.484-.271l-.99-1.679a.54.54 0 0 1 .213-.756.584.584 0 0 1 .766.2l.981 1.69a.523.523 0 0 1-.203.744.542.542 0 0 1-.283.072M68.298 89c-.229-.004-.478-.108-.593-.29l-.613-.842c-.189-.279-.08-.63.26-.792.333-.155.757-.067.962.21l.588.848c.19.276.105.628-.254.786a.745.745 0 0 1-.35.08M3.55 62c-.227 0-.44-.21-.521-.53-.095-.406.05-.845.345-.998l.892-.425c.286-.146.6.059.703.472.098.407-.043.846-.338.995l-.896.436c-.054.02-.13.048-.184.05M43.598 45.943a.57.57 0 0 1-.538-.414c-.106-.332.049-.684.342-.804l1.834-.69c.302-.115.627.066.734.387.101.326-.062.68-.355.788l-1.838.7a.329.329 0 0 1-.18.033m-4.115 1.567a.563.563 0 0 1-.534-.42c-.11-.326.049-.687.343-.795l1.834-.695c.297-.115.627.055.729.383.106.325-.058.675-.343.79l-1.842.702a.604.604 0 0 1-.187.035m-4.115 1.559a.567.567 0 0 1-.538-.419c-.107-.321.057-.682.35-.79l1.838-.697c.289-.11.627.055.73.383.093.33-.062.682-.351.797l-1.838.69a.537.537 0 0 1-.191.036m-4.116 1.556c-.228.002-.453-.162-.542-.418-.094-.319.06-.68.358-.788l1.822-.686c.302-.123.627.052.738.38.101.312-.058.668-.347.786l-1.834.703a.449.449 0 0 1-.195.023m-4.116 1.565c-.236 0-.448-.162-.533-.41a.644.644 0 0 1 .346-.805l1.83-.689c.3-.114.627.06.729.383.11.319-.045.68-.343.794l-1.837.696a.636.636 0 0 1-.192.031m-4.111 1.565c-.24 0-.45-.168-.538-.423-.102-.32.049-.682.35-.792l1.838-.7c.285-.1.627.069.721.399.102.314-.057.677-.354.792l-1.826.684a.41.41 0 0 1-.191.04m-4.116 1.565a.578.578 0 0 1-.538-.422c-.102-.328.061-.68.354-.798l1.83-.693c.302-.108.624.07.73.388.101.321-.05.677-.35.795l-1.826.692a.57.57 0 0 1-.2.038M14.8 56.883c-.24 0-.456-.171-.546-.416-.102-.328.053-.69.359-.801l1.83-.689c.297-.113.619.06.733.374.098.33-.061.68-.35.797l-1.834.697a.632.632 0 0 1-.192.038m-4.128 1.558c-.224.003-.444-.163-.525-.416-.11-.321.049-.682.346-.79l1.834-.7c.297-.11.623.056.733.381a.663.663 0 0 1-.359.8l-1.825.688a.424.424 0 0 1-.204.037M6.57 60a.56.56 0 0 1-.534-.41c-.11-.327.049-.69.342-.8l1.834-.694c.302-.115.628.06.726.383.11.328-.046.675-.343.795l-1.833.7a.625.625 0 0 1-.192.026"/>
        <path fill="#FADCEB" d="M45.605 49a.314.314 0 0 1-.223-.111l-.398-.46-.453.278c-.212.124-.432-.065-.51-.416-.068-.358.039-.743.245-.866l.64-.382c.115-.08.253-.044.352.07l.566.648c.181.21.232.632.108.937-.068.193-.2.3-.327.302M54.038 49.244a.629.629 0 0 1-.297-.092l-1.5-1.075a.612.612 0 0 1-.147-.815.525.525 0 0 1 .754-.167l1.504 1.08c.247.178.305.537.146.81a.521.521 0 0 1-.46.259m3.383 2.419a.503.503 0 0 1-.298-.096l-1.508-1.077a.61.61 0 0 1-.139-.804.524.524 0 0 1 .754-.175l1.5 1.08c.252.175.31.542.151.818a.58.58 0 0 1-.46.254m3.383 2.417a.485.485 0 0 1-.294-.093l-1.508-1.08a.6.6 0 0 1-.155-.804.523.523 0 0 1 .758-.17l1.5 1.082a.604.604 0 0 1 .155.806.535.535 0 0 1-.456.259m3.37 2.42c-.1 0-.2-.038-.29-.1l-1.503-1.07a.632.632 0 0 1-.158-.812c.17-.28.514-.35.761-.162l1.504 1.076a.6.6 0 0 1 .154.8.566.566 0 0 1-.468.268m3.383 2.416a.49.49 0 0 1-.294-.101l-1.5-1.072a.608.608 0 0 1-.15-.814.521.521 0 0 1 .753-.16l1.5 1.078c.248.176.321.54.15.804a.518.518 0 0 1-.46.265m3.384 2.416a.568.568 0 0 1-.294-.092l-1.515-1.082c-.244-.174-.31-.532-.14-.808.167-.272.507-.344.75-.166l1.5 1.076a.615.615 0 0 1 .151.81.52.52 0 0 1-.452.262m3.378 2.415a.529.529 0 0 1-.305-.094l-1.496-1.073a.622.622 0 0 1-.15-.817.537.537 0 0 1 .76-.16l1.493 1.072c.243.187.328.54.155.812a.528.528 0 0 1-.457.26m3.38 2.425a.52.52 0 0 1-.298-.1l-1.5-1.071a.612.612 0 0 1-.159-.812c.17-.28.499-.34.754-.164l1.508 1.065c.247.183.313.55.15.814-.112.17-.278.27-.456.268m3.37 2.413a.46.46 0 0 1-.285-.098l-1.511-1.069a.635.635 0 0 1-.151-.814.524.524 0 0 1 .754-.162l1.511 1.069a.631.631 0 0 1 .143.813.542.542 0 0 1-.46.261M84.458 71a.47.47 0 0 1-.305-.1l-1.492-1.073a.597.597 0 0 1-.159-.808c.166-.27.507-.345.754-.154l1.492 1.068a.604.604 0 0 1 .163.805.524.524 0 0 1-.453.262"/>
        <path fill="#FADCEB" d="M83.41 71a.485.485 0 0 1-.314-.118l-.837-.646c-.273-.2-.336-.622-.162-.945.17-.298.543-.385.804-.178l.832.646c.274.2.348.621.17.935a.564.564 0 0 1-.493.306M6.435 34a.476.476 0 0 1-.232-.052l-.866-.518c-.284-.18-.42-.608-.284-.992.108-.374.444-.541.74-.372l.87.52c.287.162.415.587.287.979-.087.271-.295.44-.515.435M11.31 32.966a.76.76 0 0 1-.224-.05l-1.758-.813a.567.567 0 0 1-.275-.756.534.534 0 0 1 .73-.297l1.75.811a.59.59 0 0 1 .283.755.55.55 0 0 1-.506.35m3.952 1.818a.504.504 0 0 1-.22-.047l-1.758-.812a.592.592 0 0 1-.29-.752.548.548 0 0 1 .733-.303l1.758.813c.27.129.4.47.279.761a.529.529 0 0 1-.502.34m3.947 1.826a.476.476 0 0 1-.22-.05l-1.758-.812c-.274-.127-.396-.466-.278-.76a.55.55 0 0 1 .718-.298l1.758.817c.283.122.404.47.287.76a.553.553 0 0 1-.507.343m3.956 1.826a.468.468 0 0 1-.224-.054l-1.758-.808c-.279-.13-.4-.467-.287-.76.13-.286.456-.425.73-.294l1.759.812c.278.131.407.47.286.766a.56.56 0 0 1-.506.338m68.404.685a.57.57 0 0 1-.541-.47.585.585 0 0 1 .424-.686l1.884-.397c.294-.068.584.125.65.444a.574.574 0 0 1-.415.682l-1.892.407a.575.575 0 0 1-.11.02m-4.226.909a.567.567 0 0 1-.545-.462c-.06-.312.133-.616.424-.674l1.883-.413c.31-.07.597.135.651.448a.58.58 0 0 1-.423.688l-1.876.399a.38.38 0 0 1-.114.014m-60.242.231a.622.622 0 0 1-.2-.045l-1.77-.818a.568.568 0 0 1-.275-.757.537.537 0 0 1 .734-.297l1.75.803c.275.138.393.478.275.779a.568.568 0 0 1-.514.335m56.016.688a.566.566 0 0 1-.546-.454c-.062-.315.126-.627.424-.688l1.88-.405a.545.545 0 0 1 .655.452.578.578 0 0 1-.427.676l-1.884.414s-.075.011-.102.005m-4.234.918a.55.55 0 0 1-.542-.46.579.579 0 0 1 .42-.68l1.888-.41a.545.545 0 0 1 .647.446c.063.313-.122.618-.424.68l-1.875.411c-.044.013-.079.01-.114.013m-47.827.216a.931.931 0 0 1-.224-.045l-1.754-.814a.584.584 0 0 1-.279-.76c.127-.294.456-.428.73-.288l1.755.804a.572.572 0 0 1 .278.761.535.535 0 0 1-.506.342m43.6.7a.553.553 0 0 1-.545-.462c-.059-.303.13-.619.424-.682l1.891-.4c.295-.068.585.134.648.435.063.32-.122.628-.424.688l-1.891.409c-.036.004-.067.012-.102.012m-4.239.924a.581.581 0 0 1-.54-.457.6.6 0 0 1 .435-.694l1.871-.4c.314-.066.6.134.66.45.054.306-.134.615-.432.677l-1.88.41c-.047 0-.082.015-.114.014m-35.41.2a.615.615 0 0 1-.22-.053l-1.758-.809a.576.576 0 0 1-.275-.757.536.536 0 0 1 .73-.293l1.754.807c.275.13.396.47.279.757a.557.557 0 0 1-.51.348m31.184.712a.568.568 0 0 1-.545-.456c-.055-.316.133-.624.44-.683l1.867-.416a.56.56 0 0 1 .655.456.57.57 0 0 1-.423.684l-1.88.399a.346.346 0 0 1-.114.016m-4.23.924a.559.559 0 0 1-.538-.459c-.062-.317.13-.625.424-.682l1.884-.407a.55.55 0 0 1 .652.443.565.565 0 0 1-.429.679l-1.871.415a.884.884 0 0 1-.122.01m-22.995.191a.504.504 0 0 1-.231-.057l-1.75-.806c-.283-.126-.4-.466-.283-.758a.545.545 0 0 1 .726-.297l1.75.815c.294.125.408.464.286.767a.559.559 0 0 1-.498.336m18.757.729a.554.554 0 0 1-.53-.467.559.559 0 0 1 .425-.681l1.883-.404a.546.546 0 0 1 .655.442c.055.315-.137.626-.44.686l-1.871.41a.507.507 0 0 1-.122.014m-4.214.917a.577.577 0 0 1-.554-.459c-.042-.313.13-.624.44-.685l1.876-.408c.294-.068.588.131.651.45a.57.57 0 0 1-.431.678l-1.876.411c-.04.013-.075.01-.106.013m-10.6.174a.497.497 0 0 1-.22-.052l-1.757-.8a.595.595 0 0 1-.275-.767.543.543 0 0 1 .73-.289l1.754.808a.579.579 0 0 1 .275.762.547.547 0 0 1-.506.338m6.36.74a.563.563 0 0 1-.533-.456.564.564 0 0 1 .42-.681l1.88-.404c.298-.074.592.127.663.44a.587.587 0 0 1-.44.68l-1.883.405c-.032.015-.071.012-.106.017M46.038 49a.623.623 0 0 1-.224-.051l-.93-.426a.6.6 0 0 1-.286-.765c.137-.293.448-.429.726-.29l.777.348.706-.147c.302-.077.6.127.656.443a.561.561 0 0 1-.432.673l-.883.198c-.04.007-.075.013-.11.017"/>
        <path fill="#FADCEB" d="M94.534 39c-.26.003-.476-.279-.522-.676-.062-.46.124-.911.418-1.014l.913-.29c.29-.1.572.2.645.654.063.466-.134.908-.42 1.02l-.914.291a.413.413 0 0 1-.12.015M19.324 13a.75.75 0 0 1-.543-.237c-.724-.866-.785-.957-.78-1.18 0-.324.314-.58.69-.583.271.002.51.152.614.372.03.058.167.224.567.7.22.245.148.62-.147.806a.695.695 0 0 1-.4.122M21.77 15.625a.557.557 0 0 1-.445-.222c-.45-.555-.855-1.05-1.207-1.518a.543.543 0 0 1 .105-.775.597.597 0 0 1 .802.103c.356.46.754.968 1.2 1.519a.566.566 0 0 1-.098.777.658.658 0 0 1-.356.116m2.72 3.386a.564.564 0 0 1-.449-.212c-.417-.522-.822-1.03-1.218-1.504a.553.553 0 0 1 .108-.783.586.586 0 0 1 .799.103c.38.48.793.976 1.206 1.501a.54.54 0 0 1-.093.773.55.55 0 0 1-.352.122m2.73 3.383a.583.583 0 0 1-.458-.207c-.405-.515-.81-1.015-1.21-1.505a.555.555 0 0 1 .1-.781.583.583 0 0 1 .798.102c.401.488.798.991 1.215 1.501a.524.524 0 0 1-.097.772.539.539 0 0 1-.348.118m2.733 3.378a.58.58 0 0 1-.45-.21l-1.214-1.504a.544.544 0 0 1 .097-.779.594.594 0 0 1 .802.098l1.21 1.498a.537.537 0 0 1-.096.783.564.564 0 0 1-.349.114m2.726 3.376a.608.608 0 0 1-.438-.21l-1.21-1.502a.549.549 0 0 1 .084-.777c.252-.184.62-.149.806.097l1.216 1.493a.552.552 0 0 1-.09.785.62.62 0 0 1-.368.114m2.758 3.369a.623.623 0 0 1-.458-.204l-1.211-1.498a.55.55 0 0 1 .102-.785c.246-.19.6-.145.793.094l1.224 1.498c.193.24.145.59-.102.775a.51.51 0 0 1-.348.12m2.741 3.373a.571.571 0 0 1-.445-.209l-1.219-1.503a.53.53 0 0 1 .097-.774.586.586 0 0 1 .794.087L38.63 35c.198.236.146.576-.093.773a.594.594 0 0 1-.357.116m2.742 3.374a.566.566 0 0 1-.437-.206l-1.223-1.506a.54.54 0 0 1 .093-.777.572.572 0 0 1 .794.09l1.231 1.496a.563.563 0 0 1-.085.777.63.63 0 0 1-.373.126m2.75 3.367a.553.553 0 0 1-.437-.209l-1.231-1.491a.562.562 0 0 1 .097-.787.57.57 0 0 1 .79.096l1.235 1.497c.198.239.15.579-.097.784a.588.588 0 0 1-.357.11M46.43 46a.547.547 0 0 1-.445-.21l-1.228-1.5a.528.528 0 0 1 .098-.774.568.568 0 0 1 .794.09l1.23 1.488a.558.558 0 0 1-.093.785.608.608 0 0 1-.356.12M44.942 51.999c-.013.002-.033.002-.046-.006a.43.43 0 0 1-.312-.215l-.484-.806c-.156-.262-.127-.634.071-.84.195-.207.485-.169.637.099l.199.312.243-.26c.189-.214.475-.182.634.07a.705.705 0 0 1-.049.841l-.598.665a.383.383 0 0 1-.295.14M79.925 20.412a.572.572 0 0 1-.434-.198.586.586 0 0 1 .07-.818l1.496-1.265a.575.575 0 0 1 .806.075.56.56 0 0 1-.07.802l-1.496 1.269a.556.556 0 0 1-.372.135m-3.373 2.837a.602.602 0 0 1-.438-.2.583.583 0 0 1 .07-.811l1.496-1.261a.573.573 0 0 1 .81.075.554.554 0 0 1-.07.8l-1.492 1.267a.583.583 0 0 1-.376.13m-3.373 2.845a.608.608 0 0 1-.438-.203.583.583 0 0 1 .07-.811l1.504-1.258c.241-.2.601-.17.806.065a.582.582 0 0 1-.066.812l-1.496 1.253a.596.596 0 0 1-.38.142m-3.37 2.842a.61.61 0 0 1-.441-.205.574.574 0 0 1 .07-.801l1.504-1.266a.583.583 0 0 1 .81.067c.2.24.163.61-.074.81l-1.5 1.263a.588.588 0 0 1-.368.132m-3.374 2.842a.59.59 0 0 1-.441-.202.572.572 0 0 1 .078-.805l1.492-1.265c.246-.2.61-.175.81.067.208.24.18.6-.07.811l-1.497 1.255a.542.542 0 0 1-.372.139m-3.372 2.848a.605.605 0 0 1-.438-.208c-.2-.24-.18-.6.061-.803l1.509-1.262c.25-.207.6-.179.814.061.2.24.171.606-.07.814l-1.504 1.255a.559.559 0 0 1-.372.143M59.69 37.47a.6.6 0 0 1-.437-.21.57.57 0 0 1 .07-.801l1.5-1.265a.58.58 0 0 1 .805.065.58.58 0 0 1-.06.805l-1.51 1.264a.564.564 0 0 1-.368.142m-3.377 2.837a.566.566 0 0 1-.36-1.003l1.493-1.27c.241-.198.609-.18.805.064a.55.55 0 0 1-.07.808l-1.496 1.267a.535.535 0 0 1-.372.134M52.94 43.15a.525.525 0 0 1-.429-.197c-.196-.247-.18-.61.065-.81l1.505-1.267a.56.56 0 0 1 .797.07c.22.237.18.597-.061.796l-1.497 1.274a.527.527 0 0 1-.38.134M49.567 46a.582.582 0 0 1-.371-1.015l1.512-1.258a.555.555 0 0 1 .805.06.557.557 0 0 1-.07.799l-1.492 1.271a.568.568 0 0 1-.384.143M82.61 21a.617.617 0 0 1-.464-.223c-.216-.28-.19-.686.06-.909l.804-.713c.245-.235.624-.198.847.076.21.263.19.667-.07.909l-.794.703a.576.576 0 0 1-.383.157M41.065 4.999c-.463 0-.878-.208-.924-.486l-.139-.921c-.033-.3.33-.567.852-.59.509-.029.958.198 1.003.492l.14.923c.045.297-.33.555-.846.58a.397.397 0 0 1-.086.002M44.513 8.17c-.2 0-.377-.223-.391-.532l-.121-1.99c-.014-.324.14-.617.357-.646.226-.027.414.213.437.535l.112 1.991c.017.33-.14.62-.354.645l-.04-.002m.26 4.485c-.21-.003-.378-.226-.395-.538l-.118-1.995c-.014-.326.14-.613.366-.643.216-.025.405.222.428.542l.117 1.984c.018.327-.146.614-.36.652-.011-.002-.022-.002-.039-.002m.259 4.478c-.203.002-.372-.237-.394-.54l-.113-1.997c-.017-.325.141-.618.36-.643.217-.023.417.22.429.544l.123 1.99c.012.325-.146.608-.36.646-.017.004-.028 0-.045 0m.26 4.476c-.2 0-.367-.234-.39-.538l-.117-1.994c-.018-.325.146-.614.36-.64.222-.034.416.212.433.536l.118 1.99c.015.323-.146.618-.363.642-.014.004-.025.004-.042.004m.27 4.482c-.208.002-.38-.24-.394-.542l-.118-1.996c-.02-.323.14-.608.36-.64.22-.035.411.214.431.54l.118 1.984c.011.333-.143.618-.366.646a.034.034 0 0 1-.031.008m.26 4.478c-.204 0-.384-.236-.395-.548l-.118-1.98c-.017-.33.146-.622.36-.653.22-.026.411.21.43.541l.119 1.991c.017.33-.138.611-.366.639-.006.001-.017.008-.03.01m.258 4.472c-.203 0-.383-.23-.394-.541l-.118-1.995c-.014-.325.144-.6.363-.639.22-.03.408.213.428.54l.118 1.994c.017.325-.14.61-.363.63-.009.015-.014.01-.034.011m.26 4.476c-.204.003-.373-.23-.395-.537l-.11-1.99c-.025-.324.138-.62.358-.648.214-.024.405.215.428.537l.115 1.993c.02.326-.146.618-.358.648 0 0-.02-.003-.039-.003M46.593 44c-.2-.004-.369-.233-.388-.535l-.116-2c-.017-.33.141-.61.364-.636.22-.038.408.211.43.533l.115 1.993c.02.321-.146.612-.362.641-.014 0-.026.004-.043.004"/>
        <path fill="#FADCEB" d="M48.05 46c-.478-.002-.865-.214-.918-.495l-.126-.917c-.06-.297.326-.561.83-.586.526-.025.972.199 1.025.491l.134.92c.053.295-.333.555-.859.585-.02-.002-.046.002-.086.002"/>
        <path fill="#F0869B" d="M64 48.567C63.964 59.334 55.656 68.04 45.435 68 35.22 67.962 26.972 59.194 27 48.428c.04-10.76 8.356-19.463 18.57-19.428 10.22.042 18.473 8.81 18.43 19.567"/>
        <path fill="#FFDEA0" d="M66 48.568C65.96 59.338 57.64 68.034 47.418 68 37.21 67.958 28.958 59.2 29 48.43c.033-10.774 8.343-19.467 18.558-19.43 10.214.044 18.475 8.8 18.442 19.568"/>
    </g>
</svg>
