<svg xmlns="http://www.w3.org/2000/svg" xmlns:xlink="http://www.w3.org/1999/xlink" width="71" height="106" viewBox="0 0 71 106">
    <defs>
        <linearGradient id="a" x1="50%" x2="50%" y1="33.203%" y2="100%">
            <stop offset="0%" stop-color="#D2E911"/>
            <stop offset="100%" stop-color="#96BC00"/>
        </linearGradient>
        <path id="b" d="M510.5 982c-19.574 0-35.5 15.847-35.5 35.333 0 18.745 32.27 67.606 33.65 69.673a2.231 2.231 0 0 0 1.85.994c.745 0 1.438-.38 1.85-.994 1.376-2.067 33.65-50.928 33.65-69.673C546 997.847 530.074 982 510.5 982zm0 51c-8.547 0-15.5-6.953-15.5-15.5s6.953-15.5 15.5-15.5 15.5 6.953 15.5 15.5-6.953 15.5-15.5 15.5z"/>
        <filter id="c" width="105.6%" height="103.8%" x="-2.8%" y="-1.9%" filterUnits="objectBoundingBox">
            <feGaussianBlur in="SourceAlpha" result="shadowBlurInner1" stdDeviation="1"/>
            <feOffset dx="2" dy="1" in="shadowBlurInner1" result="shadowOffsetInner1"/>
            <feComposite in="shadowOffsetInner1" in2="SourceAlpha" k2="-1" k3="1" operator="arithmetic" result="shadowInnerInner1"/>
            <feColorMatrix in="shadowInnerInner1" values="0 0 0 0 0 0 0 0 0 0 0 0 0 0 0 0 0 0 0.304004589 0"/>
        </filter>
    </defs>
    <g fill="none" fill-rule="nonzero" transform="translate(-475 -982)">
        <use fill="url(#a)" xlink:href="#b"/>
        <use fill="#000" filter="url(#c)" xlink:href="#b"/>
    </g>
</svg>
