<svg width="66" height="83" viewBox="0 0 66 83" fill="none" xmlns="http://www.w3.org/2000/svg">
<path fill-rule="evenodd" clip-rule="evenodd" d="M43.7099 53.9906C45.2476 51.3873 47.5086 50.0537 50.5069 50.0181C53.5051 49.9825 55.0183 48.4355 55.0675 45.3912C55.1096 42.3611 56.4121 40.0708 58.9821 38.5202C61.559 36.9625 62.1172 34.8678 60.6497 32.2147C59.1892 29.5687 59.1892 26.9228 60.6497 24.2697C62.1172 21.6237 61.5625 19.5325 58.9821 17.9748C56.4121 16.4136 55.1061 14.1268 55.0675 11.0825C55.0183 8.05245 53.5051 6.50541 50.5069 6.46985C47.5086 6.42717 45.2476 5.10063 43.7099 2.49733C42.1721 -0.113072 40.1042 -0.678542 37.4921 0.808038C34.8801 2.28751 32.261 2.28751 29.6489 0.808038C27.0333 -0.674985 24.9654 -0.113072 23.4277 2.49733C21.8934 5.10418 19.6289 6.43073 16.6342 6.46985C13.6429 6.50541 12.1227 8.05245 12.0806 11.0825C12.0315 14.1268 10.7289 16.41 8.15898 17.9748C5.58202 19.5325 5.01677 21.6202 6.49133 24.2697C7.95886 26.9228 7.95886 29.5687 6.49133 32.2147C5.01677 34.8678 5.57851 36.9661 8.15898 38.5202C10.7289 40.0708 12.035 42.3611 12.0806 45.3912C12.1227 48.4319 13.6429 49.9825 16.6342 50.0181C19.6324 50.0537 21.8934 51.3873 23.4312 53.9906C24.9689 56.601 27.0368 57.1665 29.6489 55.6728C32.261 54.2076 34.8801 54.2076 37.4921 55.6728C40.1042 57.1629 42.1756 56.601 43.7099 53.9906ZM33.1028 47.1669C23.0428 47.1669 14.892 38.9097 14.892 28.7185C14.892 18.5352 23.0428 10.278 33.1028 10.278C43.1549 10.278 51.3058 18.5352 51.3058 28.7185C51.3058 38.9097 43.1549 47.1669 33.1028 47.1669ZM12.5907 50.7222C12.5907 50.7222 13.0215 52.1813 16.2455 52.1813C20.1601 52.264 21.3489 53.945 22.4767 55.5399C23.4911 56.9743 24.4561 58.3389 27.3103 58.4084C27.3103 58.2513 15.6782 81.8472 15.6782 81.8472L10.0955 73.6794L0 74.7824L12.5907 50.7222ZM53.3955 51.875C46.7123 52.5731 45.9394 53.9757 45.1737 55.3653C44.8975 55.8666 44.6222 56.3661 44.0708 56.8303C41.6784 59.3789 38.6897 58.8791 38.6897 58.8791L52.7282 83L56.1819 74.0676L66 75.3472L53.3955 51.875ZM36.3674 16.3137V35.7343C36.3674 35.9077 36.5004 36.0481 36.6646 36.048H39.7031C39.867 36.048 40 36.1885 40 36.3617V39.6863C40 39.8595 39.867 40 39.7031 40H27.7346C27.5706 40 27.4377 39.8595 27.4377 39.6863V36.3617C27.4377 36.1885 27.5706 36.048 27.7346 36.048H31.3785C31.5425 36.048 31.6755 35.9075 31.6755 35.7343V22.8762C31.6755 22.6107 31.3827 22.4653 31.1891 22.6346L28.5539 24.9397C28.425 25.0525 28.2335 25.0306 28.1304 24.8913L26.063 22.0959C25.9645 21.9627 25.9835 21.7711 26.1061 21.6624L32.4099 16.0733C32.4633 16.0259 32.531 16 32.6008 16H36.0705C36.2345 16 36.3674 16.1405 36.3674 16.3137Z" fill="#ABDD00"/>
</svg>
