<svg xmlns="http://www.w3.org/2000/svg" xmlns:xlink="http://www.w3.org/1999/xlink" width="104" height="97" viewBox="0 0 104 97">
    <defs>
        <path id="a" d="M0 .42h103.726V97H0z"/>
    </defs>
    <g fill="none" fill-rule="evenodd">
        <g>
            <mask id="b" fill="#fff">
                <use xlink:href="#a"/>
            </mask>
            <path fill="#A05CA1" d="M102.03 35.014c-1.443-1.054-3.458-1.263-5.183-1.41-2.393-.211-4.823.042-7.199.368a98.12 98.12 0 0 0-6.922 1.192c-1.613.342-3.185.78-4.753 1.26a78.762 78.762 0 0 0 3.084-2.728c3.797-3.465 7.2-7.288 9.07-12.144.751-1.911 1.13-4.827-.568-6.347-.816-.723-1.91-.82-2.931-.915-1.227-.123-2.482.284-3.633.65-3.575 1.146-6.635 3.289-9.547 5.602-2.465 1.947-4.862 3.95-7.078 6.172 2.006-3.432 3.893-6.935 5.445-10.604.998-2.363 1.758-4.854 2.076-7.412.232-1.896.2-3.977-.732-5.691C71.996.876 69.664.55 67.549 1.299c-2.08.73-3.79 2.715-5.128 4.382-1.717 2.167-3.122 4.555-4.409 6.992-1.35 2.562-2.601 5.158-3.619 7.871a62.224 62.224 0 0 0-1.777 5.666c.192-2.368.49-4.723.659-7.093.193-2.624.238-5.306-.064-7.93-.274-2.441-1.195-4.71-2.22-6.92-.986-2.113-2.727-3.676-5.12-3.836-2.216-.144-4.371 1.033-5.707 2.736-1.263 1.608-1.85 3.58-2.12 5.591-.35 2.591-.309 5.13.086 7.72.522 3.507 1.334 6.982 2.332 10.413-.108-.18-.213-.365-.322-.542-2.663-4.381-5.92-8.252-9.572-11.847-1.693-1.666-3.346-3.223-5.356-4.514-1.65-1.073-3.443-2.063-5.454-2.18-4.287-.255-5.892 4.443-5.735 7.9.057 1.349.474 2.683.889 3.955a38.367 38.367 0 0 0 1.99 4.888c1.52 3.097 3.516 5.896 5.788 8.48-2.232-1.228-4.549-2.298-6.938-3.144-2.328-.841-4.765-1.388-7.223-1.677-1.75-.21-3.479-.272-5.164.355-1.693.637-2.895 1.882-3.282 3.66-.442 2.091.958 4.126 2.209 5.642 2.192 2.662 5.047 4.639 7.926 6.509 2.976 1.93 6.335 3.268 9.757 4.202 1.484.41 2.996.702 4.52.924a79.825 79.825 0 0 0-10.448 2.915 33.824 33.824 0 0 0-6.54 3.146c-1.817 1.132-3.47 2.39-4.664 4.197-1.095 1.653-1.846 4.476-.117 5.934 1.717 1.452 3.99 2.003 6.17 2.215 3.18.317 6.478-.143 9.631-.624 2.168-.34 4.32-.782 6.44-1.304a90.23 90.23 0 0 0-4.01 4.31c-3.142 3.582-5.889 8.146-5.792 13.053.044 2.249 1.078 4.306 3.33 5.005 1.939.612 4.102.038 5.904-.743 3.105-1.334 5.799-3.763 8.172-6.092 2.558-2.513 4.69-5.355 6.881-8.17 1.275-1.63 2.385-3.35 3.423-5.114-.676 4.746-.893 9.529-.567 14.325.173 2.525.675 4.965 1.456 7.372.55 1.674 1.178 3.438 2.18 4.91 1.04 1.526 2.633 2.496 4.54 2.057 2-.468 3.226-2.293 4.026-4.026 1.17-2.518 1.677-5.404 2.007-8.129.41-3.42.434-6.934.241-10.37a63.165 63.165 0 0 0-.129-1.894c1.576 3.157 3.298 6.232 5.349 9.142.704.988 1.404 2.021 2.273 2.87 1.009.98 2.022 1.96 3.072 2.894 1.637 1.463 3.624 3.009 5.9 3.189 2.006.156 3.885-.92 4.553-2.838.76-2.18-.04-4.632-.76-6.713-1.493-4.344-3.745-8.454-6.294-12.32a58.015 58.015 0 0 0 4.544 2.727 49.493 49.493 0 0 0 6.881 3.094c2.055.76 4.175 1.488 6.358 1.706 2.196.22 4.67-.406 5.965-2.303 1.085-1.618.768-3.532.04-5.215-1.356-3.112-3.97-5.813-6.483-8.025-2.912-2.563-6.217-4.61-9.556-6.56a52.432 52.432 0 0 0-2.726-1.512 94.098 94.098 0 0 0 8.69-2.049c4.457-1.267 9.061-2.81 13.136-5.042 2.026-1.118 4.061-2.526 5.344-4.48 1.288-1.97 1.078-4.607-.884-6.026" mask="url(#b)"/>
        </g>
        <path fill="#FADCEB" d="M68.734 5a.877.877 0 0 1-.33-.057c-.361-.137-.507-.479-.327-.76l.557-.87c.18-.28.611-.395.972-.25.356.139.496.48.315.759l-.556.866c-.115.198-.37.312-.631.312M67.544 8.895a.637.637 0 0 1-.267-.064.579.579 0 0 1-.258-.777L67.9 6.32a.57.57 0 0 1 .773-.257.563.563 0 0 1 .263.77l-.874 1.74a.592.592 0 0 1-.518.322m-1.97 3.905a.877.877 0 0 1-.27-.056.584.584 0 0 1-.25-.785l.868-1.73a.588.588 0 0 1 .781-.262.578.578 0 0 1 .267.775l-.873 1.744a.61.61 0 0 1-.523.314m-1.97 3.906a.569.569 0 0 1-.517-.835l.87-1.74a.577.577 0 0 1 .78-.257c.288.14.405.49.26.775l-.87 1.732a.59.59 0 0 1-.522.325m-1.966 3.905a.577.577 0 0 1-.266-.056.58.58 0 0 1-.263-.784l.877-1.737a.573.573 0 0 1 .777-.251.575.575 0 0 1 .27.765l-.881 1.738a.577.577 0 0 1-.514.325m-1.97 3.91a.479.479 0 0 1-.266-.067.571.571 0 0 1-.259-.777l.87-1.736a.591.591 0 0 1 .784-.257c.291.14.405.49.26.771l-.875 1.744a.578.578 0 0 1-.513.321m-1.97 3.897a.617.617 0 0 1-.267-.054.571.571 0 0 1-.258-.777l.873-1.738a.596.596 0 0 1 .784-.257c.292.139.4.487.263.775l-.877 1.739a.577.577 0 0 1-.518.312m-1.966 3.911a.714.714 0 0 1-.27-.06.578.578 0 0 1-.256-.78l.87-1.733a.584.584 0 0 1 1.044.519l-.874 1.734a.588.588 0 0 1-.514.32m-1.97 3.906a.56.56 0 0 1-.266-.064.576.576 0 0 1-.263-.78l.878-1.732a.584.584 0 0 1 .78-.252.574.574 0 0 1 .259.775l-.873 1.728a.597.597 0 0 1-.514.325m-1.974 3.9a.577.577 0 0 1-.526-.834l.878-1.739a.576.576 0 0 1 .776-.252.57.57 0 0 1 .263.779l-.873 1.728a.591.591 0 0 1-.518.319m-1.966 3.913a.615.615 0 0 1-.267-.064.58.58 0 0 1-.263-.775l.874-1.733a.59.59 0 0 1 .777-.268c.295.142.412.5.27.78l-.877 1.741a.605.605 0 0 1-.514.32m-.194 4.298a.578.578 0 0 1-.594-.572L49 45.842a.59.59 0 0 1 .583-.583.577.577 0 0 1 .594.561l.028 1.939a.585.585 0 0 1-.574.588m.069 4.36a.575.575 0 0 1-.595-.566l-.036-1.937a.59.59 0 0 1 .583-.584.581.581 0 0 1 .59.566l.032 1.939c0 .32-.25.578-.574.582m.065 4.368a.575.575 0 0 1-.595-.564l-.028-1.94a.581.581 0 0 1 .574-.59.58.58 0 0 1 .595.571l.028 1.94a.58.58 0 0 1-.574.583m.064 4.366a.57.57 0 0 1-.59-.564l-.033-1.94a.584.584 0 1 1 1.17-.022l.027 1.943a.57.57 0 0 1-.574.583m.065 4.362a.581.581 0 0 1-.59-.561l-.028-1.944a.575.575 0 0 1 .573-.582.578.578 0 0 1 .59.563l.03 1.943a.572.572 0 0 1-.575.58m.073 4.37a.588.588 0 0 1-.599-.564l-.024-1.947a.577.577 0 0 1 .574-.582.575.575 0 0 1 .59.566l.025 1.945a.57.57 0 0 1-.566.581m.065 4.365a.588.588 0 0 1-.6-.563l-.023-1.942a.575.575 0 0 1 .574-.587.581.581 0 0 1 .59.565l.033 1.948a.575.575 0 0 1-.574.58m.064 4.373a.589.589 0 0 1-.594-.574l-.028-1.94a.582.582 0 0 1 .578-.586.581.581 0 0 1 .59.57l.029 1.942a.585.585 0 0 1-.575.588m.069 4.362a.584.584 0 0 1-.59-.57l-.037-1.94c0-.314.263-.582.579-.586a.58.58 0 0 1 .59.569l.032 1.939a.58.58 0 0 1-.574.588m.069 4.362a.573.573 0 0 1-.591-.567l-.036-1.942a.598.598 0 0 1 .578-.587.587.587 0 0 1 .59.57l.033 1.941a.574.574 0 0 1-.574.585M50.298 92a.574.574 0 0 1-.59-.567l-.032-1.946a.578.578 0 0 1 .574-.58.572.572 0 0 1 .59.563l.033 1.945a.577.577 0 0 1-.575.585M50.038 95c-.546.006-.997-.233-1.01-.53L49 93.548c-.006-.297.43-.54.97-.548.553-.004.996.235 1.003.527l.027.925c.007.298-.423.548-.962.548M21.669 84a.643.643 0 0 1-.406-.122.561.561 0 0 1-.133-.835l.685-.81a.71.71 0 0 1 .923-.113c.287.2.351.57.127.832l-.68.81a.695.695 0 0 1-.516.237M46.244 51.761a.537.537 0 0 1-.344-.11.58.58 0 0 1-.112-.801l1.206-1.62a.547.547 0 0 1 .786-.112.583.583 0 0 1 .108.801l-1.207 1.62a.547.547 0 0 1-.437.222m-2.714 3.655a.598.598 0 0 1-.34-.104.586.586 0 0 1-.108-.801l1.206-1.634c.186-.25.541-.3.78-.111.245.2.291.552.101.804l-1.198 1.625a.558.558 0 0 1-.44.221m-2.704 3.656a.53.53 0 0 1-.348-.113.573.573 0 0 1-.104-.799l1.198-1.628a.553.553 0 0 1 .781-.111c.248.19.302.556.112.8l-1.21 1.623a.537.537 0 0 1-.429.228m-2.71 3.653a.578.578 0 0 1-.349-.115.58.58 0 0 1-.1-.802l1.199-1.624a.55.55 0 0 1 .781-.108.582.582 0 0 1 .109.799l-1.207 1.628a.555.555 0 0 1-.433.222m-2.71 3.648a.562.562 0 0 1-.353-.11.587.587 0 0 1-.104-.8l1.21-1.625a.54.54 0 0 1 .777-.108.58.58 0 0 1 .109.8l-1.203 1.624a.541.541 0 0 1-.437.219m-2.71 3.66a.56.56 0 0 1-.348-.114.592.592 0 0 1-.104-.808l1.202-1.611a.544.544 0 0 1 .788-.115c.24.192.287.55.1.8l-1.205 1.617a.538.538 0 0 1-.434.232m-2.71 3.655a.565.565 0 0 1-.348-.12.585.585 0 0 1-.104-.803l1.206-1.625a.556.556 0 0 1 .781-.11.6.6 0 0 1 .113.803l-1.21 1.627a.551.551 0 0 1-.438.228m-2.71 3.655a.483.483 0 0 1-.34-.12.589.589 0 0 1-.11-.808l1.2-1.624a.554.554 0 0 1 .785-.098c.243.186.29.547.104.804l-1.199 1.615a.562.562 0 0 1-.44.231M24.568 81a.562.562 0 0 1-.348-.12.584.584 0 0 1-.108-.802l1.206-1.622a.548.548 0 0 1 .778-.115.58.58 0 0 1 .107.803l-1.195 1.622a.576.576 0 0 1-.44.234"/>
        <path fill="#FADCEB" d="M49.5 48a.506.506 0 0 1-.445-.281l-.067-.116-.074.11a.48.48 0 0 1-.717.113.648.648 0 0 1-.099-.81l.534-.781a.493.493 0 0 1 .434-.234.52.52 0 0 1 .41.28l.448.845c.148.271.074.627-.17.793A.453.453 0 0 1 49.5 48M52.623 50.879a.59.59 0 0 1-.495-.274l-1.047-1.736a.576.576 0 0 1 .198-.786.564.564 0 0 1 .785.203l1.04 1.722a.564.564 0 0 1-.19.783.56.56 0 0 1-.29.088m2.355 3.888a.574.574 0 0 1-.496-.278l-1.05-1.732a.569.569 0 0 1 .19-.781.58.58 0 0 1 .789.188l1.05 1.734a.588.588 0 0 1-.194.788.727.727 0 0 1-.29.081m2.352 3.893a.59.59 0 0 1-.5-.278l-1.046-1.734a.573.573 0 0 1 .19-.785.573.573 0 0 1 .785.192l1.051 1.732a.57.57 0 0 1-.194.788.667.667 0 0 1-.286.085m2.356 3.882a.588.588 0 0 1-.516-.275l-1.03-1.726a.568.568 0 0 1 .19-.788.578.578 0 0 1 .785.194l1.047 1.725a.574.574 0 0 1-.199.787.473.473 0 0 1-.277.083m2.343 3.893a.575.575 0 0 1-.499-.274l-1.043-1.726a.58.58 0 0 1 .195-.789.575.575 0 0 1 .788.188l1.043 1.73a.578.578 0 0 1-.484.871m2.352 3.889a.567.567 0 0 1-.5-.275l-1.043-1.725a.567.567 0 0 1 .195-.787.57.57 0 0 1 .785.188l1.047 1.73c.158.27.079.627-.199.787a.487.487 0 0 1-.285.082m2.351 3.889a.547.547 0 0 1-.496-.27l-1.054-1.726a.58.58 0 0 1 .198-.792.576.576 0 0 1 .789.192l1.051 1.731a.575.575 0 0 1-.488.865m2.352 3.894a.565.565 0 0 1-.5-.277l-1.043-1.728a.566.566 0 0 1 .195-.784.572.572 0 0 1 .784.192l1.051 1.729a.577.577 0 0 1-.487.868M71.435 82a.579.579 0 0 1-.503-.28l-1.043-1.724a.581.581 0 0 1 .198-.785.574.574 0 0 1 .785.188l1.047 1.732a.573.573 0 0 1-.484.869M73.32 86c-.23 0-.475-.094-.604-.276l-.61-.847c-.207-.272-.101-.633.23-.795.322-.166.754-.07.946.196l.619.843c.197.274.091.633-.24.795a.789.789 0 0 1-.34.084M4.567 64c-.234.002-.453-.195-.534-.502-.103-.398.042-.846.326-.985l.887-.464c.288-.149.617.053.717.452.111.403-.038.848-.33.98l-.882.471c-.065.021-.127.048-.184.048"/>
        <path fill="#FADCEB" d="M45.543 48.883a.595.595 0 0 1-.566-.387.58.58 0 0 1 .353-.757l1.87-.698a.583.583 0 0 1 .762.338.598.598 0 0 1-.353.773l-1.873.698a.626.626 0 0 1-.193.033m-4.218 1.566a.598.598 0 0 1-.57-.385.614.614 0 0 1 .357-.768l1.877-.697a.597.597 0 0 1 .41 1.123l-1.877.694a.58.58 0 0 1-.197.033m-4.214 1.569a.603.603 0 0 1-.566-.379.602.602 0 0 1 .352-.769l1.874-.697a.593.593 0 0 1 .763.355.59.59 0 0 1-.357.755l-1.87.702a.728.728 0 0 1-.196.033m-4.223 1.57a.581.581 0 0 1-.557-.385.6.6 0 0 1 .344-.764l1.878-.701a.603.603 0 0 1 .766.354.594.594 0 0 1-.36.76l-1.87.7a.473.473 0 0 1-.2.036m-4.21 1.566a.581.581 0 0 1-.563-.388.583.583 0 0 1 .345-.757l1.878-.701a.594.594 0 0 1 .758.352.606.606 0 0 1-.348.77l-1.874.69a.618.618 0 0 1-.197.034m-4.214 1.573a.591.591 0 0 1-.561-.386.592.592 0 0 1 .348-.766l1.878-.698a.59.59 0 0 1 .754.354.595.595 0 0 1-.349.762l-1.873.693a.492.492 0 0 1-.197.041m-4.218 1.568a.585.585 0 0 1-.562-.39.59.59 0 0 1 .345-.76l1.877-.704a.604.604 0 0 1 .763.352.602.602 0 0 1-.353.771l-1.87.698a.717.717 0 0 1-.2.033m-4.214 1.578a.607.607 0 0 1-.566-.396.593.593 0 0 1 .357-.765l1.869-.703a.601.601 0 0 1 .759.356.592.592 0 0 1-.353.765l-1.87.7a.799.799 0 0 1-.196.043m-4.219 1.557a.589.589 0 0 1-.565-.386.596.596 0 0 1 .353-.76l1.873-.695a.589.589 0 0 1 .758.343.604.604 0 0 1-.348.772l-1.874.697a.714.714 0 0 1-.197.029M7.6 63a.593.593 0 0 1-.212-1.15l1.876-.693a.577.577 0 0 1 .755.347.603.603 0 0 1-.348.767l-1.874.692A.469.469 0 0 1 7.6 63M50.416 48a.57.57 0 0 1-.333-.116l-.608-.447-.67.288c-.312.133-.652-.044-.768-.392-.115-.355.046-.752.35-.887l.948-.404a.548.548 0 0 1 .535.063l.854.63c.28.205.357.636.185.941-.12.204-.3.317-.493.324M55.23 49.182a.593.593 0 0 1-.32-.085l-1.641-1.029a.572.572 0 0 1-.176-.796.582.582 0 0 1 .809-.179l1.638 1.027a.571.571 0 0 1 .179.796.593.593 0 0 1-.488.266m3.69 2.309a.608.608 0 0 1-.329-.09l-1.63-1.026a.568.568 0 0 1-.183-.798.595.595 0 0 1 .809-.173l1.642 1.027c.268.17.354.532.178.797a.577.577 0 0 1-.487.263m3.686 2.317a.565.565 0 0 1-.32-.097l-1.643-1.025a.571.571 0 0 1-.178-.796.606.606 0 0 1 .816-.173l1.634 1.029a.575.575 0 0 1 .183.795.62.62 0 0 1-.492.267m3.699 2.309a.547.547 0 0 1-.334-.082l-1.641-1.039a.55.55 0 0 1-.175-.783.586.586 0 0 1 .812-.182l1.638 1.027a.58.58 0 0 1 .18.8.577.577 0 0 1-.48.259m3.677 2.316a.681.681 0 0 1-.325-.09l-1.637-1.032a.566.566 0 0 1-.18-.795.594.594 0 0 1 .81-.174l1.641 1.029a.573.573 0 0 1 .183.793.61.61 0 0 1-.492.27m3.687 2.314a.567.567 0 0 1-.313-.094l-1.65-1.028a.578.578 0 0 1-.175-.798.595.595 0 0 1 .81-.171l1.64 1.029c.273.17.346.532.18.791a.615.615 0 0 1-.492.271m3.69 2.308a.577.577 0 0 1-.325-.092l-1.638-1.027a.565.565 0 0 1-.175-.796c.162-.265.533-.346.813-.172l1.634 1.034a.553.553 0 0 1 .174.79.57.57 0 0 1-.483.263m3.69 2.316a.578.578 0 0 1-.325-.098l-1.642-1.023a.573.573 0 0 1-.179-.8.601.601 0 0 1 .813-.169l1.638 1.027a.563.563 0 0 1 .174.796.584.584 0 0 1-.479.267m3.682 2.313a.584.584 0 0 1-.325-.094l-1.634-1.03a.565.565 0 0 1-.183-.79.604.604 0 0 1 .817-.176l1.642 1.03c.268.166.345.52.179.797a.612.612 0 0 1-.496.263M88.422 70a.59.59 0 0 1-.32-.096l-1.639-1.029a.58.58 0 0 1-.183-.794.578.578 0 0 1 .809-.171l1.638 1.025c.28.172.354.532.178.795a.605.605 0 0 1-.483.27M90.421 73a.556.556 0 0 1-.317-.107l-.838-.628c-.27-.203-.347-.623-.174-.95.166-.32.524-.412.798-.202l.846.63c.261.2.35.627.169.945a.573.573 0 0 1-.484.312M7.454 34a.587.587 0 0 1-.227-.051l-.884-.506c-.286-.158-.417-.597-.301-.984.123-.37.451-.563.733-.402l.876.5c.29.159.425.601.306.983-.09.285-.294.458-.503.46"/>
        <path fill="#FADCEB" d="M11.432 35.9a.539.539 0 0 1-.228-.046l-1.849-.764a.55.55 0 0 1-.307-.735.58.58 0 0 1 .756-.31l1.852.766c.293.117.429.45.309.744a.592.592 0 0 1-.533.344m4.17 1.722a.673.673 0 0 1-.232-.045l-1.85-.764a.56.56 0 0 1-.307-.743.576.576 0 0 1 .752-.304l1.849.76a.568.568 0 0 1-.212 1.096m4.166 1.715a.621.621 0 0 1-.237-.045l-1.848-.762a.561.561 0 0 1-.304-.74.572.572 0 0 1 .752-.305l1.853.762a.564.564 0 0 1 .308.742.568.568 0 0 1-.524.348m4.166 1.718a.62.62 0 0 1-.233-.046l-1.857-.76a.568.568 0 0 1-.308-.735.585.585 0 0 1 .757-.317l1.856.765a.58.58 0 0 1 .309.755.583.583 0 0 1-.524.338m71.536-.646a.596.596 0 0 1-.573-.445c-.072-.307.128-.605.44-.682l1.949-.434c.32-.075.629.12.7.426a.565.565 0 0 1-.432.678l-1.96.432a.655.655 0 0 1-.124.025m-4.402.976a.57.57 0 0 1-.572-.441.555.555 0 0 1 .436-.672l1.952-.444a.584.584 0 0 1 .697.427.568.568 0 0 1-.429.68l-1.964.437c-.04.013-.08.013-.12.013m-62.969 1.393a.553.553 0 0 1-.228-.051l-1.857-.76a.557.557 0 0 1-.304-.743.58.58 0 0 1 .756-.306l1.849.762c.292.13.432.461.304.748a.56.56 0 0 1-.52.35m58.563-.4a.58.58 0 0 1-.568-.446.565.565 0 0 1 .428-.682l1.957-.428a.568.568 0 0 1 .696.418.556.556 0 0 1-.436.676l-1.956.444c-.045.003-.081.018-.12.018m-4.407.98a.575.575 0 0 1-.568-.437.565.565 0 0 1 .428-.683l1.961-.43a.57.57 0 0 1 .692.42.567.567 0 0 1-.428.678l-1.961.441c-.048.007-.08.007-.124.01m-49.991 1.136a.465.465 0 0 1-.237-.048l-1.848-.756a.568.568 0 0 1-.308-.746.591.591 0 0 1 .76-.306l1.853.766a.562.562 0 0 1 .304.736.571.571 0 0 1-.524.354m45.586-.15a.58.58 0 0 1-.573-.443.567.567 0 0 1 .44-.676l1.957-.442c.309-.069.62.124.688.429a.56.56 0 0 1-.424.679l-1.96.438a.517.517 0 0 1-.128.016m-4.406.983a.575.575 0 0 1-.569-.439.57.57 0 0 1 .436-.684l1.953-.432a.574.574 0 0 1 .697.43.566.566 0 0 1-.432.674l-1.962.432a.198.198 0 0 1-.123.02m-37.019.88a.506.506 0 0 1-.231-.044l-1.854-.768a.546.546 0 0 1-.3-.738.577.577 0 0 1 .752-.303l1.849.764a.568.568 0 0 1 .313.743.593.593 0 0 1-.529.346m32.613.103a.562.562 0 0 1-.564-.44.57.57 0 0 1 .436-.68l1.953-.439a.577.577 0 0 1 .689.426.558.558 0 0 1-.43.678l-1.956.442c-.052.005-.088.013-.128.013m-4.406.982a.574.574 0 0 1-.568-.436.56.56 0 0 1 .437-.673l1.96-.45a.585.585 0 0 1 .688.429c.068.31-.12.61-.436.68l-1.96.437c-.045.006-.076.011-.12.013m-24.038.641a.528.528 0 0 1-.236-.051l-1.853-.766a.555.555 0 0 1-.304-.738.58.58 0 0 1 .753-.307l1.852.771c.3.112.436.452.304.741a.574.574 0 0 1-.516.35m19.632.347a.576.576 0 0 1-.573-.44.575.575 0 0 1 .437-.679l1.96-.44a.57.57 0 1 1 .256 1.108l-1.96.442c-.04 0-.076.01-.12.01m-4.402.983a.581.581 0 0 1-.577-.441.575.575 0 0 1 .437-.678l1.957-.436a.582.582 0 0 1 .7.431.588.588 0 0 1-.44.68l-1.957.43c-.04.014-.076.014-.12.014m-11.064.38a.687.687 0 0 1-.237-.044l-1.852-.758a.574.574 0 0 1-.309-.746.582.582 0 0 1 .76-.304l1.85.764a.557.557 0 0 1 .303.74.555.555 0 0 1-.515.348m6.658.61a.59.59 0 0 1-.572-.447.578.578 0 0 1 .436-.678l1.957-.436a.586.586 0 0 1 .696.424.582.582 0 0 1-.44.69l-1.957.43c-.036.004-.08.017-.12.017M48.05 51a.494.494 0 0 1-.235-.043l-.973-.403a.568.568 0 0 1-.312-.738.584.584 0 0 1 .76-.305l.805.334.74-.17c.316-.061.62.125.692.431a.556.556 0 0 1-.44.676l-.92.21a.433.433 0 0 1-.116.008M100.556 39c-.256.005-.487-.268-.543-.65-.064-.457.117-.913.407-1.011l.906-.32c.303-.096.593.18.661.627.064.457-.117.907-.415 1.003l-.91.322c-.03.017-.075.02-.106.029M19.345 14a.677.677 0 0 1-.532-.238c-.758-.853-.808-.942-.813-1.164-.01-.327.291-.594.661-.598.282-.002.527.144.629.36.036.053.16.224.572.686.222.256.171.63-.12.83a.809.809 0 0 1-.397.124M22.835 17.716a.553.553 0 0 1-.457-.215c-.457-.57-.88-1.092-1.253-1.559a.585.585 0 0 1 .088-.813.573.573 0 0 1 .81.085c.379.476.8.991 1.252 1.56a.585.585 0 0 1-.084.82.615.615 0 0 1-.356.122m2.827 3.492a.568.568 0 0 1-.465-.218c-.44-.532-.857-1.058-1.253-1.548a.566.566 0 0 1 .092-.813.58.58 0 0 1 .805.081c.4.503.813 1.018 1.262 1.556a.59.59 0 0 1-.089.818.596.596 0 0 1-.352.124m2.831 3.483a.549.549 0 0 1-.452-.206 402.79 402.79 0 0 0-1.266-1.55.584.584 0 0 1 .084-.817.59.59 0 0 1 .817.084l1.25 1.545a.581.581 0 0 1-.076.822.604.604 0 0 1-.357.122m2.843 3.486a.596.596 0 0 1-.46-.215l-1.261-1.539a.587.587 0 0 1 .08-.82.575.575 0 0 1 .812.084l1.262 1.545a.58.58 0 0 1-.076.812.568.568 0 0 1-.357.133m2.84 3.474a.593.593 0 0 1-.457-.212l-1.265-1.54a.576.576 0 0 1 .084-.812.565.565 0 0 1 .813.08l1.258 1.538a.56.56 0 0 1-.08.81.557.557 0 0 1-.353.136m2.844 3.473a.59.59 0 0 1-.453-.21l-1.27-1.547a.573.573 0 0 1 .084-.813.574.574 0 0 1 .81.074l1.269 1.545a.576.576 0 0 1-.084.815.563.563 0 0 1-.356.136m2.855 3.469a.597.597 0 0 1-.461-.209l-1.265-1.545a.572.572 0 0 1 .084-.81.57.57 0 0 1 .812.072l1.262 1.555a.566.566 0 0 1-.08.803.544.544 0 0 1-.352.134m2.843 3.474a.577.577 0 0 1-.448-.207L41 40.31a.585.585 0 0 1 .08-.816.581.581 0 0 1 .813.082l1.266 1.545a.58.58 0 0 1-.077.815.563.563 0 0 1-.364.13m2.855 3.469a.565.565 0 0 1-.456-.213l-1.266-1.539a.58.58 0 0 1 .893-.738l1.266 1.549a.576.576 0 0 1-.072.81.586.586 0 0 1-.365.13M48.43 49a.548.548 0 0 1-.453-.207l-1.273-1.54a.582.582 0 0 1 .083-.815.589.589 0 0 1 .817.08l1.262 1.545a.574.574 0 0 1-.072.81.573.573 0 0 1-.364.127"/>
        <path fill="#FADCEB" d="M49.45 49.998c-.024 0-.043 0-.072.002a.762.762 0 0 1-.475-.215l-.746-.804c-.242-.251-.2-.629.095-.844.295-.209.727-.18.974.092l.29.305.346-.274c.286-.217.723-.192.97.06.247.24.219.625-.062.845l-.88.684a.769.769 0 0 1-.44.149M82.918 22.47a.575.575 0 0 1-.441-.195.567.567 0 0 1 .052-.813l1.498-1.316a.576.576 0 0 1 .822.057c.219.236.199.6-.052.817l-1.499 1.301a.566.566 0 0 1-.38.15m-3.365 2.948a.607.607 0 0 1-.45-.194.586.586 0 0 1 .053-.825l1.502-1.3a.576.576 0 0 1 .826.046.582.582 0 0 1-.052.82l-1.494 1.305a.582.582 0 0 1-.385.148m-3.369 2.948a.595.595 0 0 1-.45-.19.591.591 0 0 1 .053-.83l1.502-1.31a.58.58 0 0 1 .819.057.584.584 0 0 1-.05.817l-1.498 1.315a.636.636 0 0 1-.376.141M72.82 31.31a.603.603 0 0 1-.453-.186.584.584 0 0 1 .053-.829l1.494-1.309a.59.59 0 0 1 .826.055.581.581 0 0 1-.049.82l-1.506 1.31a.567.567 0 0 1-.365.139m-3.376 2.952a.557.557 0 0 1-.442-.202.564.564 0 0 1 .044-.815l1.499-1.31a.567.567 0 0 1 .818.055.568.568 0 0 1-.04.816l-1.503 1.306a.577.577 0 0 1-.376.15m-3.37 2.947a.568.568 0 0 1-.449-.201.58.58 0 0 1 .053-.822l1.498-1.303a.58.58 0 1 1 .77.87l-1.49 1.307a.591.591 0 0 1-.381.15m-3.37 2.942a.58.58 0 0 1-.396-1.018l1.494-1.304a.601.601 0 0 1 .835.049.595.595 0 0 1-.061.824l-1.499 1.31a.597.597 0 0 1-.372.139m-3.377 2.952a.573.573 0 0 1-.437-.195.578.578 0 0 1 .044-.827l1.502-1.31a.586.586 0 0 1 .773.88l-1.506 1.305a.552.552 0 0 1-.376.147M55.96 46.05a.583.583 0 0 1-.445-.197.593.593 0 0 1 .053-.827l1.498-1.305a.59.59 0 0 1 .826.051.58.58 0 0 1-.057.82l-1.49 1.31a.548.548 0 0 1-.385.148M52.591 49a.603.603 0 0 1-.446-.2.588.588 0 0 1 .049-.822l1.498-1.312a.609.609 0 0 1 .834.052c.202.247.186.615-.057.82l-1.502 1.31a.635.635 0 0 1-.376.152M86.62 19a.602.602 0 0 1-.473-.215.663.663 0 0 1 .06-.898l.783-.722a.59.59 0 0 1 .86.046.677.677 0 0 1-.054.909l-.784.727a.582.582 0 0 1-.393.153M45.105 4c-.484.002-.885-.204-.922-.484l-.178-.92c-.05-.294.312-.56.813-.593.508-.032.966.183 1.017.48l.159.915c.057.3-.298.565-.814.592-.025.008-.057.008-.075.01M44.783 9.099a.573.573 0 0 1-.577-.512l-.202-1.945a.575.575 0 0 1 .506-.64c.312-.026.589.2.629.52l.202 1.936a.575.575 0 0 1-.507.632c-.016.009-.036.009-.051.009zm.459 4.365a.577.577 0 0 1-.578-.521l-.21-1.936a.578.578 0 0 1 .515-.64.572.572 0 0 1 .625.515l.201 1.936a.568.568 0 0 1-.506.632l-.047.014zm.45 4.356a.566.566 0 0 1-.569-.511l-.206-1.945a.575.575 0 0 1 .506-.633.566.566 0 0 1 .625.51l.206 1.94a.575.575 0 0 1-.506.633c-.017.006-.036.006-.056.006zm.459 4.364a.57.57 0 0 1-.574-.522l-.2-1.93a.582.582 0 0 1 .5-.644.58.58 0 0 1 .63.516l.197 1.936a.578.578 0 0 1-.498.644h-.055zm.458 4.362a.585.585 0 0 1-.58-.52l-.202-1.936a.584.584 0 0 1 .51-.638.573.573 0 0 1 .628.512l.202 1.938a.577.577 0 0 1-.51.642c-.016.002-.036.002-.048.002zm.455 4.36a.572.572 0 0 1-.577-.516l-.202-1.94a.575.575 0 0 1 .51-.64.582.582 0 0 1 .629.52l.197 1.944a.572.572 0 0 1-.502.632s-.035.002-.055 0zm.458 4.364a.578.578 0 0 1-.58-.52l-.198-1.936a.584.584 0 0 1 .506-.644.587.587 0 0 1 .629.526l.197 1.934a.584.584 0 0 1-.502.64h-.052zm.46 4.362a.58.58 0 0 1-.582-.52l-.197-1.932a.579.579 0 0 1 .498-.644.575.575 0 0 1 .632.518l.206 1.938a.588.588 0 0 1-.514.634c-.016.004-.032.004-.043.006zm.45 4.368a.581.581 0 0 1-.573-.522l-.21-1.942a.58.58 0 0 1 .514-.634.561.561 0 0 1 .625.511l.21 1.943a.58.58 0 0 1-.515.632c-.015.002-.031.012-.05.012zM49.105 47c-.483.004-.884-.205-.928-.473l-.171-.933c-.058-.292.318-.559.826-.59.495-.034.952.185.997.475l.165.928c.057.295-.298.56-.807.59-.038 0-.07 0-.082.003"/>
        <path fill="#F0869B" d="M67.998 46.706c.158 10.495-8.22 19.13-18.715 19.292-10.492.154-19.122-8.221-19.28-18.712-.167-10.487 8.21-19.127 18.706-19.284 10.487-.16 19.122 8.22 19.289 18.704"/>
        <path fill="#FFDEA0" d="M66.998 46.219c.152 10.213-8 18.624-18.217 18.779-10.22.159-18.626-8.005-18.779-18.217-.157-10.22 7.997-18.626 18.22-18.779 10.216-.154 18.62 8.003 18.776 18.217"/>
    </g>
</svg>
