<svg xmlns="http://www.w3.org/2000/svg" xmlns:xlink="http://www.w3.org/1999/xlink" width="58" height="83" viewBox="0 0 58 83">
    <defs>
        <path id="a" d="M0 .415h57.586V58.1H0z"/>
        <path id="c" d="M.266.24h38.9v37.941H.265z"/>
    </defs>
    <g fill="none" fill-rule="evenodd">
        <g transform="translate(0 24.9)">
            <mask id="b" fill="#fff">
                <use xlink:href="#a"/>
            </mask>
            <path fill="#ABDD00" d="M57.586 29.258c0 15.929-12.891 28.842-28.793 28.842S0 45.187 0 29.258C0 13.328 12.891.415 28.793.415s28.793 12.913 28.793 28.843" mask="url(#b)"/>
        </g>
        <g transform="translate(9.321)">
            <mask id="d" fill="#fff">
                <use xlink:href="#c"/>
            </mask>
            <path fill="#ABDD00" d="M19.715 8.398c-6.113 0-11.086 4.85-11.086 10.813 0 5.962 4.973 10.813 11.086 10.813s11.087-4.851 11.087-10.813c0-5.963-4.974-10.813-11.087-10.813m0 29.783c-10.725 0-19.45-8.51-19.45-18.97C.266 8.75 8.99.24 19.716.24s19.45 8.51 19.45 18.97c0 10.46-8.725 18.97-19.45 18.97" mask="url(#d)"/>
        </g>
        <path fill="#FFF" fill-rule="nonzero" d="M27.3 43c.48 0 .912.298 1.1.756.187.459.092.99-.241 1.347L23.231 50.4l6.06 9.682c.239.382.257.869.048 1.269-.209.4-.612.649-1.05.649h-1.891c-.424 0-.816-.234-1.03-.614l-4.682-8.303-2.994 3.175v3.824c0 1.06-.826 1.918-1.846 1.918S14 61.141 14 60.082V44.918c0-1.06.827-1.918 1.846-1.918 1.02 0 1.846.859 1.846 1.918v6.519l7.105-8.036c.226-.255.546-.401.88-.401H27.3zm10.954 0c2.193 0 3.905.479 5.138 1.435.534.415.986.898 1.355 1.45.352.527.424 1.204.19 1.798a1.837 1.837 0 0 1-1.348 1.144h-.004a1.737 1.737 0 0 1-1.817-.826 3.729 3.729 0 0 0-.942-1.047c-.687-.522-1.544-.783-2.572-.783-1.558 0-2.797.514-3.716 1.541-.92 1.028-1.38 2.553-1.38 4.575 0 2.18.466 3.816 1.398 4.907.931 1.09 2.152 1.635 3.662 1.635a5.93 5.93 0 0 0 2.247-.457c.75-.305 1.395-.675 1.933-1.11v-2.33h-2.596c-.822 0-1.487-.694-1.487-1.548 0-.855.666-1.548 1.487-1.548h5.045c.637 0 1.153.537 1.153 1.2v5.577c0 .364-.16.71-.434.938-.711.591-1.649 1.121-2.812 1.59a11.418 11.418 0 0 1-4.307.859c-1.848 0-3.457-.403-4.831-1.21-1.373-.805-2.406-1.958-3.096-3.458-.691-1.5-1.036-3.131-1.036-4.895 0-1.913.385-3.613 1.156-5.1a7.941 7.941 0 0 1 3.386-3.422c1.132-.61 2.541-.915 4.228-.915z"/>
    </g>
</svg>
